<?xml version="1.0" encoding="UTF-8" standalone="no"?>
<!-- Created with Inkscape (http://www.inkscape.org/) -->

<svg
   width="325.41864mm"
   height="325.41864mm"
   viewBox="0 0 325.41864 325.41864"
   version="1.1"
   id="svg4771"
   xmlns="http://www.w3.org/2000/svg"
   xmlns:svg="http://www.w3.org/2000/svg">
  <defs
     id="defs4768" />
  <g
     id="layer1"
     transform="translate(-4.0258997,-101.83123)">
    <path
       style="fill:#000000;stroke-width:0.264583"
       d="m 19.362305,426.8349 c 0,-0.81687 1.830517,-8.7563 2.527427,-10.96211 4.024746,-12.73889 12.948784,-22.94308 25.782989,-29.48157 6.347716,-3.23389 11.508263,-5.29719 23.680207,-9.46782 4.220105,-1.44597 9.696979,-3.32309 12.170834,-4.17137 4.630869,-1.58789 12.637293,-4.45973 15.83293,-5.6792 2.461018,-0.93911 8.704258,-3.93658 10.346138,-4.96729 5.96108,-3.74221 8.61157,-7.78377 9.84575,-15.01312 0.34583,-2.02578 0.39655,-3.49236 0.25669,-7.41963 -0.2514,-7.05921 -0.29993,-7.25776 -2.16558,-8.86354 -5.63536,-4.85037 -11.05376,-11.26214 -14.42175,-17.06562 -3.17198,-5.46581 -5.894809,-12.63316 -7.369226,-19.39818 -0.330967,-1.51861 -0.582506,-2.1504 -0.842195,-2.11527 -0.20365,0.0275 -1.330589,0.25036 -2.504307,0.49515 -6.714358,1.40028 -11.886618,-2.79373 -17.639903,-14.30358 -3.108193,-6.21813 -6.425539,-14.94739 -7.591452,-19.97604 -2.327116,-10.03712 -1.512146,-17.12828 2.407338,-20.94596 1.414357,-1.37765 3.572696,-2.33737 5.25653,-2.33737 0.680429,0 1.048412,-0.11996 1.048412,-0.34179 0,-0.18799 -0.484585,-1.52744 -1.076854,-2.97657 -4.474105,-10.94684 -6.126428,-20.12551 -7.129516,-39.60465 -0.784966,-15.24354 2.190274,-27.29792 9.289865,-37.63853 1.797605,-2.61819 2.687293,-3.73075 6.611567,-8.26765 1.674548,-1.93597 3.764518,-4.91277 6.428131,-9.15574 0.692785,-1.10357 0.291253,-1.19607 -0.761735,-0.17548 -0.504958,0.48943 -0.97536,0.83262 -1.045343,0.76264 -0.18235,-0.18234 2.237952,-4.14101 3.907446,-6.3911 3.399579,-4.58183 9.347362,-10.25033 14.071232,-13.41049 10.5402,-7.05117 20.92261,-11.10723 35.85103,-14.00582 12.95853,-2.51609 27.02267,-2.80914 39.55521,-0.8242 16.51249,2.61529 27.83099,7.46889 39.41519,16.90201 1.82404,1.48534 2.92624,2.19422 3.57188,2.29727 6.85175,1.09365 11.29567,2.80508 15.99647,6.16057 1.98419,1.41633 6.76542,5.94937 6.76542,6.41421 0,0.1187 -0.41735,0.0414 -0.92742,-0.17168 -1.97691,-0.82601 -7.81047,-1.776 -7.79833,-1.26996 0.003,0.12609 0.73891,0.69704 1.63534,1.26877 10.91081,6.95883 19.12432,18.92935 22.52416,32.82715 1.44873,5.92217 2.03671,10.91569 2.25867,19.18229 0.3075,11.45216 -0.4509,23.3038 -1.98093,30.95625 -1.06701,5.33678 -2.02097,8.70241 -4.03709,14.24334 -0.60008,1.64921 -1.09107,3.04819 -1.09107,3.10886 0,0.0607 0.45723,0.1103 1.01608,0.1103 2.54606,0 6.09627,2.84533 7.19627,5.76748 2.63478,6.99914 1.30461,16.42703 -4.2658,30.23517 -3.25778,8.07556 -7.23056,14.91048 -10.45839,17.99305 -3.88192,3.70717 -7.07419,4.59032 -11.94374,3.30423 l -1.38999,-0.3671 -0.15314,0.7039 c -2.11712,9.73028 -5.14416,17.30116 -9.59284,23.99247 -3.3242,4.99993 -8.35065,10.60037 -12.82539,14.28995 -1.22859,1.01301 -1.28275,1.11694 -1.51238,2.90272 -0.131,1.01865 -0.31912,3.64247 -0.41807,5.83073 -0.27133,6.00001 0.39097,9.85628 2.40676,14.01302 2.20038,4.5375 4.88976,6.86702 11.91043,10.31685 5.61041,2.75682 8.58154,3.90794 21.89427,8.48262 1.92815,0.66259 4.33916,1.50796 5.35781,1.87862 1.01864,0.37065 4.64738,1.62343 8.06384,2.78389 19.70555,6.6934 29.19669,11.63256 36.51845,19.00404 5.51952,5.55702 9.84342,12.77411 12.03005,20.07952 0.67797,2.2651 2.25745,9.50704 2.25745,10.35045 0,0.52416 -0.48197,0.52588 -147.37292,0.52588 -133.679919,0 -147.372905,-0.0386 -147.372905,-0.41497 z"
       id="path4913" />
  </g>
</svg>
