<?xml version="1.0" encoding="UTF-8" standalone="no"?>
<!-- Created with Inkscape (http://www.inkscape.org/) -->

<svg
   width="352.40796mm"
   height="352.40796mm"
   viewBox="0 0 352.40796 352.40796"
   version="1.1"
   id="svg5037"
   xmlns="http://www.w3.org/2000/svg"
   xmlns:svg="http://www.w3.org/2000/svg">
  <defs
     id="defs5034" />
  <g
     id="layer1"
     transform="translate(-23.362208,-101.76175)">
    <path
       style="fill:#000000;stroke-width:0.264583"
       d="m 60.882965,409.68246 c 2.216796,-14.66215 8.274892,-26.85605 17.326444,-34.87518 8.261138,-7.31888 18.02413,-12.33731 42.159261,-21.67093 5.55083,-2.14665 14.39833,-6.42702 17.33021,-8.38428 1.16416,-0.77716 3.09737,-2.37532 4.29598,-3.55147 1.72548,-1.6931 2.36803,-2.54723 3.08534,-4.10147 1.81821,-3.93949 2.41152,-7.85312 2.20286,-14.53073 l -0.14464,-4.63021 -0.75102,-0.58503 c -0.41307,-0.32177 -2.4179,-1.86382 -4.45519,-3.4268 -4.05389,-3.11006 -9.3436,-8.21419 -12.15154,-11.72526 -5.3426,-6.68035 -8.9448,-13.76286 -12.35253,-24.2871 -0.69127,-2.13486 -0.96692,-2.6843 -1.28486,-2.56113 -3.84355,1.48901 -8.01386,0.11532 -11.1882,-3.68539 -4.65339,-5.57163 -9.733969,-16.32795 -12.010894,-25.42884 -0.898684,-3.59213 -1.138581,-9.16166 -0.522684,-12.13555 0.836189,-4.03763 2.812071,-6.90611 5.609537,-8.14356 0.644022,-0.28489 1.170966,-0.54232 1.170966,-0.57207 0,-0.0298 -0.595577,-2.13754 -1.323525,-4.68397 -5.080794,-17.77353 -6.253903,-35.3725 -3.292448,-49.3936 4.118001,-19.49685 15.408588,-37.03831 32.794098,-50.95008 13.20252,-10.56456 27.33579,-16.22785 45.50833,-18.23544 4.85476,-0.53633 20.22808,-0.46189 24.50256,0.11864 11.44513,1.55439 20.41625,4.71625 27.55296,9.71099 3.62397,2.53629 7.86141,6.90204 10.30515,10.61718 l 2.0197,3.07047 2.8671,0.71828 c 5.75771,1.44244 10.07285,4.05479 15.32467,9.27744 6.3028,6.26779 10.38918,13.58176 13.70896,24.53687 1.13192,3.73526 2.87676,12.22367 3.5228,17.13792 0.59108,4.49609 0.66111,17.76007 0.11943,22.62187 -0.8041,7.21739 -2.4203,15.62217 -4.21598,21.92443 l -0.96975,3.40361 0.57449,0.43285 c 0.31599,0.23807 1.109,0.82844 1.76229,1.31192 4.665,3.45258 5.63303,12.79196 2.37156,22.88068 -1.40586,4.34876 -3.61053,9.69792 -5.4197,13.14963 -5.36003,10.22655 -10.13084,14.0703 -15.65973,12.61679 -1.14194,-0.3002 -1.56416,-0.32449 -1.64063,-0.0944 -0.0567,0.17043 -0.4821,1.56003 -0.94549,3.088 -1.09397,3.60739 -2.76381,7.93284 -4.40859,11.41979 -1.45177,3.07776 -5.03462,8.70892 -7.16209,11.25664 -0.75414,0.90313 -1.37117,1.75264 -1.37117,1.8878 0,0.13516 0.30824,0.4477 0.68495,0.69454 1.21653,0.79711 6.79781,5.83106 8.84478,7.97741 4.80769,5.04116 8.37039,10.73386 10.26822,16.40722 1.0569,3.15952 2.04734,8.37472 2.40546,12.66597 0.15785,1.89177 0.34967,4.18372 0.42627,5.09323 0.0806,0.95769 0.0342,1.65365 -0.11026,1.65365 -0.30292,0 -2.19022,-2.10868 -3.21696,-3.59434 -0.41082,-0.59442 -1.42311,-2.38035 -2.24956,-3.96875 -0.82646,-1.58838 -1.56351,-2.94749 -1.63791,-3.02025 -0.0744,-0.0728 -0.0727,1.05834 0.004,2.51354 0.16359,3.1133 0.80803,5.26601 2.37622,7.9375 1.46648,2.4982 3.34555,4.27056 5.93574,5.59861 2.77974,1.42523 5.39187,2.0065 8.51768,1.89545 1.32725,-0.0472 2.41295,0.013 2.4126,0.13388 -0.003,0.48279 -3.16008,3.33896 -4.57702,4.13867 -0.82995,0.46839 -1.509,0.93366 -1.509,1.03394 0,0.10027 1.27992,0.75641 2.84427,1.45809 18.35996,8.23507 28.45882,17.65509 33.92707,31.64657 1.86994,4.78459 3.60532,11.48715 4.33284,16.7349 l 0.13756,0.99218 H 183.09825 60.652868 l 0.230018,-1.52135 z M 226.202,342.82707 c 0,-0.0628 -0.35568,-1.07892 -0.79042,-2.25796 -2.05904,-5.58445 -3.26768,-12.32942 -3.61669,-20.18352 -0.0954,-2.14643 -0.25604,-3.90261 -0.35701,-3.90261 -0.10096,0 -0.65944,0.34473 -1.24108,0.76605 l -1.05748,0.76605 -0.18296,3.93031 c -0.33634,7.225 0.7798,13.29369 3.06985,16.69118 1.37742,2.04356 4.17579,4.85177 4.17579,4.1905 z"
       id="path5179" />
    <path
       style="fill:#000000;stroke-width:0.264583"
       d="m 189.16719,452.3317 c -26.76985,-0.56528 -53.55119,-3.0898 -80.03645,-7.54454 -16.839276,-2.83234 -34.876011,-6.56045 -40.34896,-8.33996 -4.222215,-1.37284 -7.299333,-3.8278 -8.801835,-7.02225 -0.810289,-1.72275 -0.848278,-1.94694 -0.821735,-4.84896 0.0226,-2.47018 0.160734,-3.49079 0.734163,-5.42396 4.310536,-14.53203 12.623429,-26.04892 25.430151,-35.23152 4.161973,-2.98421 9.351037,-6.03973 14.944676,-8.79996 8.17226,-4.0327 13.00739,-5.98805 24.60625,-9.95085 20.13219,-6.87824 21.19976,-7.28213 24.225,-9.16501 2.59723,-1.61647 4.87138,-5.14157 5.81893,-9.01975 0.55626,-2.27666 0.83497,-8.78017 0.39881,-9.30572 -0.17976,-0.21659 -1.95347,-1.5471 -3.94155,-2.95669 -9.47312,-6.71655 -15.40172,-13.00329 -20.64089,-21.88781 -1.84695,-3.13204 -3.20341,-5.87878 -4.39951,-8.90873 -1.23635,-3.13186 -3.21313,-9.05768 -3.83599,-11.49919 l -0.4699,-1.8419 -2.08319,-0.0485 c -3.88591,-0.0905 -7.05123,-1.60858 -9.6238,-4.61551 -1.77244,-2.07169 -4.32445,-5.83335 -6.18368,-9.11467 -8.031771,-14.17519 -10.215377,-27.74978 -5.693463,-35.39405 0.956204,-1.61648 3.275413,-3.8966 3.963403,-3.8966 0.42495,0 0.26395,-0.8703 -0.83399,-4.50836 -2.28063,-7.55677 -3.931524,-15.63201 -4.920219,-24.06664 -0.565891,-4.82779 -0.647832,-17.03105 -0.143007,-21.29895 1.238991,-10.47455 3.914006,-19.35478 8.209226,-27.25209 9.47677,-17.42422 22.31435,-31.92247 35.51613,-40.11047 5.93651,-3.68194 8.47352,-5.00716 14.60674,-7.62992 14.92123,-6.38076 30.93191,-9.46832 47.42156,-9.14495 20.5051,0.40212 37.90953,5.41224 50.00625,14.39505 3.37579,2.5068 5.67298,4.70859 8.74403,8.3809 l 2.45218,2.93227 2.3394,0.87107 c 10.03159,3.73525 18.45262,10.4822 24.61635,19.72272 3.14868,4.72044 6.51844,12.05709 8.42386,18.34048 1.14504,3.77597 2.83588,12.10955 3.47226,17.11369 0.66101,5.19776 0.65802,18.73415 -0.005,24.20937 -1.06821,8.81659 -3.4335,20.40995 -5.22846,25.62711 -0.53949,1.56805 -0.63114,2.41872 -0.26059,2.41872 0.59137,0 3.03522,2.59956 3.90348,4.15215 1.57684,2.81961 2.02446,4.88738 2.05086,9.47389 0.0262,4.53394 -0.55941,8.04634 -2.13103,12.7837 -2.03084,6.1215 -5.71119,13.53284 -9.08995,18.30485 -4.35996,6.15785 -7.38534,8.18275 -12.38858,8.29164 l -1.96318,0.0427 -1.51379,4.7625 c -2.00766,6.31621 -2.88025,8.59379 -4.86563,12.7 -3.07917,6.36842 -6.93275,12.00326 -11.53319,16.86424 -3.79045,4.00512 -7.17227,6.77665 -14.53909,11.91537 -1.28498,0.89633 -1.49625,1.87707 -1.26895,5.89089 0.29255,5.16591 1.77949,8.92254 4.65881,11.7702 2.67473,2.64527 2.74268,2.67419 21.32449,9.07595 12.3362,4.25002 16.09649,5.62607 20.34189,7.44394 20.96486,8.97708 32.73289,17.84025 41.71227,31.41594 4.45138,6.72997 8.45603,17.44387 8.45696,22.62552 0,4.30578 -2.40189,7.88147 -6.88314,10.24364 -2.06147,1.08664 -3.83918,1.60015 -11.50506,3.32332 -14.21262,3.19477 -26.91223,5.53244 -43.78854,8.06032 -10.05798,1.50659 -9.21142,1.39428 -19.05,2.52707 -3.12573,0.35988 -12.85782,1.22425 -19.18229,1.7037 -17.90735,1.35758 -33.44069,1.80276 -50.40312,1.44457 z"
       id="path5364" />
  </g>
</svg>
