<?xml version="1.0" encoding="UTF-8" standalone="no"?>
<!-- Created with Inkscape (http://www.inkscape.org/) -->

<svg
   width="309.44205mm"
   height="309.44205mm"
   viewBox="0 0 309.44204 309.44205"
   version="1.1"
   id="svg5037"
   xmlns="http://www.w3.org/2000/svg"
   xmlns:svg="http://www.w3.org/2000/svg">
  <defs
     id="defs5034" />
  <g
     id="layer1"
     transform="translate(-28.377386,-101.76174)">
    <path
       style="fill:#000000;stroke-width:0.264583"
       d="m 60.882965,409.68246 c 2.216796,-14.66215 8.274892,-26.85605 17.326444,-34.87518 8.261138,-7.31888 18.02413,-12.33731 42.159261,-21.67093 5.55083,-2.14665 14.39833,-6.42702 17.33021,-8.38428 1.16416,-0.77716 3.09737,-2.37532 4.29598,-3.55147 1.72548,-1.6931 2.36803,-2.54723 3.08534,-4.10147 1.81821,-3.93949 2.41152,-7.85312 2.20286,-14.53073 l -0.14464,-4.63021 -0.75102,-0.58503 c -0.41307,-0.32177 -2.4179,-1.86382 -4.45519,-3.4268 -4.05389,-3.11006 -9.3436,-8.21419 -12.15154,-11.72526 -5.3426,-6.68035 -8.9448,-13.76286 -12.35253,-24.2871 -0.69127,-2.13486 -0.96692,-2.6843 -1.28486,-2.56113 -3.84355,1.48901 -8.01386,0.11532 -11.1882,-3.68539 -4.65339,-5.57163 -9.733969,-16.32795 -12.010894,-25.42884 -0.898684,-3.59213 -1.138581,-9.16166 -0.522684,-12.13555 0.836189,-4.03763 2.812071,-6.90611 5.609537,-8.14356 0.644022,-0.28489 1.170966,-0.54232 1.170966,-0.57207 0,-0.0298 -0.595577,-2.13754 -1.323525,-4.68397 -5.080794,-17.77353 -6.253903,-35.3725 -3.292448,-49.3936 4.118001,-19.49685 15.408588,-37.03831 32.794098,-50.95008 13.20252,-10.56456 27.33579,-16.22785 45.50833,-18.23544 4.85476,-0.53633 20.22808,-0.46189 24.50256,0.11864 11.44513,1.55439 20.41625,4.71625 27.55296,9.71099 3.62397,2.53629 7.86141,6.90204 10.30515,10.61718 l 2.0197,3.07047 2.8671,0.71828 c 5.75771,1.44244 10.07285,4.05479 15.32467,9.27744 6.3028,6.26779 10.38918,13.58176 13.70896,24.53687 1.13192,3.73526 2.87676,12.22367 3.5228,17.13792 0.59108,4.49609 0.66111,17.76007 0.11943,22.62187 -0.8041,7.21739 -2.4203,15.62217 -4.21598,21.92443 l -0.96975,3.40361 0.57449,0.43285 c 0.31599,0.23807 1.109,0.82844 1.76229,1.31192 4.665,3.45258 5.63303,12.79196 2.37156,22.88068 -1.40586,4.34876 -3.61053,9.69792 -5.4197,13.14963 -5.36003,10.22655 -10.13084,14.0703 -15.65973,12.61679 -1.14194,-0.3002 -1.56416,-0.32449 -1.64063,-0.0944 -0.0567,0.17043 -0.4821,1.56003 -0.94549,3.088 -1.09397,3.60739 -2.76381,7.93284 -4.40859,11.41979 -1.45177,3.07776 -5.03462,8.70892 -7.16209,11.25664 -0.75414,0.90313 -1.37117,1.75264 -1.37117,1.8878 0,0.13516 0.30824,0.4477 0.68495,0.69454 1.21653,0.79711 6.79781,5.83106 8.84478,7.97741 4.80769,5.04116 8.37039,10.73386 10.26822,16.40722 1.0569,3.15952 2.04734,8.37472 2.40546,12.66597 0.15785,1.89177 0.34967,4.18372 0.42627,5.09323 0.0806,0.95769 0.0342,1.65365 -0.11026,1.65365 -0.30292,0 -2.19022,-2.10868 -3.21696,-3.59434 -0.41082,-0.59442 -1.42311,-2.38035 -2.24956,-3.96875 -0.82646,-1.58838 -1.56351,-2.94749 -1.63791,-3.02025 -0.0744,-0.0728 -0.0727,1.05834 0.004,2.51354 0.16359,3.1133 0.80803,5.26601 2.37622,7.9375 1.46648,2.4982 3.34555,4.27056 5.93574,5.59861 2.77974,1.42523 5.39187,2.0065 8.51768,1.89545 1.32725,-0.0472 2.41295,0.013 2.4126,0.13388 -0.003,0.48279 -3.16008,3.33896 -4.57702,4.13867 -0.82995,0.46839 -1.509,0.93366 -1.509,1.03394 0,0.10027 1.27992,0.75641 2.84427,1.45809 18.35996,8.23507 28.45882,17.65509 33.92707,31.64657 1.86994,4.78459 3.60532,11.48715 4.33284,16.7349 l 0.13756,0.99218 H 183.09825 60.652868 l 0.230018,-1.52135 z M 226.202,342.82707 c 0,-0.0628 -0.35568,-1.07892 -0.79042,-2.25796 -2.05904,-5.58445 -3.26768,-12.32942 -3.61669,-20.18352 -0.0954,-2.14643 -0.25604,-3.90261 -0.35701,-3.90261 -0.10096,0 -0.65944,0.34473 -1.24108,0.76605 l -1.05748,0.76605 -0.18296,3.93031 c -0.33634,7.225 0.7798,13.29369 3.06985,16.69118 1.37742,2.04356 4.17579,4.85177 4.17579,4.1905 z"
       id="path5179" />
  </g>
</svg>
