<?xml version="1.0" encoding="UTF-8" standalone="no"?>
<!-- Created with Inkscape (http://www.inkscape.org/) -->

<svg
   width="319.44977mm"
   height="319.44977mm"
   viewBox="0 0 319.44977 319.44977"
   version="1.1"
   id="svg1945"
   xmlns="http://www.w3.org/2000/svg"
   xmlns:svg="http://www.w3.org/2000/svg">
  <defs
     id="defs1942" />
  <g
     id="layer1"
     transform="translate(-19.784354,-104.56165)">
    <path
       style="fill:#000000;stroke-width:0.264583"
       d="m 19.937978,417.23543 c 0.16543,-1.39679 4.66617,-19.79329 5.96156,-24.36752 2.95113,-10.4209 6.38341,-21.00463 8.08431,-24.92869 l 0.42649,-0.98391 -1.36474,-2.31055 c -2.69104,-4.55605 -4.17786,-8.46572 -4.18779,-11.01204 -0.005,-1.26801 0.67524,-2.20377 2.90651,-3.99849 3.82559,-3.07716 17.8909,-12.24894 22.40662,-14.61103 2.34494,-1.22661 3.71246,-1.44537 5.61832,-0.89876 0.84398,0.24204 1.08079,0.14613 3.70242,-1.49969 3.5494,-2.22824 13.91604,-7.44157 22.7768,-11.45433 1.52797,-0.69197 6.05235,-2.77415 10.05417,-4.62706 4.001832,-1.85292 10.312142,-4.73836 14.022922,-6.41211 3.71078,-1.67375 7.07337,-3.29873 7.47244,-3.61107 0.45154,-0.35341 1.68262,-2.45729 3.25972,-5.5707 3.49324,-6.8962 4.25236,-7.96644 6.29785,-8.87926 1.46341,-0.65307 7.26429,-2.26077 7.45808,-2.067 0.18584,0.18586 -0.63368,3.33783 -1.11996,4.30741 -0.92784,1.85002 -1.21322,3.41282 -1.09918,6.01976 0.0949,2.16952 0.22447,2.711 1.08,4.51248 1.48802,3.13337 2.73137,4.83356 5.68714,7.77682 5.74894,5.72457 13.72253,10.45391 21.92464,13.00404 5.38906,1.67552 6.34386,2.10515 7.70221,3.46558 1.83848,1.84131 2.95283,4.74332 4.45701,11.60698 0.1664,0.75917 1.1993,1.20616 3.77589,1.63396 3.13317,0.5202 7.8721,-0.31139 8.10789,-1.4228 0.0653,-0.30763 0.31465,-1.57136 0.55417,-2.80828 0.51388,-2.65367 1.62068,-5.81581 2.54995,-7.28525 1.53969,-2.43473 3.20088,-3.49684 7.22154,-4.61727 3.6226,-1.0095 5.99413,-1.85739 8.51982,-3.04607 9.09447,-4.28023 17.26607,-11.16405 20.52479,-17.29029 2.21903,-4.17164 2.31539,-7.72088 0.33163,-12.21508 -0.74959,-1.69821 -1.14197,-3.70021 -0.7252,-3.70021 0.55459,0 6.65274,1.84004 7.63148,2.30271 1.38991,0.65701 2.79731,2.77168 5.81607,8.73876 1.38171,2.7312 2.65433,5.10429 2.82806,5.27352 0.17369,0.16924 3.05427,1.55328 6.40125,3.07565 3.34697,1.52236 8.64526,3.95837 11.77395,5.41335 3.1287,1.45497 7.83167,3.62669 10.45104,4.82604 13.19642,6.04232 22.54616,10.71215 26.27268,13.12219 l 2.72476,1.76218 1.37628,-0.42434 c 1.60732,-0.49554 2.51225,-0.34988 4.68358,0.75393 4.42047,2.24716 18.49411,11.39542 22.47042,14.60643 2.77426,2.24028 3.31859,2.95526 3.26541,4.28905 -0.10226,2.56408 -1.96204,7.28856 -4.528,11.50266 l -1.10834,1.82028 0.70258,1.75159 c 2.33627,5.82438 5.18961,14.57016 7.60669,23.31516 1.23248,4.45905 6.02943,23.67161 6.35836,25.46615 l 0.18185,0.99219 H 179.50924 19.784358 Z m 152.187802,-95.9579 c -14.69052,-2.25929 -27.36829,-9.1243 -32.24972,-17.46323 -1.71953,-2.9375 -1.89103,-3.91691 -1.36306,-7.78422 0.23951,-1.7544 0.54436,-5.41883 0.67742,-8.14318 0.34771,-7.11932 0.37369,-6.67315 -0.38849,-6.67315 -1.03357,0 -4.88641,1.29601 -6.76053,2.27409 -1.90934,0.99646 -4.88643,3.21404 -8.23886,6.13695 -2.35844,2.05626 -4.46376,3.22695 -6.98344,3.88325 -1.60753,0.41871 -3.51268,0.51835 -4.55752,0.23837 -0.55333,-0.14828 -0.51417,-0.21324 0.52916,-0.878 1.58361,-1.00898 3.02959,-2.70369 3.92896,-4.60475 1.01092,-2.13687 0.9707,-2.48322 -0.16801,-1.44702 -3.24273,2.95081 -6.51968,4.45128 -9.72143,4.45128 -2.04142,0 -4.10384,-0.4878 -5.87327,-1.38913 l -1.054212,-0.537 1.421342,-0.36375 c 2.05055,-0.52477 4.36034,-1.83951 5.60613,-3.19105 2.29335,-2.48801 2.9913,-5.4396 2.34778,-9.92911 l -0.34777,-2.42629 -0.54912,0.77094 c -2.03885,2.86247 -4.58835,4.60864 -7.53054,5.15774 -2.858142,0.53342 -2.955402,0.43733 -1.181822,-1.16767 1.835872,-1.66135 3.026022,-3.71011 3.689382,-6.35107 0.40844,-1.62591 0.42754,-2.29634 0.171,-6.00099 -0.23376,-3.37596 -0.22058,-4.42906 0.0691,-5.52722 0.27911,-1.05805 0.28467,-1.29587 0.0251,-1.08058 -1.29495,1.07472 -2.77288,5.90513 -2.87626,9.40058 -0.0324,1.09719 -0.13168,1.99539 -0.22055,1.996 -0.35129,0.002 -1.826512,-3.17608 -2.398402,-5.16757 -0.83974,-2.9241 -0.83897,-7.30917 0.003,-10.27662 0.32475,-1.14611 0.76528,-2.33346 0.97898,-2.63856 0.21371,-0.3051 0.38854,-0.63044 0.38854,-0.72296 0,-0.0925 -0.9889,0.22882 -2.19755,0.71412 -2.50515,1.00588 -4.92217,1.40654 -7.12996,1.18193 l -1.52231,-0.15487 1.66391,-0.8593 c 3.78254,-1.95342 7.89996,-5.96015 9.992682,-9.72403 1.72943,-3.11043 3.26586,-7.96584 3.68388,-11.64167 0.14893,-1.30968 0.33596,-2.7682 0.4156,-3.24114 0.0796,-0.47294 0.0501,-0.85693 -0.0656,-0.85331 -0.36941,0.0116 -2.63773,3.2398 -3.52525,5.01703 -1.545862,3.09552 -2.915422,7.5201 -3.236072,10.45451 -0.083,0.75979 -0.10303,0.74281 -0.4671,-0.39688 -0.60597,-1.89685 -0.48556,-8.77183 0.20619,-11.77396 0.7815,-3.39149 1.96602,-6.48906 3.640012,-9.51878 0.79859,-1.4454 1.45201,-2.70095 1.45201,-2.79012 0,-0.0892 -0.80367,0.23433 -1.78594,0.71887 -1.929132,0.95162 -5.168562,1.93567 -6.346642,1.92795 -0.6423,-0.004 -0.55499,-0.10178 0.71998,-0.80448 3.21136,-1.76992 8.873732,-6.91406 12.214922,-11.09698 3.3284,-4.1669 6.3564,-9.57762 7.65432,-13.67741 l 0.60258,-1.90345 -1.08899,-1.18142 c -1.73549,-1.88276 -1.91577,-3.38879 -1.22942,-10.2686 0.25654,-2.5716 0.0957,-2.92269 -2.0787,-4.53789 -3.72996,-2.7707 -5.15429,-4.78252 -6.43964,-9.09571 -0.60177,-2.01938 -0.69588,-2.82455 -0.7053,-6.03448 -0.01,-3.27513 0.0717,-3.97997 0.7017,-6.08541 1.8229,-6.09171 5.48074,-11.58763 11.71062,-17.5952 1.43383,-1.38266 5.58353,-4.83303 9.22155,-7.66747 3.63802,-2.83444 7.56708,-5.92203 8.73125,-6.86131 9.15971,-7.39024 21.33303,-12.06597 35.5865,-13.66865 4.41293,-0.4962 13.77172,-0.4843 18.10866,0.023 14.15069,1.65529 26.22836,6.41855 35.46946,13.98864 1.16417,0.95366 5.0337,3.96623 8.59896,6.6946 12.07582,9.24121 17.50581,15.68328 20.42904,24.23666 0.73263,2.14375 0.84637,2.86728 0.94453,6.00908 0.0931,2.97838 0.0196,3.9588 -0.4428,5.90057 -1.08739,4.56752 -2.92177,7.52924 -6.18517,9.9863 -1.23502,0.92987 -1.78816,1.53498 -1.90992,2.08938 -0.0998,0.45431 0.11843,2.3323 0.52221,4.49419 0.58512,3.13287 0.65138,3.94228 0.42354,5.17468 -0.34785,1.88174 -0.65135,2.46522 -1.81099,3.4817 l -0.94922,0.83204 0.87733,2.34296 c 2.54273,6.79055 6.35794,12.53632 12.18462,18.35026 3.05795,3.05129 4.98565,4.61667 7.16349,5.81711 1.34781,0.74292 1.38348,0.78817 0.62508,0.79268 -1.29956,0.008 -3.6892,-0.71346 -5.67124,-1.71159 -1.0151,-0.5112 -1.89744,-0.92944 -1.96078,-0.92944 -0.0633,0 0.46885,1.04179 1.18266,2.3151 3.58418,6.3935 5.17488,13.2572 4.50462,19.43703 -0.41884,3.86172 -0.66877,4.25133 -1.05617,1.64651 -0.40217,-2.70392 -1.90026,-7.14218 -3.21434,-9.52269 -1.13919,-2.06239 -3.05845,-4.61554 -3.47033,-4.61554 -0.14174,0 -0.19264,0.10524 -0.11316,0.23386 0.0795,0.12862 0.33205,1.52761 0.56126,3.10885 0.84918,5.85871 2.78516,11.30085 5.24782,14.75198 2.06934,2.89992 6.10923,6.28982 9.11392,7.64756 l 1.23558,0.55832 -0.79375,0.17987 c -2.16712,0.49109 -5.90825,-0.10159 -8.46016,-1.34027 -0.86955,-0.42207 -1.62322,-0.7252 -1.67479,-0.67362 -0.0516,0.0516 0.0869,0.37201 0.30769,0.71206 0.73186,1.12704 1.52522,4.54983 1.67717,7.23593 0.18102,3.20007 -0.40876,5.92911 -1.96321,9.08399 -0.97134,1.97143 -0.99973,2.00074 -1.06535,1.09939 -0.28982,-3.98187 -1.12003,-7.3296 -2.32939,-9.39324 -0.74594,-1.27282 -1.32572,-1.61744 -0.91829,-0.54582 0.34092,0.89666 0.37074,2.34126 0.13756,6.66094 -0.23138,4.28587 -0.019,5.60372 1.34017,8.32372 0.57888,1.15829 1.41038,2.23977 2.49197,3.24115 l 1.62325,1.50283 h -0.88553 c -1.35007,0 -3.90129,-0.74044 -5.23005,-1.51791 -1.43534,-0.83983 -3.89125,-3.11275 -4.1108,-3.8045 -0.30917,-0.97408 -0.59143,-0.46996 -0.9202,1.64343 -0.6432,4.13475 0.10515,7.35229 2.2665,9.74465 1.27008,1.40582 2.83652,2.32279 5.20174,3.04502 l 1.86854,0.57056 -0.66969,0.4388 c -0.36833,0.24134 -1.3929,0.68244 -2.27685,0.98021 -4.10117,1.38159 -9.02528,0.12301 -13.08859,-3.34538 -0.74829,-0.63872 -1.39925,-1.04512 -1.44658,-0.9031 -0.16063,0.48183 1.39139,3.28054 2.5078,4.52225 0.61113,0.6797 1.53424,1.524 2.05137,1.87621 0.51712,0.35221 0.94104,0.74425 0.94204,0.87119 0,0.12694 -1.03999,0.17496 -2.3133,0.10672 -4.08654,-0.21901 -6.68216,-1.50075 -10.94285,-5.40366 -4.2114,-3.85773 -7.07284,-5.57857 -11.15912,-6.71094 -3.27411,-0.9073 -2.9959,-1.44309 -2.78357,5.36062 0.10972,3.51592 0.38732,7.21945 0.68921,9.19458 l 0.50549,3.30729 -0.60265,1.68785 c -2.3723,6.64417 -11.9362,13.92695 -22.9749,17.49505 -6.20684,2.00628 -11.97647,2.91595 -18.28213,2.88245 -2.47385,-0.0132 -5.56948,-0.18869 -6.87916,-0.39011 z"
       id="path2193" />
  </g>
</svg>
