<?xml version="1.0" encoding="UTF-8" standalone="no"?>
<!-- Created with Inkscape (http://www.inkscape.org/) -->

<svg
   width="338.29898mm"
   height="338.29898mm"
   viewBox="0 0 338.29898 338.29898"
   version="1.1"
   id="svg3955"
   xmlns="http://www.w3.org/2000/svg"
   xmlns:svg="http://www.w3.org/2000/svg">
  <defs
     id="defs3952" />
  <g
     id="layer1"
     transform="translate(37.357921,-95.028539)">
    <path
       style="fill:#000000;stroke-width:0.264583"
       d="m 120.01231,423.27864 c -16.45187,-0.33573 -30.805645,-1.12927 -44.979162,-2.48664 -8.212349,-0.78647 -21.46882,-2.30909 -28.640536,-3.28964 -15.207509,-2.07918 -38.042934,-6.14257 -50.469879,-8.98075 -5.566002,-1.27119 -14.047998,-3.33314 -18.123958,-4.40584 -10.860026,-2.85811 -14.965182,-3.98698 -15.143609,-4.16425 -0.233145,-0.23165 2.704034,-10.6266 4.422783,-15.65265 2.838498,-8.30045 7.515299,-16.27161 11.959714,-20.38419 4.657439,-4.30969 13.258048,-8.80308 29.188195,-15.24939 3.41974,-1.38382 7.110677,-2.85141 8.202083,-3.26125 1.091407,-0.40987 5.853907,-2.25481 10.583334,-4.09983 4.729427,-1.84504 9.789582,-3.8091 11.244791,-4.36459 3.244797,-1.23865 12.526248,-4.84619 16.203083,-6.29785 1.490133,-0.58833 2.769764,-0.97189 2.843635,-0.85238 0.07385,0.11951 0.01773,1.62811 -0.124618,3.35245 -0.444474,5.38234 -0.665851,10.86697 -0.665851,16.49662 0,5.26669 0.283581,14.25429 0.525939,16.66875 0.06572,0.65484 0.248682,3.03609 0.406585,5.29166 0.349647,4.99449 0.99187,12.19751 1.211713,13.58993 0.15695,0.99409 0.186266,1.01817 1.067011,0.87524 0.945145,-0.15338 4.037939,-1.83407 8.272277,-4.49532 1.36824,-0.85993 3.451834,-2.12553 4.630209,-2.8125 1.178401,-0.68694 5.642318,-3.4122 9.919837,-6.0561 4.277545,-2.6439 8.240501,-4.94586 8.806577,-5.11548 1.294183,-0.38775 0.753268,-0.64524 11.443227,5.44788 4.66696,2.66009 9.10013,5.16546 9.8515,5.56746 1.29378,0.69223 1.46436,0.91496 3.22191,4.20709 3.17563,5.94834 9.39387,18.67408 10.88152,22.26927 2.34008,5.65517 2.65441,7.22428 2.65441,13.25075 v 5.13011 l -3.10886,-0.0569 c -1.70987,-0.0313 -4.53761,-0.0861 -6.28386,-0.12168 z m 14.40683,0.0222 c -0.007,-0.13224 -0.007,-2.72576 0,-5.76342 l 0.0122,-5.52299 1.24,-3.73742 c 0.98703,-2.975 2.47198,-6.20311 7.2794,-15.82436 3.58669,-7.17817 6.34802,-12.38965 6.79929,-12.83229 0.41791,-0.40995 2.58964,-1.7439 4.82603,-2.96434 2.23641,-1.22045 4.40968,-2.45629 4.82952,-2.7463 1.33318,-0.92101 11.11715,-6.29385 11.75461,-6.45501 0.84622,-0.21397 1.99419,0.35298 7.40357,3.65638 23.31464,14.23776 25.86448,15.62801 26.34877,14.36595 0.28514,-0.74308 0.90184,-6.63435 1.34192,-12.81975 1.03428,-14.53644 1.18888,-24.90859 0.53594,-35.95812 -0.21844,-3.69689 -0.33901,-6.77984 -0.26789,-6.85096 0.0711,-0.0711 1.94778,0.59248 4.17036,1.47468 2.22258,0.8822 6.12465,2.39379 8.67127,3.3591 2.54661,0.96531 7.19005,2.75328 10.31875,3.97333 3.12869,1.22002 8.54604,3.30679 12.03854,4.63727 20.84541,7.94112 32.33221,13.08539 38.79371,17.37347 7.0853,4.70204 12.34308,12.88023 16.75093,26.05526 2.00721,5.99951 3.57277,11.3429 3.66014,12.49244 0.061,0.80211 0.0302,0.82346 -2.05478,1.42346 -2.02489,0.58271 -7.86112,2.10431 -17.85938,4.65619 -20.06896,5.1223 -44.82314,9.75979 -69.32083,12.98673 -12.29844,1.62001 -30.15369,3.29657 -43.78854,4.11162 -12.12845,0.72498 -33.46146,1.30421 -33.48276,0.90908 z m 65.10047,-45.15567 c -0.50933,-0.30448 -3.06917,-1.88238 -5.68854,-3.50647 -2.61938,-1.62406 -6.48489,-4.00642 -8.59002,-5.2941 -2.10513,-1.28767 -5.29574,-3.26498 -7.09025,-4.39401 -3.6091,-2.27074 -5.59985,-3.01448 -7.30687,-2.72987 -1.32649,0.22119 -2.3396,0.72554 -7.43995,3.70393 -5.47237,3.19564 -7.986,4.61587 -8.16943,4.61587 -0.16963,0 3.79394,-6.5663 6.68351,-11.07239 9.14664,-14.26358 17.02384,-29.2808 19.93685,-38.00782 1.31429,-3.93753 1.5145,-6.55276 0.90139,-11.77396 -0.57957,-4.93527 -0.61937,-6.77041 -0.14447,-6.66249 1.61891,0.36788 4.41169,2.74546 6.58281,5.60416 3.23374,4.25783 10.68157,15.7927 11.51083,17.82752 1.20515,2.95706 1.8107,21.85289 1.17112,36.54435 -0.35689,8.19762 -0.96628,15.76089 -1.26669,15.7208 -0.0903,-0.0122 -0.58097,-0.27103 -1.09029,-0.57552 z m -136.525003,0.26067 c 0,-0.0397 -0.171635,-2.2126 -0.381397,-4.82865 -1.067991,-13.31907 -1.206765,-32.33292 -0.310224,-42.50174 0.385789,-4.37559 0.548746,-5.01631 1.772603,-6.96931 3.78198,-6.03519 10.041889,-15.12303 12.07463,-17.52933 1.077516,-1.27555 4.289663,-3.50504 5.04989,-3.50504 0.422117,0 0.400183,1.4948 -0.08154,5.55625 -0.606478,5.11333 -0.528426,8.74729 0.245295,11.41718 0.867833,2.99474 2.888509,7.71423 5.973709,13.95223 4.384464,8.86497 6.748966,12.97382 17.374947,30.19309 2.94418,4.77099 3.85501,6.35 3.66295,6.35 -0.14836,0 -4.07094,-2.23756 -10.45586,-5.96429 -1.81901,-1.06175 -3.826721,-2.0673 -4.461563,-2.23462 -2.326031,-0.61301 -3.836246,0.0434 -12.47177,5.42073 -2.983177,1.85764 -7.031302,4.35756 -8.995833,5.55538 -1.964531,1.19782 -4.631849,2.8489 -5.927354,3.66908 -1.983105,1.25547 -3.068479,1.75742 -3.068479,1.41904 z M 126.4946,360.85328 c -8.49492,-1.03841 -13.77822,-2.49661 -19.60088,-5.40986 -2.12011,-1.06077 -3.18508,-2.06843 -4.37621,-4.14083 -0.40061,-0.697 -1.87495,-3.23181 -3.276284,-5.6329 -5.785855,-9.9136 -10.681546,-19.84963 -12.598849,-25.56989 l -0.962898,-2.87282 0.151553,-3.83646 c 0.08337,-2.11005 0.348694,-6.45583 0.589597,-9.65729 0.323771,-4.30258 0.394627,-7.3736 0.271675,-11.77396 l -0.16637,-5.95312 -1.312334,-1.85209 c -1.736778,-2.45106 -4.470664,-6.95589 -5.619988,-9.26041 -1.802103,-3.61343 -3.809126,-10.69839 -5.209143,-18.38855 -0.463603,-2.54661 -0.891778,-4.87912 -0.951494,-5.18336 -0.09218,-0.46978 -0.318717,-0.56019 -1.503151,-0.59988 -3.042841,-0.10196 -6.07097,-2.60387 -8.092149,-6.686 -2.15093,-4.34413 -4.748715,-13.4501 -6.14209,-21.52971 -0.613066,-3.55494 -0.748348,-9.22569 -0.270351,-11.33366 0.740251,-3.26455 2.662475,-5.44527 5.374481,-6.09723 0.586581,-0.14101 0.705458,-0.29231 0.601107,-0.76515 -1.457616,-6.60521 -4.40309,-24.01894 -5.067353,-29.95813 -0.524933,-4.69365 -0.592826,-12.34295 -0.136737,-15.40848 1.368161,-9.19603 5.556541,-16.22834 13.257239,-22.25893 l 2.241682,-1.7555 -1.771332,-0.0781 c -1.267725,-0.0559 -2.544419,0.12245 -4.490614,0.62723 -4.445477,1.15301 -4.206796,1.26478 -2.391516,-1.11987 4.127632,-5.42228 8.311885,-8.03487 14.533932,-9.07479 l 1.897142,-0.31705 0.674952,-1.36872 c 2.684092,-5.44275 7.80505,-10.33157 14.183201,-13.54023 5.499282,-2.76653 15.841162,-5.15869 22.302232,-5.15869 h 2.33937 l -1.93556,1.54129 c -2.62229,2.08812 -5.24285,4.70884 -5.24285,5.24316 0,0.79271 3.76099,0.26856 10.71562,-1.49336 3.4925,-0.88481 8.07641,-1.93126 10.18646,-2.32544 3.53576,-0.66051 4.35491,-0.71588 10.45104,-0.70639 5.69728,0.009 7.05491,0.0924 9.78959,0.60235 4.60486,0.85867 8.71511,2.25661 13.08795,4.45139 7.82212,3.92598 12.86828,8.91671 15.53808,15.36736 1.31022,3.16573 1.62732,3.5537 3.84308,4.70208 9.02676,4.6784 14.59412,11.7605 17.13693,21.79939 0.62798,2.47926 0.57062,3.12171 -0.23993,2.68791 -0.83288,-0.44574 -1.15252,-0.33772 -0.98427,0.33262 0.39534,1.57513 1.03489,11.97109 1.02057,16.5893 -0.0251,8.0904 -1.20113,18.40765 -3.00087,26.32605 -0.42998,1.89177 -0.84604,3.73978 -0.92462,4.1067 -0.13033,0.60871 -0.0324,0.69666 1.11898,1.0046 1.88452,0.50403 3.59151,2.32181 4.28133,4.5592 1.50984,4.89709 0.69707,13.07204 -2.48058,24.94963 -2.03745,7.6158 -3.44921,10.67615 -6.1858,13.4095 -1.3752,1.37357 -2.03255,1.82083 -3.20807,2.18281 -0.81314,0.25039 -1.76564,0.45708 -2.11667,0.45931 -0.35102,0.002 -0.7956,0.10385 -0.98795,0.22581 -0.19846,0.12584 -0.7348,2.15557 -1.23989,4.69231 -2.00761,10.08303 -3.73261,16.07086 -5.82912,20.23397 -0.87698,1.74143 -3.67813,6.08254 -5.76392,8.93264 l -0.84023,1.14816 0.0122,9.17059 c 0.008,6.27094 0.16092,11.05292 0.48238,15.12372 l 0.47012,5.95313 -0.67104,2.60117 c -0.85513,3.31481 -2.92611,8.1643 -6.34651,14.86132 -3.26718,6.39702 -10.52359,18.85572 -11.8066,20.27103 -0.89379,0.98594 -2.06465,1.58488 -7.01146,3.58661 -2.57813,1.04323 -6.91042,2.18779 -10.45104,2.76109 -3.18564,0.51583 -12.92845,0.89892 -15.34584,0.60341 z"
       id="path4097" />
  </g>
</svg>
