<?xml version="1.0" encoding="UTF-8" standalone="no"?>
<!-- Created with Inkscape (http://www.inkscape.org/) -->

<svg
   width="320.85223mm"
   height="320.85223mm"
   viewBox="0 0 320.85223 320.85223"
   version="1.1"
   id="svg2595"
   xmlns="http://www.w3.org/2000/svg"
   xmlns:svg="http://www.w3.org/2000/svg">
  <defs
     id="defs2592" />
  <g
     id="layer1"
     transform="translate(-1.9290168,-144.40815)">
    <path
       style="fill:#000000;stroke-width:0.264583"
       d="m 146.58138,460.62659 c -8.90471,-0.29196 -26.68579,-1.48298 -32.94062,-2.20646 -32.851415,-3.79976 -61.712725,-9.79181 -89.042606,-18.48654 -11.173026,-3.55458 -22.1176181,-7.38624 -22.6554981,-7.93163 -0.213235,-0.21619 2.119606,-9.19303 3.86252,-14.86305 4.091363,-13.30999 7.5225991,-21.87728 10.3317381,-25.79687 1.535015,-2.1418 4.668734,-5.10535 6.675543,-6.31304 0.903968,-0.54398 3.344749,-1.62674 5.423958,-2.40609 3.403532,-1.27577 13.677636,-6.09286 24.021005,-11.26239 7.417118,-3.70702 25.547081,-12.08124 37.808851,-17.46384 2.095447,-0.91985 4.287441,-2.03876 4.871112,-2.48646 0.583671,-0.44771 2.32201,-2.5567 3.863022,-4.68666 5.881265,-8.12903 10.635695,-14.23473 12.114005,-15.55691 1.52839,-1.36699 5.04992,-3.28874 6.5628,-3.58144 l 0.79375,-0.15356 -0.0722,2.71874 c -0.0397,1.4953 -0.2708,3.43311 -0.5135,4.30623 -0.68958,2.48085 -0.60198,10.0929 0.16711,14.52067 1.55993,8.98072 4.16602,14.23415 9.61102,19.37428 3.03162,2.86192 5.16411,4.42627 9.40617,6.90028 6.89748,4.0227 6.83729,3.95867 7.71187,8.20129 1.52196,7.38309 3.18648,13.15276 5.44229,18.86429 1.80546,4.57131 2.43922,5.94725 7.69252,16.70103 2.38881,4.89005 4.34329,9.08701 4.34329,9.32656 0,0.23955 0.0893,0.43066 0.19844,0.42471 0.18674,-0.0103 1.34292,-2.37572 8.27127,-16.92248 4.44725,-9.33749 7.19415,-17.06772 8.97877,-25.26771 1.15797,-5.32075 1.37813,-6.10275 1.97371,-7.01146 0.45096,-0.68802 1.67492,-1.53567 4.76218,-3.29795 13.05497,-7.45212 18.30856,-14.31084 20.57752,-26.86455 0.7547,-4.17565 0.84249,-13.53648 0.14359,-15.31295 -0.56973,-1.44812 -0.67072,-6.78052 -0.12475,-6.58661 0.1819,0.0646 1.13342,0.39667 2.1145,0.73792 3.73978,1.30085 5.28629,2.88158 13.32619,13.62102 7.39063,9.8722 6.87078,9.27633 9.09634,10.42622 1.0931,0.56477 3.65432,1.74034 5.69161,2.61238 3.49462,1.49581 6.97373,3.04066 10.58334,4.69936 14.43622,6.63378 18.31321,8.4714 27.51666,13.0425 11.59222,5.75751 17.40242,8.47206 21.34111,9.97066 5.04912,1.92109 6.69168,2.89023 9.5727,5.64811 3.91531,3.74796 7.15606,10.82218 11.95507,26.0966 2.99207,9.52328 5.05912,17.26612 4.70376,17.61953 -0.60066,0.59732 -14.91599,5.60228 -25.61222,8.95458 -5.42348,1.69976 -14.6213,4.24741 -23.50701,6.51111 -19.19322,4.88955 -47.06676,9.55497 -69.49403,11.63174 -11.07525,1.02558 -22.32718,1.47767 -38.76146,1.55734 -8.87676,0.043 -17.3302,0.0392 -18.78541,-0.008 z m 9.12813,-100.2347 c -9.93238,-1.63144 -18.72414,-5.51746 -26.06146,-11.51933 -2.24176,-1.83374 -5.79393,-5.50154 -6.93531,-7.16108 -1.00785,-1.46537 -1.06522,-1.95266 -1.27217,-10.80765 l -0.15108,-6.46321 2.31214,2.49446 c 8.03942,8.67341 14.90041,14.26848 21.34931,17.4102 10.91485,5.3174 24.49118,5.26983 35.17868,-0.12325 6.0553,-3.0556 15.03828,-10.53641 21.7343,-18.09978 l 1.52257,-1.71979 -0.13766,7.6129 c -0.16502,9.12681 0.0135,8.55852 -4.03511,12.83895 -7.03704,7.4398 -16.69309,12.6826 -27.66877,15.02286 -2.74146,0.58454 -4.09866,0.71184 -8.42712,0.79044 -3.57528,0.0649 -5.84988,-0.0197 -7.40832,-0.27572 z m 0.66145,-16.15172 c -4.91638,-0.79208 -9.98344,-2.67038 -13.62604,-5.05103 -5.74987,-3.75787 -14.85561,-12.1902 -18.8926,-17.49543 -1.80133,-2.36722 -2.19972,-2.74601 -3.15984,-3.0043 -1.57329,-0.42325 -2.55042,-0.96222 -3.6458,-2.01099 -0.94331,-0.90317 -0.95747,-0.90719 -0.82904,-0.23543 0.21114,1.10447 -0.35266,0.78499 -1.01177,-0.57335 -0.42428,-0.87439 -0.64294,-1.88065 -0.71861,-3.30729 -0.0598,-1.12778 -0.20359,-2.05052 -0.31948,-2.05052 -0.27265,0 -0.79161,1.48998 -0.79161,2.27283 0,0.33349 -0.10644,0.67215 -0.23653,0.75255 -0.58121,0.3592 -2.12551,-5.44355 -2.14305,-8.05246 -0.014,-2.09544 -0.27496,-2.32534 -1.2078,-1.06443 -0.42804,0.57856 -0.86754,1.05473 -0.97668,1.05817 -0.33856,0.0107 -0.20709,-5.3245 0.1759,-7.13749 0.19978,-0.94589 0.33104,-1.75473 0.29165,-1.79743 -0.0394,-0.0427 -0.54777,0.46331 -1.12975,1.12448 -0.582,0.66116 -1.10921,1.20211 -1.17163,1.20211 -0.0624,0 0.16587,-1.10132 0.50726,-2.44739 0.34139,-1.34607 0.69213,-3.59845 0.77941,-5.00528 l 0.15867,-2.55789 -1.29402,-0.18939 c -2.65279,-0.38826 -4.8672,-2.05727 -6.55844,-4.94316 -1.64095,-2.80009 -5.589327,-16.51717 -6.917377,-24.03171 -0.573696,-3.24627 -0.578247,-7.65325 -0.0098,-9.60828 0.582983,-2.00535 2.064464,-3.57156 4.058576,-4.29072 0.03791,-0.0137 -0.0934,-0.48993 -0.291836,-1.05833 -0.198437,-0.56841 -0.514588,-1.85697 -0.702548,-2.86349 l -0.341762,-1.83002 -0.601372,1.16857 c -0.516228,1.00312 -0.626692,1.09364 -0.780282,0.63939 -0.0984,-0.29104 -0.284718,-0.82682 -0.41402,-1.19062 -0.53856,-1.51508 -1.086194,-5.67408 -1.228064,-9.32656 -0.08337,-2.14644 -0.238786,-3.90261 -0.345334,-3.90261 -0.106574,0 -0.357161,0.19926 -0.556895,0.44281 -0.540597,0.65923 -3.460247,2.76597 -3.616589,2.60963 -0.0744,-0.0744 0.245189,-0.96066 0.710168,-1.96947 1.12178,-2.43372 2.104654,-6.47897 2.288143,-9.41734 0.08178,-1.30969 0.184308,-5.53641 0.227832,-9.39271 0.08864,-7.85303 0.32938,-9.54982 1.918335,-13.51976 0.507233,-1.26735 1.450129,-3.16046 2.095315,-4.20691 0.645187,-1.04646 1.173057,-1.95832 1.173057,-2.02638 0,-0.39655 -2.847446,1.52517 -3.853418,2.60065 -0.657172,0.70257 -1.244362,1.2774 -1.304819,1.2774 -0.184441,0 0.561049,-1.9382 1.330219,-3.45844 1.462193,-2.88994 3.661251,-5.29952 6.870731,-7.52841 2.92357,-2.03034 5.27793,-4.4757 7.45122,-7.73916 1.09916,-1.65056 1.93376,-3.06574 1.85465,-3.14486 -0.2463,-0.24629 -2.93214,1.11255 -3.9289,1.98773 -1.24188,1.09038 -1.39777,1.05091 -0.76309,-0.1932 0.94319,-1.84877 3.40964,-4.89742 5.21023,-6.44006 2.94431,-2.52253 8.43862,-4.96198 11.19971,-4.97263 1.12691,-0.004 2.12722,-0.24901 2.12722,-0.52028 0,-0.41449 -3.37759,-1.69114 -4.89479,-1.85011 l -1.5875,-0.16634 1.8138,-0.58191 c 2.59365,-0.83211 6.0004,-0.80097 8.49042,0.0776 1.01066,0.3566 1.8546,0.62198 1.87542,0.58973 0.0209,-0.0322 0.30904,-0.63072 0.64048,-1.32995 1.45431,-3.06805 4.63037,-6.31478 7.68649,-7.85751 1.73834,-0.8775 4.23193,-1.86494 4.23193,-1.6758 0,0.0686 -0.62508,0.77116 -1.38906,1.56123 -1.46524,1.51527 -3.45247,4.53587 -3.22559,4.90294 0.0737,0.11922 0.87421,-0.26411 1.77898,-0.85184 7.60328,-4.93901 14.42159,-5.91893 25.28786,-3.63436 2.89341,0.60832 4.84482,0.84843 7.71031,0.94871 4.44209,0.15545 6.76947,-0.13556 10.15481,-1.26976 1.29482,-0.4338 2.41144,-0.73152 2.48137,-0.66159 0.21042,0.21042 -1.72331,2.68564 -2.647,3.38821 -0.47358,0.36022 -1.33731,0.90084 -1.91939,1.20137 -0.72194,0.37275 -0.93218,0.59096 -0.66146,0.68654 0.21828,0.077 2.83766,0.18693 5.82083,0.24418 4.9734,0.0954 5.62094,0.16377 7.79537,0.82264 3.89813,1.18118 6.59185,2.78795 12.63107,7.53428 2.40329,1.8888 3.15328,2.68626 2.17231,2.30983 -0.231,-0.0887 -0.91561,-0.22818 -1.52135,-0.31008 l -1.10136,-0.1489 1.10567,1.02863 c 1.41732,1.31856 3.57468,2.46177 7.14513,3.78631 5.13059,1.90329 8.06294,3.97623 10.82836,7.65475 0.92985,1.23688 1.69064,2.33339 1.69064,2.4367 0,0.1033 -0.80368,-0.21853 -1.78594,-0.71518 -1.70492,-0.86203 -4.22683,-1.61769 -4.49702,-1.34749 -0.07,0.07 0.61913,0.81822 1.53146,1.66263 6.96307,6.44471 11.57693,17.15925 11.31393,26.27385 l -0.0801,2.77812 -1.17041,-2.38125 c -1.425,-2.89924 -1.59618,-2.54779 -0.95512,1.96081 0.72705,5.11317 1.69965,8.96265 3.24249,12.83335 1.63423,4.09997 2.18252,5.92782 2.18718,7.29145 l 0.003,0.91895 -1.79258,-1.77884 c -0.98592,-0.97836 -1.86928,-1.77884 -1.96305,-1.77884 -0.0938,0 -0.0385,0.44648 0.12292,0.99219 0.16137,0.5457 0.29943,2.89718 0.30684,5.22552 0.0127,4.02295 -0.26281,6.30678 -0.9739,8.06979 -0.23784,0.5897 -0.30308,0.46053 -0.60138,-1.19063 -0.18404,-1.01864 -0.4822,-2.20927 -0.66259,-2.64583 -0.31422,-0.76043 -0.34814,-0.68303 -0.80852,1.84362 -0.26429,1.45055 -0.79599,3.64924 -1.1816,4.88598 -0.5329,1.70918 -0.62005,2.27562 -0.36335,2.3612 0.81111,0.27036 2.61705,2.2803 3.18897,3.54913 0.55245,1.22569 0.62304,1.77419 0.62076,4.82257 -0.003,3.99691 -0.23733,5.2997 -2.68893,14.94895 -1.82692,7.19047 -3.39257,12.20394 -4.48347,14.35672 -0.85323,1.68379 -2.95452,3.79238 -4.40076,4.41606 -0.61622,0.26574 -1.666,0.56019 -2.33286,0.65434 l -1.21248,0.17118 0.11184,2.17325 c 0.10295,2.00102 0.82066,6.20908 1.2732,7.46491 0.12221,0.3392 -0.26328,0.10173 -1.07384,-0.66146 -1.11614,-1.05094 -1.24478,-1.11302 -1.09638,-0.52917 0.47784,1.88001 0.73809,4.54153 0.58764,6.00985 -0.16973,1.65671 -1.0832,5.04461 -1.47034,5.45332 -0.11377,0.12011 -0.29056,-0.45156 -0.39285,-1.27039 -0.10232,-0.81882 -0.34351,-1.98865 -0.536,-2.59962 -0.34274,-1.08784 -0.35052,-1.05562 -0.37613,1.55477 -0.0249,2.54392 -0.63465,5.23286 -1.56233,6.89055 -0.23292,0.41619 -0.26401,0.41191 -0.3936,-0.0542 -0.0774,-0.27837 -0.21378,-0.94064 -0.30308,-1.47172 -0.0893,-0.53108 -0.30808,-1.08507 -0.48614,-1.23109 -0.2494,-0.20453 -0.33055,0.16906 -0.35346,1.62706 -0.0225,1.42574 -0.20037,2.27256 -0.72157,3.43323 -0.65448,1.45739 -1.23307,1.79874 -1.23307,0.72747 0,-0.36221 -0.27371,-0.20748 -1.12448,0.63569 -0.95104,0.94254 -2.28044,1.63916 -4.06611,2.13069 -0.1627,0.0448 -1.42846,1.49018 -2.81281,3.21199 -2.8374,3.52904 -7.72229,8.5388 -10.9033,11.18197 -7.88585,6.5526 -12.19538,8.90759 -18.92871,10.34389 -3.58942,0.76566 -10.60522,0.95602 -14.15521,0.38408 z"
       id="path2737" />
  </g>
</svg>
