<?xml version="1.0" encoding="UTF-8" standalone="no"?>
<!-- Created with Inkscape (http://www.inkscape.org/) -->

<svg
   width="338.83582mm"
   height="338.83582mm"
   viewBox="0 0 338.83582 338.83582"
   version="1.1"
   id="svg3405"
   xmlns="http://www.w3.org/2000/svg"
   xmlns:svg="http://www.w3.org/2000/svg">
  <defs
     id="defs3402" />
  <g
     id="layer1"
     transform="translate(-3.802133,-107.94119)">
    <path
       style="fill:#000000;stroke-width:0.264583"
       d="m 154.78381,442.30497 c -24.40903,-1.48029 -41.53832,-3.80217 -63.500001,-8.6074 -27.312593,-5.97598 -59.282143,-16.912 -82.5022992,-28.22202 l -4.979384,-2.42535 0.169373,-0.90284 c 0.7704,-4.1066 4.744233,-16.17699 7.4115722,-22.51244 5.307515,-12.60642 9.744178,-18.68443 17.326781,-23.73691 4.326739,-2.88303 10.796561,-6.32449 17.873789,-9.50754 l 2.395662,-1.07746 0.590632,-1.61986 c 0.844876,-2.31714 1.864172,-3.07562 7.130521,-5.30588 7.965389,-3.37329 13.783982,-6.07673 24.926062,-11.58118 12.119768,-5.98745 15.440897,-7.7456 24.606242,-13.02618 8.79391,-5.06655 13.49693,-7.67908 14.43975,-8.02126 0.8066,-0.29276 0.82579,-0.345 2.20927,-6.01357 0.76755,-3.14503 1.55069,-6.09204 1.74027,-6.54892 0.52252,-1.25913 2.19993,-2.974 3.78293,-3.86739 l 1.41743,-0.79995 -0.16868,-6.6437 c -0.13951,-5.49475 -0.10879,-6.57052 0.17759,-6.22054 5.99485,7.32591 12.74842,13.73597 18.47019,17.53076 3.15643,2.0934 3.5777,2.31711 2.25108,1.1954 -4.16573,-3.52225 -5.51413,-4.76146 -7.14587,-6.56723 -4.22103,-4.67121 -6.99233,-8.02434 -10.27014,-12.42636 -6.48563,-8.71003 -7.1147,-10.32075 -9.32397,-23.87327 -0.53711,-3.29475 -1.0572,-6.12096 -1.15578,-6.28047 -0.12523,-0.20262 -0.45366,-0.21132 -1.08982,-0.0289 -1.61922,0.46438 -3.89189,-0.2748 -5.36064,-1.74354 -1.0989,-1.0989 -2.99945,-4.06416 -4.00468,-6.24813 -1.71472,-3.72539 -4.47861,-13.36685 -5.56477,-19.41196 -0.92718,-5.16032 -0.80495,-10.67278 0.28776,-12.97543 0.97345,-2.0514 3.74015,-3.08169 5.63885,-2.09983 0.47419,0.24521 0.92705,0.38094 1.00637,0.30163 0.0793,-0.0793 -0.22646,-1.42755 -0.6795,-2.99607 -2.73532,-9.47027 -3.54635,-19.1806 -2.55853,-30.63312 0.21339,-2.47385 0.3904,-4.90966 0.39339,-5.4129 l 0.006,-0.91498 -1.21317,1.17956 -1.21317,1.17957 0.16807,-1.85208 c 0.6056,-6.67307 1.06336,-9.19604 2.41958,-13.33624 2.11667,-6.46165 6.2298,-11.65404 13.53844,-17.09084 l 3.20109,-2.38125 -1.24053,-0.0857 c -0.68228,-0.0471 -1.69859,0.0504 -2.25848,0.21678 -1.96924,0.5851 -1.48558,-0.1697 1.944,-3.03385 6.03472,-5.03978 12.68254,-7.84253 24.5096,-10.33337 2.17299,-0.45764 2.98233,-0.76744 2.71177,-1.03801 -0.0812,-0.0812 -0.99883,-0.36383 -2.03915,-0.62802 -1.04029,-0.26418 -1.95027,-0.53916 -2.02216,-0.61105 -0.16237,-0.16237 4.20857,-1.38271 7.39931,-2.06584 3.92634,-0.84061 7.63937,-1.1582 11.64167,-0.99573 5.86721,0.23817 10.33549,1.17472 18.65312,3.90971 5.05772,1.66307 10.60516,3.22204 10.79386,3.03335 0.0592,-0.0592 -0.45648,-0.71074 -1.14599,-1.44786 -0.68948,-0.73713 -1.12088,-1.34022 -0.95864,-1.34022 0.16222,0 1.95395,0.54396 3.98159,1.20879 7.44302,2.44046 12.55844,6.39263 15.40121,11.89894 l 1.21682,2.35691 2.53711,1.10621 c 3.14016,1.36913 5.09048,2.64816 7.19212,4.71663 4.00653,3.94329 8.57729,11.09151 9.52934,14.90297 0.2078,0.83197 0.67069,4.19158 1.02864,7.46579 0.93568,8.55902 1.02825,9.78959 0.73644,9.78959 -0.1402,0 -0.6319,-0.44649 -1.09262,-0.99219 -0.753,-0.89185 -0.82362,-0.92514 -0.69829,-0.32911 0.0767,0.36469 0.33909,2.50781 0.58314,4.7625 0.52115,4.81472 0.57325,11.53288 0.11695,15.07963 -0.3883,3.01817 -1.87185,9.64961 -2.80358,12.53192 -0.36996,1.14448 -0.61801,2.13553 -0.55123,2.20232 0.0668,0.0668 0.48379,-0.0659 0.92665,-0.29494 1.80589,-0.93386 4.39989,-0.27186 5.52312,1.40952 0.84712,1.26804 1.15412,2.62077 1.25966,5.55038 0.17843,4.95307 -1.03844,11.38981 -4.15552,21.98076 -1.91969,6.5225 -4.94779,11.74838 -7.53264,12.99968 -0.92765,0.44906 -1.53095,0.54125 -3.05355,0.46656 l -1.89749,-0.0931 -1.14146,6.74688 c -1.33157,7.87041 -2.17173,11.53721 -3.20932,14.00679 -0.84249,2.00516 -2.99688,5.73245 -3.85627,6.67168 -0.31227,0.34127 -1.27858,1.56923 -2.14734,2.72882 -5.71452,7.62737 -12.24716,14.78273 -16.84797,18.45398 -2.66192,2.12407 -2.48965,2.06353 1.43396,-0.50391 1.41335,-0.92484 3.85413,-2.7317 5.42396,-4.01525 4.00372,-3.2736 10.89808,-10.36092 12.71082,-13.06659 0.36562,-0.5457 0.72361,-0.99219 0.79552,-0.99219 0.0719,0 0.0439,2.95589 -0.0622,6.56865 -0.21712,7.39117 -0.34235,6.84755 1.877,8.14819 0.65162,0.38186 1.59653,1.23361 2.09984,1.89278 1.05836,1.38607 1.53797,2.82186 2.89219,8.65809 0.54025,2.32833 1.09982,4.45317 1.24349,4.72187 0.14364,0.2687 1.11405,0.87863 2.15646,1.35541 1.0424,0.47678 3.26448,1.67419 4.93797,2.6609 6.3731,3.7577 16.21951,9.28104 21.53097,12.07781 11.28546,5.9424 26.89889,13.38978 35.16471,16.77307 3.88604,1.5906 6.4393,2.94563 7.07631,3.75547 0.28279,0.35949 0.71231,1.28222 0.95448,2.05047 l 0.4403,1.39681 5.24631,2.43896 c 8.40957,3.90948 15.00468,7.79841 19.05299,11.23484 2.99413,2.54162 6.10571,6.54754 9.04822,11.64897 3.05869,5.30283 7.87707,17.69115 10.49666,26.9875 0.73811,2.61937 1.39028,4.90442 1.44925,5.07786 0.24633,0.72445 -16.09127,8.28302 -27.9102,12.91267 -16.46267,6.44864 -35.5183,12.50828 -51.06458,16.2384 -10.10119,2.42367 -12.29154,2.90621 -18.65313,4.10933 -19.80745,3.74607 -33.01913,5.33797 -52.90095,6.37413 -8.17933,0.42627 -31.02027,0.49585 -37.32196,0.11366 z m 19.15815,-31.41728 c 0.28366,-0.55605 2.29511,-3.98696 4.46985,-7.62421 l 3.95409,-6.61318 0.16791,-14.79923 c 0.0923,-8.13959 0.24037,-18.26998 0.32898,-22.51202 0.0886,-4.24204 0.0739,-9.27992 -0.0326,-11.19526 -0.16987,-3.05398 -0.24638,-3.46229 -0.62183,-3.31822 -1.01166,0.38822 -7.57983,1.23073 -10.93221,1.40232 l -3.64323,0.18645 -0.12946,10.71562 c -0.0712,5.8936 -0.24853,13.75172 -0.39399,17.4625 -0.1455,3.71078 -0.26961,11.21794 -0.27583,16.68254 l -0.0114,9.93566 3.24115,5.33246 c 1.78263,2.93285 3.2685,5.33765 3.30192,5.34403 0.0334,0.006 0.29286,-0.44339 0.57655,-0.99946 z m -0.63732,-31.37705 c -3.25795,-1.44801 -2.95627,-6.39651 0.44579,-7.3126 1.99425,-0.537 4.05694,0.49985 4.82799,2.42683 1.29132,3.22739 -2.04685,6.31997 -5.27378,4.88577 z m -9.12813,5.3344 c 0.0728,-6.29375 0.1323,-17.68951 0.1323,-25.32388 v -13.88065 l -1.05834,-0.23614 c -2.15969,-0.48183 -8.44507,-2.34709 -10.79823,-3.20447 -7.69649,-2.80424 -15.62129,-7.69082 -21.71094,-13.38739 -0.97271,-0.90994 -1.82163,-1.60141 -1.88645,-1.53659 -0.13073,0.13075 3.30195,8.7421 5.36702,13.4639 5.44282,12.44494 13.02864,27.19533 21.55986,41.92243 5.01732,8.66122 8.01037,13.6261 8.21436,13.62602 0.0265,0 0.10766,-5.14945 0.18042,-11.44323 z m 24.79469,0.85992 c 11.41272,-19.50863 19.74572,-36.08657 26.39938,-52.51979 2.65687,-6.56192 2.62538,-6.37183 0.7652,-4.6194 -5.05603,4.76316 -12.10101,9.21351 -18.75406,11.84702 -3.10433,1.22881 -8.60404,3.01117 -10.81207,3.50401 l -1.55167,0.34634 0.1619,2.26624 c 0.23013,3.22159 0.23513,8.63261 0.0262,28.32767 -0.16184,15.2605 -0.13748,17.26699 0.2041,16.80104 0.21333,-0.29104 1.81576,-2.96995 3.56095,-5.95313 z m -13.6403,-42.75137 c 15.39364,-1.97075 27.23342,-6.53003 36.00979,-13.86673 2.75121,-2.2999 6.15915,-5.97763 7.72469,-8.33623 2.17255,-3.27305 3.38738,-7.30108 3.39167,-11.24567 0.003,-2.18319 -0.18793,-3.26116 -1.44817,-8.20208 -0.79801,-3.1287 -1.72699,-6.28385 -2.06441,-7.01146 l -0.61349,-1.32291 -0.32118,2.64583 c -0.40841,3.36446 -0.53628,3.84233 -1.62155,6.05975 -1.32723,2.7118 -2.90063,4.76183 -5.81258,7.57332 -6.73505,6.50272 -13.52071,10.14639 -28.80437,15.46697 -4.07458,1.41845 -8.33141,3.0549 -9.45962,3.63654 -3.70927,1.91234 -5.58149,4.68144 -5.92359,8.76133 -0.14177,1.69058 0.22555,5.44303 0.5906,6.03372 0.22561,0.36502 4.82584,0.25908 8.35221,-0.19238 z m -1.22402,-3.7442 c -0.90628,-0.22992 -2.2062,-1.39551 -2.50169,-2.24313 -0.70614,-2.02568 -0.006,-4.29041 1.57956,-5.11042 1.09472,-0.5661 3.11915,-0.49563 4.17015,0.14516 0.97148,0.59229 1.88794,2.31672 1.89704,3.56955 0.0172,2.3687 -2.66745,4.26746 -5.14506,3.63884 z m -10.56714,0.81108 c -0.31922,-2.90504 0.0966,-5.99731 1.07852,-8.02121 0.41997,-0.86561 1.48603,-2.24152 2.61872,-3.37991 1.05071,-1.05599 1.82964,-1.96989 1.73095,-2.03089 -0.0987,-0.061 -2.75984,-1.07233 -5.9137,-2.24741 -6.93753,-2.58485 -10.21347,-3.97458 -14.22355,-6.03396 -6.10346,-3.13443 -10.24567,-6.06645 -13.68391,-9.68602 -4.56472,-4.80547 -6.67943,-9.2325 -6.68699,-13.99892 -0.005,-2.75364 -0.92237,-0.83382 -2.5068,5.24264 -0.52877,2.02788 -1.20777,4.57876 -1.50887,5.66862 -0.45934,1.66259 -0.51802,2.38259 -0.36462,4.47259 0.21551,2.93568 1.14803,6.82289 2.07619,8.65452 2.02462,3.99543 7.53665,9.55755 13.54688,13.66999 6.06202,4.14788 13.36413,7.38415 21.29895,9.43962 3.01266,0.78039 2.83007,0.90625 2.53823,-1.74966 z"
       id="path3547" />
  </g>
</svg>
