<?xml version="1.0" encoding="UTF-8" standalone="no"?>
<!-- Created with Inkscape (http://www.inkscape.org/) -->

<svg
   width="439.77954mm"
   height="439.77954mm"
   viewBox="0 0 439.77954 439.77955"
   version="1.1"
   id="svg3677"
   xmlns="http://www.w3.org/2000/svg"
   xmlns:svg="http://www.w3.org/2000/svg">
  <defs
     id="defs3674" />
  <g
     id="layer1"
     transform="translate(43.469147,-120.62983)">
    <path
       style="fill:#000000;stroke-width:0.264583"
       d="m -43.282835,542.8282 c 1.18445,-5.46598 4.74479,-13.87581 8.20321,-19.37666 5.09682,-8.10686 11.595005,-14.49641 21.233596,-20.87864 7.9781978,-5.2828 19.7410168,-10.89422 33.791781,-16.12024 1.749094,-0.65056 4.725656,-1.78639 6.614583,-2.52405 1.888926,-0.73765 6.649101,-2.49086 10.578163,-3.89604 19.949049,-7.13441 43.858285,-16.7863 51.196874,-20.66758 5.942542,-3.14293 8.599858,-5.2015 14.816668,-11.47815 2.11005,-2.13038 4.56636,-4.36092 5.45848,-4.95676 1.30479,-0.87146 1.65248,-1.25378 1.77782,-1.95485 0.78121,-4.36978 1.31916,-15.15176 1.10619,-22.17047 -0.2001,-6.59413 -0.64145,-14.77991 -0.83097,-15.41198 -0.29406,-0.98067 0.40714,-0.34708 3.21079,2.90116 4.21622,4.88479 15.23567,15.86595 19.8273,19.7584 7.73255,6.55505 13.19379,10.37899 17.21207,12.05179 4.5434,1.89143 13.11756,3.90417 19.29169,4.52864 4.32933,0.43786 12.51429,0.18219 16.95183,-0.52951 8.33615,-1.337 15.39769,-3.64607 19.85944,-6.49383 3.81807,-2.43697 10.56574,-7.81341 15.85931,-12.6365 4.33969,-3.95399 12.20499,-11.98303 16.08375,-16.41859 1.88344,-2.15381 3.47692,-3.86357 3.54103,-3.79944 0.0641,0.0641 -0.0381,1.88584 -0.22712,4.04831 -0.46352,5.30246 -0.47051,25.8913 -0.0101,29.86093 0.42055,3.62624 0.82375,5.68854 1.11217,5.68854 0.47787,0 3.50094,2.64324 7.41384,6.48229 2.25557,2.213 4.78988,4.57142 5.63181,5.24089 2.38083,1.89318 7.24932,4.81434 11.10221,6.66144 3.9378,1.88783 16.78429,7.3338 22.82119,9.67449 11.67696,4.52753 20.31545,7.76534 27.25208,10.2144 8.53252,3.01252 25.14169,9.55085 31.61771,12.44656 13.46478,6.02067 22.15192,11.60981 29.85632,19.20891 6.4897,6.40101 10.95986,13.16333 14.23001,21.52668 1.02295,2.61625 3.0095,8.97705 3.0095,9.63634 0,0.14798 -86.21572,0.24341 -219.88978,0.24341 H -43.469145 l 0.18634,-0.85989 z M 167.97495,438.48944 c -6.31013,-0.76086 -13.52153,-2.61646 -17.03792,-4.38406 -6.33188,-3.18291 -15.55126,-10.63736 -25.20159,-20.37705 -11.25662,-11.36083 -19.14943,-21.94335 -22.28109,-29.87394 -1.64563,-4.16739 -3.70062,-12.83166 -5.735954,-24.184 -0.678365,-3.78354 -1.266798,-6.91448 -1.307676,-6.95763 -0.04085,-0.0432 -0.594598,0.19497 -1.230551,0.52916 -1.658064,0.87135 -4.61182,0.85671 -6.421173,-0.0318 -4.573693,-2.24604 -8.594328,-9.3727 -12.433591,-22.03884 -2.424165,-7.99752 -4.361285,-15.96131 -5.498941,-22.60706 -0.764593,-4.46645 -0.838517,-12.22049 -0.142848,-14.98697 0.540014,-2.14757 1.803056,-4.79122 2.786142,-5.83161 1.708388,-1.80799 4.26122,-2.40187 6.729677,-1.56553 0.836744,0.28349 1.521354,0.48214 1.521354,0.44144 0,-0.0407 -0.119301,-0.38776 -0.265086,-0.77125 -0.404654,-1.06433 -1.768872,-7.96449 -2.505128,-12.67087 -0.361844,-2.31305 -0.690245,-4.22517 -0.729774,-4.24916 -0.03953,-0.024 -0.919295,-0.53844 -1.955006,-1.14323 -4.295511,-2.50827 -11.055715,-8.18701 -14.525437,-12.2017 -6.886818,-7.96848 -10.426678,-15.70221 -11.24028,-24.55725 -0.761355,-8.28641 2.112581,-18.11158 7.792696,-26.64102 3.685026,-5.53355 9.405691,-11.46289 17.210306,-17.83808 1.891771,-1.5453 5.523177,-4.54141 8.069792,-6.65804 16.069574,-13.35631 25.227618,-19.42056 36.777078,-24.35298 9.35503,-3.99526 17.66187,-6.51865 27.38438,-8.31865 4.58779,-0.84937 12.47478,-1.99372 13.741,-1.99372 0.92615,0 0.94337,-0.0196 0.94337,-1.07147 0,-1.37983 0.47503,-2.27152 1.91939,-3.60288 3.42694,-3.15883 12.71593,-4.16534 20.08667,-2.1765 3.65775,0.98697 6.10872,3.148 6.20098,5.46742 l 0.0493,1.23839 2.73904,0.33009 c 22.40415,2.69997 40.07522,8.71218 55.78798,18.98069 5.14376,3.36153 13.77749,9.97894 20.90208,16.02062 1.81901,1.54253 4.43839,3.68304 5.82084,4.75669 15.09238,11.72119 23.42022,23.53198 26.09707,37.01158 0.6002,3.02247 0.59211,9.04999 -0.0167,12.47454 -1.37319,7.72343 -4.97031,14.57991 -11.50276,21.92543 -2.98178,3.35289 -10.23525,9.30198 -14.10089,11.56511 l -1.77226,1.03758 -0.15158,1.45521 c -0.28675,2.75326 -0.98862,7.01908 -1.78483,10.84792 -0.43878,2.11005 -0.85576,4.15463 -0.92659,4.54352 l -0.12878,0.70706 1.51202,-0.55699 c 1.32493,-0.48807 1.68563,-0.52058 2.91483,-0.26275 3.4284,0.71911 5.67047,3.73179 6.49383,8.72582 0.38367,2.32722 0.38452,8.54992 0.003,11.58188 -1.47736,11.69671 -6.75958,30.3014 -11.01842,38.80844 -3.52493,7.04106 -8.18353,10.0869 -12.94667,8.4647 -0.87312,-0.29736 -1.67997,-0.44978 -1.79297,-0.33872 -0.11301,0.11107 -0.43326,1.50251 -0.71163,3.09209 -2.01922,11.52966 -4.44666,22.30949 -5.99336,26.6154 -3.06039,8.51979 -11.16592,19.33974 -24.02457,32.07001 -10.59926,10.49342 -19.25013,17.23411 -25.49644,19.86655 -3.96316,1.67024 -9.62377,3.02877 -15.4029,3.69663 -4.38801,0.50712 -12.94985,0.50202 -17.19791,-0.0103 z M 101.82912,255.74145 c 1.96453,-0.51104 6.72703,-2.08214 10.58333,-3.49134 15.99676,-5.84566 21.74642,-7.55988 32.27917,-9.62382 9.10913,-1.78498 17.87882,-2.65853 28.70729,-2.85953 11.56022,-0.21459 20.83064,0.43389 31.22083,2.18393 11.90024,2.00437 19.58856,4.13551 33.3375,9.24084 16.14403,5.99471 21.41032,6.82367 27.60612,4.34549 2.21324,-0.88526 5.13231,-2.71355 4.52054,-2.83137 -0.22024,-0.0424 -1.40713,0.17066 -2.63753,0.47351 -2.88983,0.71131 -7.70609,0.96054 -10.5438,0.54561 -4.35782,-0.6372 -11.30001,-2.84415 -21.72152,-6.90538 -12.79936,-4.98786 -27.64364,-8.49924 -43.12902,-10.20208 -5.20504,-0.57237 -20.78915,-0.8057 -26.19507,-0.3922 -7.9362,0.60704 -15.03749,1.55788 -21.03305,2.81627 -10.80945,2.26876 -19.72178,4.91206 -30.29479,8.98512 -7.51189,2.89381 -11.13385,4.12494 -14.816665,5.03628 -2.72706,0.67483 -3.495595,0.75274 -7.408333,0.75104 -3.627014,-0.002 -4.752234,-0.1005 -6.650752,-0.58464 -3.114542,-0.79426 -3.496177,-0.74457 -1.933866,0.2518 5.599351,3.57098 10.648818,4.20127 18.109616,2.26047 z m -6.746873,-12.75048 c 15.583133,-7.35533 37.835523,-13.98749 55.827083,-16.63884 17.76005,-2.61724 33.51881,-2.62003 51.32916,-0.009 17.66427,2.58952 39.94682,9.25373 55.43021,16.57794 6.08009,2.87611 6.02451,2.66116 -0.19844,-0.76701 -11.75501,-6.47574 -26.6469,-12.53778 -39.60638,-16.12256 -20.68102,-5.72069 -42.11333,-7.27723 -61.26601,-4.44951 -6.87404,1.01489 -15.81703,2.86438 -21.82559,4.51374 -13.17434,3.61637 -30.51172,10.85055 -42.534304,17.74783 -3.433895,1.97001 -2.616412,1.72499 2.844271,-0.85249 z"
       id="path3819" />
  </g>
</svg>
