<?xml version="1.0" encoding="UTF-8" standalone="no"?>
<!-- Created with Inkscape (http://www.inkscape.org/) -->

<svg
   width="422.27499mm"
   height="422.27499mm"
   viewBox="0 0 422.27499 422.275"
   version="1.1"
   id="svg5"
   xmlns="http://www.w3.org/2000/svg"
   xmlns:svg="http://www.w3.org/2000/svg">
  <defs
     id="defs2" />
  <g
     id="layer1"
     transform="translate(61.321768,-91.9059)">
    <path
       style="fill:#000000;stroke-width:0.264583"
       d="m -60.664525,503.99528 c 0,-0.93734 3.28979,-16.63801 6.881174,-32.84075 1.699491,-7.66736 5.594406,-19.06537 10.065742,-29.45624 1.768991,-4.11094 2.015824,-4.60518 2.188549,-4.3824 0.04701,0.0606 1.849665,2.67009 4.005908,5.79879 2.15624,3.1287 4.893913,6.99823 6.083715,8.59896 2.766142,3.7215 9.745924,11.42331 13.66742,15.08125 l 1.134583,1.05833 -0.938863,-1.19062 c -5.328803,-6.75775 -9.475859,-13.24012 -15.318525,-23.94479 -1.270818,-2.32834 -3.114339,-5.54302 -4.096716,-7.14375 -5.464754,-8.90453 -7.095469,-12.00883 -8.47666,-16.13644 -1.094875,-3.27199 -1.183507,-4.97165 -0.3122,-5.98702 0.602326,-0.70191 2.223563,-1.96363 5.676601,-4.41777 3.609321,-2.56524 5.260755,-3.69017 14.105665,-9.60871 4.878233,-3.26425 9.448111,-6.37678 10.155279,-6.91674 2.80648,-2.14289 4.87339,-2.71759 7.886343,-2.19279 1.245753,0.21699 1.24959,0.21535 5.953125,-2.5772 2.58861107,-1.53688 5.540004,-3.17294 6.55865,-3.63564 2.249403,-1.02179 14.284018,-6.24477 20.108333,-8.72696 4.055009,-1.72815 8.014181,-3.7787 14.264722,-7.38799 3.182508,-1.83772 7.082575,-3.71464 11.135277,-5.35897 8.931434,-3.62378 18.102289,-8.05536 18.827009,-9.09767 0.936519,-1.34688 4.507627,-10.18392 6.619743,-16.3811 1.335643,-3.91898 2.043879,-5.26241 3.403626,-6.45629 1.361202,-1.19515 9.046871,-4.83276 11.49858,-5.44226 l 0.661458,-0.16443 -0.306705,6.95753 c -0.438362,9.94403 -0.365707,9.46492 -1.91426,12.62262 -0.743003,1.51507 -1.35091,3.06559 -1.35091,3.44562 0,0.38002 0.348589,1.59624 0.774674,2.70271 3.129862,8.12813 11.279293,20.37436 18.526228,27.83953 5.34151,5.50232 9.89195,8.69341 18.2109,12.77064 l 5.62949,2.7591 0.64812,1.46548 c 0.66929,1.51341 11.86082,32.23662 13.96508,38.33725 0.65254,1.89177 1.25031,3.61817 1.32839,3.83645 0.31176,0.87136 0.16306,-0.7675 -0.34002,-3.74766 -1.28889,-7.635 -3.14412,-15.62216 -5.39879,-23.24296 -1.95935,-6.6226 -5.40158,-17.10346 -6.01157,-18.30395 -0.6984,-1.37443 -1.74726,-2.08719 -6.08957,-4.13814 -5.45375,-2.57587 -6.09791,-2.92811 -9.62523,-5.26349 -7.63288,-5.05354 -13.99196,-11.24323 -19.374108,-18.85796 -4.300802,-6.08485 -7.496652,-12.08197 -7.691676,-14.43363 -0.103796,-1.25173 -0.01852,-1.58276 0.694796,-2.69424 1.308206,-2.03867 1.612609,-3.04057 1.886003,-6.20759 0.357187,-4.13797 0.897017,-21.39725 0.733107,-23.43917 -0.147531,-1.83789 -0.939244,-3.64937 -2.973546,-6.80349 l -1.194514,-1.85209 0.06935,5.62265 c 0.04463,3.61851 -0.02487,5.62249 -0.195236,5.62219 -0.505328,-7.9e-4 -3.567192,-1.56465 -5.094817,-2.60203 -1.799933,-1.22232 -4.679023,-4.2134 -5.291084,-5.49689 -0.235241,-0.49333 -0.51517,-0.89696 -0.622035,-0.89696 -0.228336,0 -0.928873,2.0832 -1.179936,3.50865 -0.09639,0.54731 -0.251037,1.04156 -0.343694,1.09832 -0.395102,0.2421 -5.122413,-1.19054 -6.926818,-2.09923 -2.702137,-1.36077 -5.147178,-3.8337 -6.429454,-6.50278 -1.103233,-2.29644 -1.496536,-4.03401 -1.496536,-6.61174 v -1.8033 l -1.37758,0.71494 c -1.162711,0.60342 -1.709526,0.71493 -3.505729,0.71493 -1.17049,0 -2.6044,-0.1018 -3.186483,-0.22622 l -1.058333,-0.22621 2.116666,-0.74722 c 1.733127,-0.61181 2.323942,-0.97487 3.260487,-2.00355 1.221396,-1.34156 2.082932,-2.86487 2.827179,-4.99888 0.52197,-1.49664 1.694233,-6.21771 1.54387,-6.21771 -0.05411,0 -0.736203,0.51951 -1.515745,1.15447 -2.109338,1.71807 -6.143704,3.08143 -9.10537,3.07701 -2.958809,-0.004 -8.253254,-1.87046 -10.368703,-3.65448 l -0.92288,-0.77829 2.245796,-0.0179 c 5.129133,-0.0409 8.581125,-2.23255 10.959253,-6.95786 0.703554,-1.39797 1.277144,-3.00151 1.480344,-4.13852 0.330544,-1.84954 0.327792,-1.86852 -0.756629,-5.25834 -0.598593,-1.87116 -1.225391,-3.97001 -1.392899,-4.66411 -0.377428,-1.56403 -0.726652,-1.36763 -1.541383,0.86686 -1.338845,3.67187 -1.738101,8.79386 -0.969195,12.43369 0.199787,0.94588 0.307763,1.77802 0.239898,1.8492 -0.210371,0.22064 -2.674091,-2.66843 -4.182745,-4.90489 -1.778529,-2.6365 -2.827444,-4.86843 -3.676015,-7.82186 -1.702197,-5.92462 -1.622372,-12.67687 0.203332,-17.19681 0.346313,-0.85744 0.554223,-1.55319 0.462015,-1.54613 -0.400579,0.0307 -2.661867,3.09872 -3.933533,5.33681 -1.66964,2.93853 -2.894476,6.21917 -3.30299,8.84684 -0.166145,1.0687 -0.372581,1.94309 -0.458742,1.94309 -0.265089,0 -1.567051,-4.5782 -1.889665,-6.64479 -0.490437,-3.1416 -0.187201,-7.07765 0.763312,-9.90788 1.46794,-4.37091 4.895157,-9.50745 8.801537,-13.1913 1.318577,-1.24345 1.733391,-1.76471 1.293574,-1.62548 -4.113318,1.30207 -7.524694,1.60339 -10.693564,0.94453 -1.668394,-0.34688 -5.803643,-1.83538 -5.617123,-2.0219 0.06037,-0.0604 0.985483,-0.35244 2.055813,-0.64904 3.945699,-1.09341 11.027195,-4.30758 14.136605,-6.41636 1.992815,-1.35151 6.087322,-5.28205 8.037751,-7.71591 1.75633,-2.1916 4.125594,-6.04381 3.78669,-6.15678 -0.446749,-0.14891 -5.427081,2.32803 -7.635584,3.79754 -2.191967,1.45848 -5.199565,4.20517 -7.053659,6.44176 -0.534406,0.64466 -0.971656,1.01941 -0.971656,0.83278 0,-0.18663 0.363273,-1.42845 0.80727,-2.7596 0.94996,-2.8481 2.367042,-5.34984 4.060084,-7.16781 0.669925,-0.71937 1.217666,-1.31468 1.217189,-1.32291 0,-0.008 -1.220893,-0.0151 -2.711979,-0.0153 -2.957327,-2.7e-4 -4.548155,-0.34402 -6.826565,-1.47471 -1.317852,-0.654 -3.720456,-2.41821 -3.886483,-2.85381 -0.03544,-0.093 1.036119,-0.17863 2.38125,-0.19031 4.905444,-0.0426 9.751499,-2.2593 14.748817,-6.74649 0.509323,-0.45733 2.274464,-1.79436 3.922527,-2.97118 1.64809,-1.17682 3.638788,-2.83343 4.423807,-3.68134 1.382606,-1.49336 3.559916,-4.81744 3.559916,-5.43485 0,-0.66761 -6.756321,2.29527 -9.579425,4.2009 -0.915961,0.61828 -2.469039,1.89598 -3.451304,2.83935 -0.982266,0.94336 -1.78562,1.54684 -1.785223,1.34107 0.0027,-0.7574 2.820485,-5.84456 4.200551,-7.58018 2.051844,-2.58049 5.171361,-5.03546 9.557067,-7.5212 4.353666,-2.46757 5.212371,-3.10405 8.726911,-6.46857 12.543496,-12.00803 27.829268,-20.51654 47.893911,-26.65917 9.5204,-2.91458 23.00116,-4.92475 33.05088,-4.92833 1.66134,-5.3e-4 2.95793,-0.0638 2.88126,-0.14047 -0.33179,-0.33179 -6.64716,-0.68071 -12.38422,-0.68421 -9.74968,-0.006 -17.95417,1.02006 -27.91354,3.49076 -7.1614,1.77658 -13.96312,4.39721 -22.357289,8.61401 -8.162898,4.10062 -15.181659,8.63969 -20.592652,13.31737 -1.212242,1.04798 -2.241206,1.86538 -2.28653,1.81646 -0.326019,-0.35175 4.12967,-14.6285 5.7667,-18.4775 0.926862,-2.17918 3.400769,-6.75597 3.861461,-7.14375 0.08644,-0.0728 0.511413,-0.60854 0.944404,-1.19062 0.432991,-0.58209 1.853433,-2.24896 3.156532,-3.70417 2.495471,-2.78677 4.970939,-6.04377 7.827169,-10.2982 4.580413,-6.82269 8.682805,-10.98307 14.552085,-14.75775 9.78442,-6.29261 19.27486,-9.26088 30.82395,-9.64064 5.06855,-0.16667 8.18245,0.11553 17.99167,1.63053 2.32833,0.3596 5.48349,0.83983 7.01145,1.06718 15.86662,2.3608 21.15987,3.71232 28.17813,7.19469 9.03817,4.48462 14.49065,9.36281 19.05055,17.04405 0.97875,1.6487 2.20539,3.71202 2.72587,4.58514 0.95684,1.60513 3.01819,4.37852 6.10804,8.21791 4.54808,5.65137 6.69703,10.15632 9.64753,20.2248 0.67977,2.31969 2.2878,8.42969 2.2878,8.69291 0,0.0817 -0.50602,-0.33216 -1.12448,-0.91965 -2.0447,-1.94231 -7.4527,-5.69873 -11.87331,-8.24723 -4.64751,-2.67933 -14.62008,-7.45053 -14.92837,-7.14222 -0.071,0.071 0.61717,0.52607 1.52926,1.01126 2.42343,1.28915 7.38945,4.3053 10.12503,6.14955 6.56664,4.42702 10.98565,8.30829 15.88465,13.95163 2.39469,2.75854 3.97764,4.1908 7.8308,7.08548 5.46182,4.10316 8.40673,8.01751 11.06347,14.70545 0.80251,2.02019 1.70608,5.17747 1.53164,5.35191 -0.0546,0.0546 -0.5965,-0.65147 -1.20417,-1.56907 -2.45438,-3.70623 -6.40921,-7.64112 -9.18702,-9.14075 -0.57671,-0.31134 -1.25119,-0.70944 -1.49886,-0.88466 -0.24771,-0.17523 -0.52181,-0.24714 -0.60915,-0.15979 -0.23175,0.23175 3.87662,8.43945 5.04198,10.07291 3.15391,4.42069 7.64725,8.57308 11.09874,10.25656 3.81061,1.85864 9.49113,1.61574 13.00525,-0.55609 0.50226,-0.31042 0.96514,-0.51245 1.02864,-0.44897 0.16622,0.16621 -2.33844,3.65077 -3.22823,4.49123 -2.10124,1.98476 -5.97059,3.60182 -8.82335,3.68742 -0.87199,0.0262 -1.58544,0.1442 -1.58544,0.2623 0,0.29415 2.38826,0.98129 4.63021,1.33217 2.42149,0.37899 4.86251,0.15426 8.59896,-0.79166 1.67349,-0.42365 3.08271,-0.7348 3.13158,-0.69143 0.0489,0.0434 -0.72501,0.67952 -1.71979,1.41365 -3.75605,2.77197 -7.09779,4.07535 -11.32906,4.41867 l -2.21316,0.17958 1.23655,0.9804 c 2.40015,1.90292 4.45527,4.61173 6.32958,8.34281 2.95537,5.88313 3.58166,12.12936 1.85703,18.52083 -0.26929,0.99798 -0.29681,1.02061 -0.48257,0.39688 -0.10835,-0.3638 -0.20887,-0.99655 -0.22337,-1.40611 -0.0424,-1.19711 -2.02837,-6.15952 -3.23196,-8.07573 -0.60902,-0.96963 -1.6973,-2.47733 -2.41842,-3.35045 -1.24833,-1.51145 -3.80871,-3.83646 -4.22484,-3.83646 -0.10742,0 0.20825,0.74414 0.70151,1.65365 2.60088,4.79577 3.97881,12.03856 3.33478,17.52864 -0.79393,6.76797 -2.75166,11.65511 -6.80984,16.99948 -0.80111,1.05502 -1.53519,1.91823 -1.63129,1.91823 -0.0961,0 -0.0836,-1.22039 0.0278,-2.71198 0.11139,-1.49159 0.13372,-3.54542 0.0496,-4.56406 -0.17108,-2.07189 -1.10172,-6.40917 -1.417,-6.60403 -0.11247,-0.0695 -0.27572,0.79264 -0.36274,1.9159 -0.19267,2.48662 -0.9665,5.07641 -2.32378,7.77697 -1.36406,2.71404 -1.6618,2.856 -1.42891,0.68129 0.32311,-3.01723 -0.84156,-9.49232 -1.49678,-8.32149 -0.12295,0.21972 -0.47866,1.45272 -0.79044,2.74001 -1.49582,6.17594 -0.0846,11.99796 3.94306,16.26752 1.83618,1.94643 5.01282,4.09581 7.23365,4.8944 0.71184,0.25598 1.29427,0.54985 1.29427,0.65304 0,0.27254 -3.59045,1.70264 -5.29167,2.1077 -3.35685,0.79928 -7.81717,0.18741 -10.80434,-1.48215 -0.65032,-0.36347 -1.24243,-0.60079 -1.31583,-0.52739 -0.33596,0.33596 1.02405,2.53125 2.46288,3.9755 2.58384,2.59355 5.77958,3.77242 9.38768,3.46297 l 1.9894,-0.17062 -1.71979,1.10608 c -2.47878,1.5942 -4.11017,2.2817 -6.24962,2.6337 -2.03713,0.33516 -4.59406,0.0551 -6.40506,-0.70161 -0.50617,-0.21149 -0.97306,-0.33181 -1.03748,-0.26736 -0.0644,0.0644 0.26342,0.67035 0.72858,1.34646 1.49003,2.16565 5.06952,4.3558 7.88033,4.82163 0.47841,0.0793 0.82584,0.27668 0.77205,0.43865 -0.0538,0.16197 -1.10009,0.63935 -2.32508,1.06084 -3.6132,1.24321 -6.91332,1.01922 -10.85437,-0.73673 -0.35584,-0.15854 -0.44776,0.0612 -0.5646,1.34984 -0.47818,5.27343 -4.30146,10.60557 -9.18874,12.81512 -1.48415,0.67099 -3.97684,1.5568 -3.97684,1.41323 0,-0.0585 0.33914,-0.68159 0.75364,-1.38459 1.43396,-2.432 1.9713,-4.24247 1.98339,-6.68259 0.0114,-2.28195 -0.205,-3.70417 -0.5633,-3.70417 -0.10861,0 -0.40687,0.58965 -0.66283,1.31034 -1.1919,3.35583 -4.99441,7.53775 -8.45622,9.29994 l -1.52135,0.77442 -0.003,-6.02308 -0.003,-6.02308 -1.66894,2.80236 c -0.91792,1.54129 -1.82772,3.18568 -2.02179,3.6542 -0.64746,1.5631 0.008,24.98083 0.79875,28.5529 0.15087,0.68115 0.69885,1.95283 1.21775,2.82596 1.23214,2.07322 1.2587,3.2833 0.13078,5.95312 -1.71243,4.05333 -7.42656,12.81753 -11.38528,17.4625 -6.13762,7.20154 -15.42577,14.27504 -23.23878,17.69774 -6.106,2.67491 -6.79252,3.25776 -8.23846,6.99424 -1.56152,4.03516 -4.07948,12.01599 -6.48409,20.55177 -1.51657,5.38335 -2.94873,11.72797 -4.00154,17.72708 -0.37028,2.11006 -0.74006,4.13412 -0.82171,4.49792 -0.22466,1.00102 0.26403,0.31832 0.75753,-1.05833 0.23476,-0.65485 1.55596,-4.28625 2.936,-8.06979 1.38004,-3.78355 3.87392,-10.68917 5.54199,-15.34584 3.75412,-10.48025 4.60144,-12.79578 5.90616,-16.13958 l 1.03235,-2.64583 5.81427,-2.91198 c 6.57971,-3.29533 8.36213,-4.3574 11.83412,-7.05136 4.2903,-3.32891 7.55611,-6.66387 12.31416,-12.57498 6.5019,-8.07749 13.81983,-21.45923 13.16406,-24.07206 -0.0982,-0.39121 -0.72433,-1.90197 -1.3914,-3.35724 l -1.21285,-2.64595 -0.20031,-4.25259 c -0.1102,-2.33892 -0.288,-6.14522 -0.39513,-8.45843 -0.11337,-2.44752 -0.0963,-4.14766 0.0409,-4.06668 0.12964,0.0765 1.45193,0.62703 2.93841,1.22332 5.79456,2.32448 8.99316,4.23108 10.43315,6.21894 0.42355,0.58468 1.02153,1.90365 1.32885,2.93104 0.79573,2.66006 4.72686,13.05523 6.15629,16.27924 1.17542,2.65105 1.20706,2.79296 1.20449,5.40045 -0.007,7.00287 -2.11989,18.67269 -4.71262,26.02734 -0.57711,1.63711 -1.0033,2.97656 -0.94705,2.97656 0.0563,0 0.8627,-1.51805 1.7921,-3.37344 3.37783,-6.74325 6.47689,-15.63449 7.7878,-22.34325 0.39195,-2.00585 0.80738,-3.64813 0.92318,-3.64953 0.11581,-0.001 2.55659,1.05462 5.42396,2.34669 2.86737,1.29207 6.88028,3.02543 8.91757,3.85193 4.45283,1.80644 7.85093,3.50671 13.49375,6.75174 5.2846,3.03906 7.63259,4.16825 17.05189,8.20055 15.25363,6.52994 18.07919,7.89993 23.65523,11.46926 l 2.07799,1.33014 1.68648,-0.33522 c 1.53368,-0.30486 1.8488,-0.2848 3.47826,0.22137 0.9855,0.30615 2.44666,1.02701 3.24702,1.60192 0.80037,0.57492 3.41974,2.35498 5.82084,3.95571 13.55251,9.03502 24.36196,16.67967 25.03302,17.70385 1.41671,2.1622 -1.41343,9.70743 -6.916,18.43807 -1.7999,2.85581 -4.21132,7.03588 -8.54749,14.81667 -3.53063,6.33531 -7.82966,12.99929 -11.44762,17.7451 -1.17507,1.54136 -2.0878,2.85115 -2.0283,2.91065 0.10941,0.10941 8.03682,-8.27526 10.99317,-11.6273 1.57491,-1.7857 6.27203,-8.18771 11.1796,-15.23743 l 2.48042,-3.56312 1.11664,2.3725 c 1.13787,2.4176 4.58875,11.13763 6.48838,16.39543 1.83068,5.06698 3.89186,12.2238 4.86873,16.90508 0.51946,2.48941 1.76189,8.27664 2.76095,12.86055 1.899,8.71309 3.706,17.67231 3.706,18.37462 0,0.371 -20.45483,0.41079 -211.1375,0.41079 -207.262445,0 -211.137485,-0.009 -211.137485,-0.50273 z"
       id="path912" />
  </g>
</svg>
