<?xml version="1.0" encoding="UTF-8" standalone="no"?>
<!-- Created with Inkscape (http://www.inkscape.org/) -->

<svg
   width="322.09308mm"
   height="322.09308mm"
   viewBox="0 0 322.09308 322.09308"
   version="1.1"
   id="svg3133"
   xmlns="http://www.w3.org/2000/svg"
   xmlns:svg="http://www.w3.org/2000/svg">
  <defs
     id="defs3130" />
  <g
     id="layer1"
     transform="translate(8.803363,-90.257619)">
    <path
       style="fill:#000000;stroke-width:0.264583"
       d="m 142.67438,412.18698 c -28.70112,-1.14486 -54.789859,-5.79004 -80.154881,-14.27181 -6.292479,-2.10416 -13.668057,-4.84328 -16.947197,-6.29383 -0.654843,-0.28967 -2.619375,-1.16009 -4.365625,-1.93429 -3.832875,-1.69929 -12.339329,-6.01242 -16.529702,-8.38126 -4.051509,-2.29034 -9.647684,-6.03864 -10.463961,-7.00873 -0.861118,-1.02339 -0.84246,-1.90733 0.133175,-6.30902 2.321843,-10.47528 7.089402,-20.98405 12.657026,-27.89894 4.426972,-5.49822 9.925457,-9.55894 15.526379,-11.46648 5.955268,-2.02822 10.001435,-2.10878 15.181235,-0.30234 1.243701,0.43373 2.510711,0.78862 2.81559,0.78862 0.625555,0 6.53333,-1.97173 11.504216,-3.83953 1.81901,-0.68347 4.021666,-1.51149 4.894791,-1.83999 4.257225,-1.60176 11.560228,-4.84392 18.785417,-8.33972 8.995807,-4.35249 10.658127,-6.40901 13.135367,-16.25037 0.28956,-1.15032 0.76965,-2.60884 1.06688,-3.24115 0.80722,-1.71729 0.96031,-1.69111 4.79507,0.82013 6.86581,4.49612 14.59857,7.68133 23.54741,9.69942 3.70557,0.83565 5.28424,1.56304 6.9968,3.22383 1.13271,1.09844 2.89793,4.18776 3.50914,6.14133 0.18211,0.58209 0.4834,1.35599 0.66953,1.7198 0.18613,0.3638 0.90818,2.18027 1.60459,4.03659 0.69641,1.85634 1.34636,3.28509 1.44439,3.175 0.098,-0.11007 0.36409,-0.73592 0.59132,-1.39076 2.4892,-7.17375 4.56281,-11.68421 6.21786,-13.52503 1.50059,-1.66902 3.17386,-2.44522 7.32997,-3.40024 7.01085,-1.61101 11.75707,-3.29864 17.46922,-6.2116 2.33203,-1.18924 5.3418,-2.9709 6.68837,-3.95925 1.95374,-1.43401 2.57882,-1.76424 3.09449,-1.63481 0.85497,0.21458 0.9535,0.44296 2.12198,4.91843 2.41298,9.24201 4.48686,11.73962 13.1757,15.86775 1.77273,0.84225 4.60581,2.18686 6.29576,2.98799 6.09608,2.88999 12.58771,5.56382 19.45055,8.01145 5.52032,1.96882 8.83902,3.02758 9.49142,3.02803 0.29105,2.1e-4 1.77933,-0.42307 3.3073,-0.94062 4.62071,-1.56509 8.5422,-1.52287 13.48073,0.14517 9.58244,3.23655 16.98445,10.20464 22.51654,21.19659 2.95881,5.87902 4.75049,10.8961 6.32151,17.70156 1.12913,4.89127 1.14678,6.54039 0.0807,7.53991 -2.82212,2.64583 -18.3439,11.18094 -28.24427,15.5309 -21.9303,9.6356 -46.53674,16.33456 -71.69496,19.51853 -16.417,2.07769 -33.61529,2.94259 -47.49982,2.38874 z M 151.39594,311.678 c -1.49111,-3.69625 -3.76534,-6.3148 -6.7819,-7.80865 -1.3567,-0.67186 -4.32813,-1.61385 -8.02508,-2.54409 -6.05033,-1.5224 -14.32689,-4.92926 -18.543,-7.63281 l -1.21277,-0.77769 0.21439,-1.41595 c 0.96232,-6.35552 1.06913,-8.10273 0.91967,-15.042 -0.0831,-3.8563 -0.20294,-7.33888 -0.26636,-7.73906 -0.0635,-0.40018 -0.0482,-0.7276 0.0339,-0.7276 0.0821,0 1.23243,1.04386 2.55638,2.3197 2.7605,2.66016 7.37526,6.33483 10.08308,8.02903 1.02029,0.63835 2.09185,1.31369 2.38125,1.50075 1.07114,0.69233 6.9282,3.44342 8.4637,3.97543 10.45429,3.62215 19.63592,2.44734 30.69166,-3.92707 4.35155,-2.50897 8.35626,-5.59879 12.63195,-9.74611 1.27225,-1.23406 2.3567,-2.19328 2.40988,-2.13159 0.0532,0.0617 0.003,1.42184 -0.11364,3.02257 -0.48937,6.77142 -0.21717,14.559 0.69345,19.83921 0.33038,1.91566 0.32393,2.13717 -0.0693,2.38125 -5.99435,3.72049 -12.67095,6.44184 -20.97628,8.5498 -8.0406,2.04077 -10.72178,4.06286 -13.26044,10.0007 l -0.91569,2.14181 z m 76.87114,0.23762 c -4.64285,-1.58722 -8.71043,-3.54645 -14.11115,-6.79691 -9.08325,-5.4668 -13.95217,-10.48671 -17.68761,-18.23614 -3.57651,-7.41967 -5.46018,-13.8667 -6.03729,-20.66327 l -0.18407,-2.16772 1.44746,-1.93332 c 2.12389,-2.83683 3.91781,-5.58474 5.44549,-8.3413 1.59938,-2.88601 5.25127,-10.6325 5.49632,-11.65898 0.0943,-0.39515 0.26313,-0.83752 0.3751,-0.98304 0.30885,-0.40136 3.34121,-9.61523 4.35153,-13.2222 3.11512,-11.1212 5.30825,-23.2398 6.46538,-35.72572 2.38392,-25.72346 1.00028,-38.54329 -5.69156,-52.73352 -1.34212,-2.84604 -3.82579,-7.18963 -4.54125,-7.94204 -0.18333,-0.19281 -0.71604,-0.90718 -1.18378,-1.5875 -0.90053,-1.30978 -1.5164,-2.06035 -3.28485,-4.00327 -0.60193,-0.66133 -1.43536,-1.59693 -1.85208,-2.07911 -0.4167,-0.48219 -1.76967,-1.74146 -3.0066,-2.7984 -9.24586,-7.90041 -18.7526,-12.23952 -31.75,-14.49145 -3.08628,-0.53474 -4.45314,-0.61887 -10.05416,-0.61887 -8.72633,0 -13.45422,0.74215 -21.69583,3.40563 -4.98234,1.61017 -10.94054,4.64298 -15.23211,7.75335 -13.67055,9.9079 -21.934594,23.66251 -24.696104,41.10393 -1.240419,7.83447 -1.317651,16.43306 -0.267229,29.75792 1.055423,13.38843 2.268485,21.52219 4.873255,32.67604 1.543949,6.6113 5.186148,18.27033 6.736318,21.56354 0.13698,0.29104 0.79203,1.8773 1.45566,3.52501 1.19549,2.96831 1.59509,3.76734 4.19145,8.38124 1.56477,2.78072 4.70133,7.55779 5.78231,8.80661 0.65331,0.75474 0.75208,1.08548 0.75073,2.51354 -0.004,4.02722 -1.53482,10.95218 -3.61006,16.32881 -1.56247,4.04817 -4.47336,9.46552 -6.5315,12.15554 -4.17962,5.46285 -9.936455,9.79316 -19.225632,14.46165 -3.369575,1.69346 -5.552837,2.65644 -6.879167,3.03423 -0.654843,0.18653 -1.309687,0.42671 -1.455208,0.53373 -0.145521,0.10702 -0.722789,0.28022 -1.282806,0.38488 l -1.018222,0.1903 0.938001,-1.33451 c 2.48531,-3.53588 4.324111,-8.29338 6.515761,-16.85811 1.70008,-6.64373 2.595562,-9.29672 4.376076,-12.96458 3.599444,-7.41484 7.608067,-11.64348 16.929527,-17.85867 1.60073,-1.06731 3.42206,-2.3565 4.04743,-2.86486 l 1.13702,-0.92431 -0.99742,-1.02147 c -0.54859,-0.5618 -1.8937,-1.59793 -2.98911,-2.30249 -1.09542,-0.70457 -3.1963,-2.05839 -4.668622,-3.00849 -4.855554,-3.13332 -10.223659,-7.8586 -14.785552,-13.01495 -4.857512,-5.49048 -7.527448,-8.23859 -9.644618,-9.92695 -2.234565,-1.78196 -6.299517,-4.7726 -6.48708,-4.7726 -0.244396,0 -7.361634,-4.43777 -8.884735,-5.53983 -2.500101,-1.80903 -2.818791,-2.10113 -4.119562,-3.77598 -1.582843,-2.03809 -2.475944,-4.02741 -2.479119,-5.52214 -0.0026,-1.09835 1.172263,-4.52773 2.711423,-7.91622 0.231352,-0.50932 0.800894,-1.81901 1.265661,-2.91042 1.127178,-2.64691 1.785461,-4.14802 2.37863,-5.42396 0.270616,-0.58208 1.494076,-3.49911 2.718806,-6.48229 2.264145,-5.51489 5.657135,-13.55778 6.529652,-15.47812 0.264477,-0.58209 0.980704,-2.24896 1.591627,-3.70417 0.610897,-1.45521 1.321991,-3.12208 1.580198,-3.70417 0.258233,-0.58208 0.96557,-2.24895 1.571889,-3.70416 0.606319,-1.45521 1.209596,-2.88396 1.340617,-3.175 0.131022,-0.29104 0.613093,-1.42214 1.071298,-2.51354 0.458179,-1.09141 1.049788,-2.46063 1.314688,-3.04271 0.427937,-0.94037 1.558449,-3.56352 2.508621,-5.82083 1.950455,-4.63371 3.482869,-8.11796 7.433336,-16.90106 3.452786,-7.67655 7.258817,-13.18876 13.184342,-19.09465 5.20687,-5.1896 7.71938,-7.16222 13.57662,-10.65931 3.46872,-2.070995 4.54448,-2.610004 8.40854,-4.212977 7.65489,-3.175582 14.39394,-4.732646 23.8792,-5.517324 4.42478,-0.366045 5.95431,-0.385111 9.98746,-0.124504 11.22193,0.725114 19.79411,2.750925 28.55031,6.747125 10.34513,4.72137 20.88113,13.68555 27.51164,23.40734 1.56837,2.29957 4.92829,8.92956 7.3225,14.44911 0.75745,1.74625 1.64793,3.77031 1.97882,4.49791 0.33089,0.72761 1.02158,2.33495 1.5349,3.57188 0.51329,1.23692 1.10657,2.60614 1.31839,3.04271 0.48856,1.00696 0.93147,2.02478 2.25153,5.17397 0.58285,1.39048 1.36083,3.17642 1.72886,3.96875 0.36801,0.79233 1.37901,3.16701 2.24666,5.27707 1.45714,3.54368 3.80773,9.09651 4.64804,10.9802 1.17189,2.62688 4.38439,10.1653 4.38439,10.28833 0,0.0809 0.28432,0.77564 0.63182,1.54394 0.34751,0.76829 0.8898,1.99221 1.20507,2.71982 0.31528,0.7276 0.68048,1.56104 0.81153,1.85208 0.13108,0.29104 0.54854,1.30307 0.92768,2.24896 0.37915,0.94588 0.97981,2.34812 1.33475,3.11609 0.35496,0.76796 0.6454,1.44904 0.6454,1.51351 0,0.0645 0.27948,0.74582 0.62108,1.51412 0.3416,0.7683 0.88924,2.11128 1.21698,2.9844 0.59055,1.57331 0.79695,2.04766 2.3818,5.47366 1.24825,2.69841 2.13029,5.17447 2.12865,5.97561 -0.003,1.32018 -0.54154,2.69258 -1.76458,4.4943 -1.98221,2.92004 -3.40963,4.03793 -11.22693,8.79246 -7.31253,4.44752 -11.32843,7.91026 -18.41394,15.87751 -6.17998,6.94903 -11.38399,11.31466 -18.22072,15.28533 -2.09682,1.2178 -5.67026,3.92955 -5.67026,4.30295 0,0.13391 1.92159,1.51365 4.27019,3.0661 8.88074,5.87023 12.17581,8.91108 15.93525,14.70581 2.74306,4.22814 4.00245,7.46391 6.11468,15.71051 0.81692,3.1895 1.91021,7.04925 2.42953,8.57722 0.93742,2.75809 3.48578,8.21598 4.21002,9.01667 0.20781,0.22974 0.37783,0.51802 0.37783,0.64062 0,0.12261 0.1977,0.44138 0.43934,0.70839 0.24164,0.26702 0.39047,0.52955 0.33073,0.5834 -0.0597,0.0539 -1.06111,-0.2277 -2.22528,-0.62569 z m -17.59479,-24.98668 c 0,-0.0612 -0.36782,-1.1625 -0.81738,-2.4474 -1.95199,-5.57915 -4.93524,-10.5183 -8.78599,-14.54626 -2.31629,-2.42287 -6.45464,-5.81906 -6.74137,-5.53235 -0.20169,0.20169 1.70767,2.88393 5.09622,7.15909 1.61478,2.03729 3.5465,4.49303 4.29273,5.4572 1.42314,1.83881 4.84751,6.97777 5.92683,8.89441 0.53353,0.94744 1.02896,1.43629 1.02896,1.01531 z m -113.071238,-4.7674 c 2.00795,-3.06509 2.193079,-3.33306 3.136878,-4.54078 0.43656,-0.55865 2.07592,-2.68618 3.64299,-4.72785 1.5671,-2.04168 3.27091,-4.21686 3.78627,-4.83374 1.29918,-1.55509 2.76743,-3.77319 2.49764,-3.77319 -0.12309,0 -1.15684,0.70032 -2.29722,1.55627 -5.96228,4.47517 -10.317375,10.41397 -12.930347,17.63247 -1.118393,3.08958 -1.167579,3.834 -0.148193,2.24251 0.419444,-0.65484 1.459839,-2.25491 2.311982,-3.55569 z m 0.664157,-36.9917 c -0.405077,-0.76399 -1.012163,-1.86532 -1.349057,-2.4474 -1.317069,-2.27563 -6.126956,-12.11022 -7.764118,-15.875 -2.437977,-5.60636 -5.798503,-14.76849 -7.326895,-19.97604 -0.320331,-1.09141 -0.689478,-2.28203 -0.820314,-2.64583 -0.383725,-1.06681 -2.06711,-7.57976 -2.701263,-10.45105 -0.573591,-2.59693 -0.585973,-2.62138 -0.669793,-1.32291 -0.09448,1.46308 0.617167,8.72814 0.997796,10.18646 0.132954,0.50932 0.553773,2.57661 0.935197,4.59397 0.381423,2.01737 0.972608,4.57721 1.313762,5.68855 0.341154,1.11133 0.8305,2.73498 1.087411,3.6081 1.239917,4.21381 5.918597,14.80937 7.552743,17.10431 0.275907,0.38746 0.501623,0.78164 0.501623,0.87597 0,0.25174 4.661456,7.2192 5.760588,8.61034 0.90244,1.14217 3.006301,3.43959 3.149838,3.43959 0.03794,0 -0.262441,-0.62508 -0.667518,-1.38906 z M 208.9343,242.73559 c 9.96346,-13.21484 15.53299,-27.19392 17.6145,-44.21092 0.29022,-2.37258 0.51684,-4.94774 0.50361,-5.72259 l -0.0241,-1.40881 -0.3773,1.45521 c -4.02209,15.51281 -6.90888,24.19439 -11.74522,35.32188 -1.34239,3.0886 -4.28236,9.11767 -5.78723,11.86801 -4.06323,7.42611 -4.09448,7.88335 -0.18434,2.69722 z m -62.47839,38.22825 c -5.92643,-1.37971 -11.28667,-4.11168 -17.89583,-9.12106 -7.98716,-6.05384 -15.04288,-14.85634 -19.73633,-24.62242 -4.07429,-8.47777 -7.59843,-19.18484 -9.927695,-30.1625 -0.524906,-2.47386 -1.062937,-4.97417 -1.195652,-5.55625 -0.367268,-1.61094 -1.063519,-6.46737 -1.063519,-7.41808 0,-0.46342 0.605393,-2.13909 1.345327,-3.72371 1.970855,-4.22068 1.991942,-4.26844 2.978949,-6.74223 0.49892,-1.25047 0.99536,-2.67531 1.10318,-3.16631 0.10784,-0.491 0.2908,-1.07522 0.40655,-1.29828 0.25004,-0.4818 1.05077,-3.23608 1.84862,-6.35868 0.92311,-3.6128 2.57003,-8.36135 3.73393,-10.76599 3.14055,-6.48835 8.51646,-12.39503 14.64246,-16.0881 3.01149,-1.81548 8.11147,-4.15054 12.43785,-5.69476 2.8093,-1.00272 7.26112,-2.87833 9.39271,-3.95726 2.51857,-1.2748 3.86731,-2.26654 6.05954,-4.45563 1.74926,-1.74676 1.98675,-1.90328 2.22305,-1.4652 0.14553,0.26976 0.82172,1.02626 1.50268,1.6811 2.15191,2.06939 3.15785,2.74468 6.75119,4.532 1.60073,0.79621 4.04151,1.90314 5.42395,2.45984 1.38245,0.5567 2.87073,1.16325 3.3073,1.34788 0.43656,0.18463 1.62718,0.63764 2.64583,1.00668 3.87413,1.40355 10.06287,4.58482 12.5267,6.43926 2.55955,1.92647 5.53333,4.76794 6.97203,6.66185 0.62558,0.8235 1.21539,1.55682 1.31067,1.62958 0.61939,0.47301 3.98269,6.88218 5.0678,9.65729 0.65395,1.67246 2.06843,6.50723 2.86409,9.78958 0.43524,1.79544 2.38694,7.82147 2.77265,8.56068 0.20079,0.38486 0.36584,0.80002 0.36671,0.92259 0,0.12257 0.90403,2.0871 2.00692,4.36563 l 2.0053,4.14277 -0.84166,5.02708 c -0.46289,2.7649 -1.07347,6.03912 -1.35681,7.27604 -0.85347,3.72565 -1.82275,8.0034 -2.07177,9.14344 -0.12899,0.59051 -0.35573,1.36441 -0.50387,1.7198 -0.14812,0.35537 -0.76468,2.25348 -1.37012,4.21801 -1.03772,3.36714 -1.49733,4.63951 -3.77502,10.45104 -3.12563,7.97509 -7.75992,15.74115 -12.86251,21.55486 -7.81368,8.90259 -17.40517,15.43452 -25.93377,17.66123 -3.53351,0.92255 -9.96371,1.09268 -13.16143,0.34823 z m -64.106525,-3.3755 c -3.662151,-0.9505 -8.367898,-3.73332 -11.341629,-6.70705 -8.571865,-8.57188 -10.918084,-21.98471 -5.666158,-32.39218 1.753526,-3.4749 4.51903,-7.01828 5.464413,-7.00142 1.032563,0.0184 4.769644,3.4608 9.898644,9.11808 8.186579,9.02977 13.773864,13.73526 20.033275,16.87155 1.01864,0.5104 2.14757,1.16731 2.50872,1.45981 l 0.65667,0.53182 -1.05354,0.6192 c -4.80055,2.82153 -9.384827,6.31778 -12.501354,9.5343 -1.922727,1.98443 -4.663572,5.48742 -5.361225,6.85206 -0.736574,1.44075 -0.980837,1.54389 -2.637816,1.11383 z m 13.418846,-80.50652 c -0.691118,-1.74951 -1.582023,-15.25972 -1.613879,-24.47396 -0.02514,-7.25432 0.04059,-8.66068 0.568245,-12.17084 1.548025,-10.29806 4.534641,-18.5144 9.343893,-25.70548 2.68864,-4.02022 4.52996,-6.20825 7.97385,-9.47542 6.25888,-5.93766 16.12487,-11.34424 24.15175,-13.23517 12.0289,-2.83371 23.86581,-2.55468 35.05728,0.82642 2.96651,0.89622 4.74293,1.6402 8.7665,3.67149 8.06172,4.06994 13.48957,8.60158 19.01134,15.87233 3.42196,4.50585 6.04663,9.57037 8.02439,15.48376 1.88521,5.63664 2.75087,9.69403 3.38505,15.86575 0.47752,4.64726 0.12602,19.44589 -0.6505,27.38799 l -0.62087,6.35 -0.96629,-2.03318 c -0.53147,-1.11825 -0.96628,-2.19576 -0.96628,-2.39448 0,-0.19871 -0.0996,-0.47441 -0.22125,-0.61265 -0.26231,-0.298 -1.54366,-4.35029 -1.79453,-5.67531 -0.0964,-0.50933 -0.26091,-1.04511 -0.36547,-1.19063 -0.10457,-0.14552 -0.26713,-0.6813 -0.36124,-1.19062 -0.75205,-4.07038 -3.01209,-10.73608 -4.97178,-14.66359 -2.31484,-4.63931 -4.18963,-7.27985 -7.63157,-10.74856 -5.61551,-5.65921 -10.67667,-8.52654 -22.88645,-12.96599 -7.18635,-2.61294 -11.24675,-5.00042 -13.25354,-7.79298 -1.31178,-1.82543 -1.35186,-1.97062 -1.68828,-6.11362 -0.48138,-5.92865 -1.40427,-10.97805 -1.85377,-10.14246 -0.37352,0.69439 -1.05125,5.41259 -1.59071,11.07437 -0.15105,1.58529 -0.47172,3.18867 -0.77475,3.87372 -1.3244,2.994 -5.92214,6.13693 -12.37503,8.45932 -1.42735,0.5137 -2.95236,1.09534 -3.38892,1.29252 -0.43656,0.19719 -1.27,0.50571 -1.85208,0.6856 -0.58209,0.17989 -1.41552,0.48417 -1.85209,0.67619 -0.43656,0.19201 -1.56765,0.66804 -2.51354,1.05785 -3.8382,1.58176 -8.20438,4.10342 -11.77395,6.79999 -1.85634,1.40235 -6.04097,5.87976 -7.38394,7.90058 -4.1811,6.2915 -5.1838,8.65712 -7.83725,18.49039 -1.685077,6.24456 -3.028023,10.44404 -4.10366,12.83229 -0.327686,0.7276 -0.649367,1.56104 -0.714851,1.85208 -0.09289,0.41301 -0.153458,0.44205 -0.275828,0.1323 z"
       id="path3275" />
  </g>
</svg>
