<?xml version="1.0" encoding="UTF-8" standalone="no"?>
<!-- Created with Inkscape (http://www.inkscape.org/) -->

<svg
   width="319.65869mm"
   height="319.65869mm"
   viewBox="0 0 319.65869 319.65869"
   version="1.1"
   id="svg2861"
   xmlns="http://www.w3.org/2000/svg"
   xmlns:svg="http://www.w3.org/2000/svg">
  <defs
     id="defs2858" />
  <g
     id="layer1"
     transform="translate(37.40298,-45.291751)">
    <path
       style="fill:#000000;stroke-width:0.264583"
       d="m -37.224194,358.52001 c 0.985686,-4.74083 6.565733,-26.36898 8.413334,-32.60989 3.795906,-12.822 10.872975,-29.22754 15.964357,-37.00738 2.18466,-3.33825 6.2625289,-7.54663 9.2924759,-9.5899 1.269794,-0.8563 5.344811,-3.08065 9.055592,-4.943 6.7369081,-3.38114 24.7214481,-12.09201 24.9652081,-12.09201 0.14293,0 8.05524,-3.71522 13.79625,-6.47801 2.03729,-0.98043 6.54402,-3.14758 10.01496,-4.8159 8.53225,-4.10106 10.47562,-5.16025 17.95306,-9.78486 2.43107,-1.50356 4.45513,-2.73364 4.49792,-2.73353 0.0428,1.2e-4 0.0873,1.28004 0.099,2.84427 0.0193,2.59076 0.0982,3.02688 0.88545,4.89667 3.50486,8.3239 13.8231,16.16946 26.691907,20.29538 5.15601,1.65309 6.80397,2.46652 8.10321,3.99973 1.27896,1.50929 2.51936,4.56462 3.24879,8.00237 0.37584,1.77142 0.82423,3.37508 0.99639,3.5637 1.33183,1.45905 9.95524,1.43272 11.42643,-0.0349 0.16983,-0.16941 0.5022,-1.37959 0.73864,-2.68928 0.5712,-3.16431 1.28878,-5.29193 2.42051,-7.1769 1.85436,-3.08861 2.78183,-3.68028 8.60152,-5.48733 4.90022,-1.52155 6.12376,-2.00853 9.49407,-3.77867 8.86717,-4.65717 15.77372,-11.16868 18.03731,-17.00561 0.7873,-2.03016 0.87884,-2.54112 0.86561,-4.83175 -0.0143,-2.49154 -1.6e-4,-2.55368 0.52065,-2.27495 0.57835,0.30952 2.4326,1.47517 5.2156,3.27873 3.35992,2.17742 9.68076,5.52585 17.82646,9.44346 8.17951,3.93387 21.54616,10.23823 21.70731,10.23823 0.0467,0 2.42589,1.13109 5.28707,2.51354 2.86117,1.38245 5.24997,2.51354 5.30844,2.51354 0.39981,0 22.12012,11.05295 23.68365,12.05204 2.61157,1.6688 6.3582,5.11215 8.04621,7.39484 5.8257,7.8781 13.28277,24.56764 17.83123,39.90782 1.91145,6.44649 8.49129,32.09766 8.49129,33.10278 0,0.0807 -71.92322,0.14669 -159.82936,0.14669 H -37.402979 Z M 119.2724,262.5296 c -7.19519,-0.5192 -15.47588,-2.69325 -21.211857,-5.56906 -7.1646,-3.59206 -11.35478,-7.08547 -14.56762,-12.14521 -1.45126,-2.2855 -1.45108,-2.30497 0.0481,-5.34876 0.73713,-1.49657 1.57994,-3.67353 1.87288,-4.8377 0.86167,-3.42413 1.3897,-9.71227 1.21611,-14.48232 -0.17693,-4.86155 -0.0542,-4.52969 -3.66948,-9.9261 -4.46964,-6.67176 -7.15979,-12.93004 -9.22303,-21.45621 -0.92885,-3.8384 -0.78465,-3.64048 -3.10814,-4.26569 -1.42619,-0.38376 -3.21572,-1.99031 -4.24614,-3.81196 -1.3063,-2.30941 -3.35585,-8.94749 -4.01299,-12.9973 -1.81674,-11.19636 -2.05724,-21.33485 -0.75314,-31.75 0.40873,-3.26443 1.26728,-8.05801 1.70596,-9.525 0.21756,-0.7276 0.69614,-2.45401 1.06352,-3.83646 3.48083,-13.09916 12.54405,-25.585342 23.87544,-32.892622 16.075157,-10.36638 39.357687,-12.37087 58.394727,-5.02743 10.07972,3.8882 19.09008,11.00559 25.42299,20.081902 2.1808,3.12553 2.60718,3.8569 4.46053,7.65169 2.55217,5.22556 3.70954,8.5176 5.25558,14.94896 0.57682,2.39944 0.80388,3.61366 1.38546,7.40833 1.00582,6.56291 1.24982,18.0428 0.52578,24.73854 -1.19877,11.08594 -3.81674,20.3694 -6.51486,23.10187 -1.11424,1.12844 -2.77024,2.09317 -3.94486,2.29817 -0.50932,0.0889 -1.02338,0.25829 -1.14233,0.37646 -0.11896,0.11817 -0.4984,1.45101 -0.84315,2.96189 -2.13892,9.37328 -4.99243,15.89047 -10.37254,23.68998 -2.56096,3.71262 -2.54132,3.63712 -2.49944,9.61642 0.067,9.56939 1.03272,14.57425 3.69358,19.14268 l 0.90157,1.54788 -0.49123,1.09529 c -1.40559,3.13396 -5.79699,7.75767 -9.99799,10.52691 -6.91065,4.55542 -17.29782,7.99042 -25.92028,8.57173 -1.17909,0.0795 -2.67959,0.18257 -3.33444,0.22906 -0.65484,0.0465 -2.44078,-0.006 -3.96874,-0.11594 z M 71.638163,150.64664 c 2.99178,-9.97397 5.87833,-15.80893 11.02387,-22.28404 2.1818,-2.74555 5.72211,-5.7414 10.37137,-8.77636 1.56525,-1.02176 9.684087,-5.05098 12.157547,-6.03354 3.52528,-1.4004 9.29172,-4.47264 11.4563,-6.1037 2.89068,-2.1782 4.32258,-4.05374 5.40658,-7.0817 0.29456,-0.822792 0.36137,-0.874272 0.5339,-0.411342 1.4084,3.779302 3.51663,6.232802 7.44209,8.660992 2.80721,1.73647 6.97207,3.86167 9.68473,4.94181 1.05334,0.41941 3.87967,1.71733 6.28076,2.88426 11.82494,5.7469 17.90171,11.83912 23.27354,23.33273 1.42299,3.04463 2.38575,5.7579 5.39838,15.21354 l 0.42148,1.32292 -0.14314,-1.5875 c -0.49096,-5.44515 -2.39109,-13.40629 -4.43505,-18.58188 -2.72489,-6.89988 -6.05602,-11.64817 -11.12473,-15.85755 -4.29821,-3.56951 -8.9114,-5.89586 -21.46027,-10.82203 -5.03103,-1.97498 -8.3648,-3.89788 -10.24792,-5.91095 -2.63186,-2.81347 -2.93217,-3.755802 -4.32906,-13.584362 -0.40846,-2.87404 -0.83786,-5.22552 -0.95419,-5.22552 -0.11634,0 -0.21154,0.16483 -0.21154,0.36629 0,0.89426 -1.368,10.54315 -1.74863,12.33371 -1.22563,5.765342 -5.00332,8.904162 -15.44929,12.836532 -11.808057,4.44513 -17.145127,7.45395 -22.120457,12.47056 -5.32709,5.37132 -8.46931,11.59644 -11.0649,21.92103 -0.93747,3.72896 -2.34334,11.96092 -1.97787,11.58119 0.10806,-0.11226 0.92546,-2.63455 1.8165,-5.60509 z m 7.41757,77.49412 c -8.21558,-0.7815 -15.15682,-5.62644 -18.6627,-13.02646 -1.60195,-3.38134 -2.06984,-5.63361 -2.07458,-9.98647 -0.004,-3.65633 0.037,-3.95746 0.87408,-6.4135 0.98211,-2.88172 2.68169,-6.04123 4.25069,-7.90197 l 1.04235,-1.23615 -2.96754,-1.5248 c -5.93878,-3.0515 -9.72849,-5.68035 -15.00605,-10.40941 -6.13146,-5.4942 -8.83354,-9.70334 -9.38824,-14.62456 -0.3633,-3.22323 1.05558,-10.36109 4.35708,-21.91878 0.43646,-1.52796 1.6346,-5.99281 2.6625,-9.92187 1.02794,-3.92906 2.08899,-7.79859 2.35797,-8.59896 0.26897,-0.80036 0.81134,-2.5863 1.20531,-3.96875 0.39394,-1.38245 1.6697,-4.7162 2.83501,-7.40833 4.63701,-10.7125 5.10966,-12.032632 6.15749,-17.197922 0.62849,-3.09819 1.2492,-5.04121 3.08515,-9.65729 4.97459,-12.50758 12.68888,-21.24257 23.35903,-26.44975 5.44462,-2.65704 10.75232,-3.99832 21.444737,-5.41916 16.21396,-2.15457 19.26733,-2.15372 35.58646,0.01 11.14523,1.47767 14.6798,2.28471 19.78662,4.51789 9.90899,4.33311 17.50367,11.62915 22.55597,21.66903 2.64456,5.25525 4.53472,10.42441 5.79221,15.84039 1.23348,5.31261 1.99006,7.374962 6.19013,16.873892 1.81081,4.09534 4.04321,11.04165 5.97713,18.5984 0.7262,2.83766 1.5481,5.99282 1.82644,7.01146 4.43876,16.24405 5.27643,19.73322 5.49868,22.90396 0.24011,3.42538 -0.17055,5.62434 -1.60261,8.58146 -1.40173,2.89455 -3.35851,5.27082 -7.0285,8.53528 -5.77135,5.13362 -9.77111,7.95418 -15.6356,11.02598 l -3.07388,1.6101 1.11617,1.26845 c 1.27307,1.44676 3.25277,5.09773 4.06403,7.49499 2.05997,6.08708 1.1072,14.11435 -2.27539,19.17054 -4.3978,6.57367 -10.95587,10.35299 -18.05599,10.4054 l -2.77812,0.0205 -0.0711,-5.84556 -0.0711,-5.84555 1.86545,-2.56418 c 4.39531,-6.04171 8.2787,-14.39659 10.19212,-21.92781 0.23087,-0.90878 0.53258,-2.0853 0.67045,-2.61449 0.20963,-0.80461 0.47781,-1.07359 1.63764,-1.64252 1.87185,-0.91821 4.19327,-3.28768 5.31662,-5.42669 5.15606,-9.8178 7.42955,-29.96738 5.19877,-46.07591 -0.131,-0.94589 -0.31533,-2.31511 -0.40968,-3.04271 -0.33841,-2.61019 -1.47093,-7.74131 -2.54029,-11.50937 -3.48832,-12.29169 -10.8071,-23.692312 -19.90291,-31.003252 -3.43072,-2.75749 -6.59924,-4.85694 -9.69119,-6.42132 -1.38245,-0.69946 -2.6326,-1.36214 -2.77812,-1.47262 -0.67154,-0.50987 -6.87385,-2.76421 -9.84676,-3.579 -19.09088,-5.23223 -39.05491,-2.7612 -55.257837,6.83949 -8.59911,5.09522 -16.62152,13.92569 -21.67911,23.862742 -5.40226,10.61431 -8.37218,24.60185 -8.38022,39.46869 -0.003,5.55259 0.0949,7.0785 0.87106,13.58027 0.60801,5.09286 1.23213,8.22202 2.48036,12.43541 2.08923,7.05224 4.09109,10.16876 7.80227,12.14681 1.40258,0.74756 1.61047,0.96531 1.8656,1.95402 1.11028,4.30266 1.70405,6.34437 2.2473,7.7273 0.34298,0.87312 0.91511,2.37048 1.2714,3.32746 1.40824,3.78233 3.74605,8.04136 7.19854,13.11434 l 2.24907,3.30471 -0.0712,5.71011 -0.0713,5.71011 -0.92604,0.0398 c -0.50933,0.0219 -1.69995,-0.0338 -2.64584,-0.1238 z"
       id="path3003" />
  </g>
</svg>
