<?xml version="1.0" encoding="UTF-8" standalone="no"?>
<!-- Created with Inkscape (http://www.inkscape.org/) -->

<svg
   width="333.22452mm"
   height="333.22452mm"
   viewBox="0 0 333.22451 333.22452"
   version="1.1"
   id="svg4499"
   xmlns="http://www.w3.org/2000/svg"
   xmlns:svg="http://www.w3.org/2000/svg">
  <defs
     id="defs4496" />
  <g
     id="layer1"
     transform="translate(-6.9709143,-76.080368)">
    <path
       style="fill:#000000;stroke-width:0.264583"
       d="m 36.192985,408.98307 c -3.044663,-0.71731 -5.232574,-3.08102 -5.64638,-6.10005 -0.173651,-1.26693 0.470188,-4.61041 2.565641,-13.32351 3.15138,-13.10373 6.060694,-18.71716 13.35252,-25.76328 8.062682,-7.79097 14.058662,-11.2464 31.60264,-18.2123 2.401093,-0.95335 4.484687,-1.81962 4.630208,-1.92503 0.145521,-0.10541 1.693333,-0.76374 3.439583,-1.46296 5.983314,-2.39583 26.127733,-11.13729 29.441803,-12.77593 1.16705,-0.57709 2.05888,-1.2006 2.1826,-1.52601 0.11504,-0.30261 0.64455,-2.56559 1.17663,-5.02881 2.5867,-11.97446 2.57058,-11.91294 3.66249,-13.97637 0.82884,-1.56628 2.04997,-2.61933 2.73331,-2.3571 0.20148,0.0773 1.16818,0.97571 2.14828,1.99642 1.84285,1.91923 5.13916,4.69908 5.57212,4.69908 0.32695,0 0.96653,-2.62724 1.51366,-6.21771 0.49514,-3.24921 0.635,-10.90841 0.28392,-15.55053 l -0.21555,-2.85054 -2.45084,-2.87139 c -5.81337,-6.81097 -10.27615,-13.66483 -13.11047,-20.13483 -0.60563,-1.38245 -1.26413,-2.87744 -1.46339,-3.32221 -0.37499,-0.83716 -3.30181,-9.63271 -3.72062,-11.18109 -0.20698,-0.7653 -0.45675,-0.96456 -1.95707,-1.56137 -7.21434,-2.86983 -11.72112,-11.1776 -13.245384,-24.41658 -0.374835,-3.25554 -0.188568,-8.11072 0.404204,-10.53702 0.554964,-2.27141 1.62428,-4.37087 3.01278,-5.91524 l 1.15711,-1.28697 -0.79751,-2.8382 c -4.559062,-16.225 -4.117737,-35.72634 1.15133,-50.87386 1.65722,-4.7642 4.6345,-10.76002 7.41614,-14.93517 4.99891,-7.50313 12.49392,-14.53412 20.46176,-19.19497 1.6051,-0.93891 2.92079,-1.86376 2.92376,-2.05523 0.003,-0.19147 -0.11407,-0.57136 -0.26009,-0.8442 -0.58023,-1.08416 -1.61234,-5.5671 -1.85666,-8.06428 -0.57298,-5.85625 1.16798,-12.274055 4.78271,-17.63105 1.56192,-2.314715 5.50209,-6.160497 8.05506,-7.862054 7.49379,-4.99465 15.78028,-7.025216 28.575,-7.002166 10.91157,0.01966 17.58592,1.374169 24.87252,5.047684 1.45429,0.733168 3.51491,1.947854 4.5792,2.6993 9.28497,6.555737 13.62043,18.317786 10.76941,29.217226 -0.37703,1.44137 -0.77171,2.77469 -0.87704,2.96294 -0.14062,0.25128 -0.78867,-0.0505 -2.4376,-1.13509 -8.27768,-5.4447 -20.51212,-8.81797 -31.9591,-8.81175 -7.79116,0.004 -13.36532,0.92024 -21.41516,3.51916 -2.22968,0.71986 -2.68894,1.00896 -1.07136,0.6744 7.45943,-1.54281 16.94077,-1.93937 24.286,-1.01577 10.5772,1.32999 19.81242,4.88242 27.71172,10.65958 2.53537,1.85425 2.85377,2.00801 5.49783,2.65506 6.42847,1.57317 13.46562,5.76242 18.56015,11.04898 6.53902,6.78549 10.94719,15.31966 13.71751,26.55689 1.55448,6.30538 2.01916,10.02184 2.1731,17.37976 0.20095,9.60473 -0.62161,17.15085 -2.73521,25.09246 -0.52284,1.96453 -1.01105,3.83625 -1.08493,4.15938 -0.0975,0.4264 0.16653,0.92928 0.96272,1.83377 3.67331,4.17313 4.53575,11.59664 2.52068,21.6974 -0.86156,4.31871 -1.77077,7.10926 -3.3443,10.26445 -2.41388,4.84012 -5.20888,7.63626 -9.00592,9.00953 -1.13056,0.40889 -1.68685,0.75754 -1.74461,1.09341 -0.16941,0.98517 -3.53853,10.51876 -4.59901,13.01376 -1.12604,2.6493 -4.25754,8.87406 -4.81542,9.57204 -0.17446,0.21829 -0.7784,1.17079 -1.3421,2.11667 -1.14747,1.92543 -4.83835,6.97831 -6.28115,8.59896 -3.34727,3.7599 -3.85898,4.45758 -4.02339,5.48578 -0.46162,2.88693 -0.68059,9.52604 -0.42553,12.90276 0.34759,4.60142 1.52265,10.84792 2.04071,10.84792 0.0768,0 0.4786,-0.26789 0.89281,-0.59532 0.41418,-0.32742 1.30193,-1.01203 1.97276,-1.52135 0.67082,-0.50932 1.99694,-1.78925 2.94693,-2.84427 0.94996,-1.05503 1.86798,-1.91823 2.04004,-1.91823 0.17203,0 0.74919,0.3597 1.28257,0.79936 1.5335,1.26405 2.36164,3.34864 3.36132,8.46106 1.11455,5.69991 2.77249,12.09347 3.27824,12.64208 0.55435,0.60129 3.26522,1.99607 6.53415,3.3619 0.94588,0.39521 2.37463,1.01809 3.175,1.38419 2.37439,1.08604 12.71778,5.54149 18.12395,7.80693 2.7649,1.15864 5.50334,2.31537 6.08542,2.57051 0.58208,0.25514 2.30849,0.96972 3.83646,1.58797 1.52797,0.61826 3.01625,1.22526 3.30729,1.3489 0.29104,0.12367 2.85089,1.19581 5.68854,2.38252 6.55574,2.74164 10.39281,4.69731 14.55209,7.41678 4.03169,2.63607 6.37211,4.57938 10.22834,8.49278 3.51522,3.56735 6.32047,7.23633 7.75277,10.13981 1.95617,3.96544 4.32355,11.8265 6.49395,21.56354 1.42791,6.40604 1.13308,8.60938 -1.46637,10.95783 -2.27515,2.05544 4.76663,1.85962 -70.30296,1.95508 l -67.27032,0.0856 0.005,-10.93103 c 0.003,-6.01204 0.11139,-11.94302 0.24177,-13.17995 0.26483,-2.51185 1.56255,-7.94774 4.29525,-17.99167 3.11536,-11.45045 5.15461,-19.90235 6.83072,-28.31041 1.79948,-9.02708 2.35582,-10.62681 4.45035,-12.79721 1.69632,-1.75776 3.48405,-2.868 7.13575,-4.43158 2.79969,-1.19878 5.27881,-2.43793 7.66739,-3.83247 0.50827,-0.29675 0.80494,-0.64921 0.72501,-0.86135 -0.36861,-0.97845 -1.47209,-5.75024 -1.8443,-7.97531 -0.74293,-4.44135 -1.02907,-12.17141 -0.51173,-13.82448 0.2042,-0.65253 -0.15836,-0.57523 -1.08138,0.23056 -4.84635,4.23077 -10.0706,7.48839 -15.38743,9.59493 -8.32884,3.29994 -18.4346,3.84683 -26.91537,1.45661 -3.3959,-0.9571 -7.66538,-2.68614 -9.95241,-4.03051 -2.63766,-1.55047 -6.88226,-4.45521 -8.93101,-6.11182 -0.9103,-0.73601 -1.7096,-1.3382 -1.7763,-1.3382 -0.0667,0 -0.0504,1.33945 0.0361,2.97656 0.25905,4.90025 -0.74483,13.15961 -2.10749,17.33944 -0.43841,1.34483 -0.53996,1.98874 -0.33954,2.15315 0.6196,0.50835 6.2217,3.36556 8.16218,4.1629 4.75311,1.95305 7.45927,3.98196 8.86011,6.64274 1.07561,2.04306 1.43454,3.39915 2.84652,10.75454 1.06725,5.55964 4.15049,18.40638 6.03824,25.15921 0.36613,1.30968 0.98298,3.57187 1.3708,5.02708 0.38783,1.45521 1.37131,5.14615 2.18551,8.20208 l 1.48037,5.55625 0.0967,13.16302 0.0967,13.16302 -66.62253,-0.0266 c -37.73358,-0.0151 -67.054522,-0.12835 -67.618804,-0.2613 z M 181.38719,300.57918 c 7.19836,-1.69124 12.59536,-4.66113 20.24063,-11.13813 4.11226,-3.48387 10.18418,-9.81528 12.83912,-13.38779 2.49525,-3.35768 3.73758,-5.35973 5.99254,-9.65729 2.73651,-5.21527 5.83658,-13.22395 7.22043,-18.65313 0.79182,-3.10653 1.27468,-3.62381 3.71353,-3.97813 2.1834,-0.31721 3.233,-0.88362 4.75597,-2.56656 1.75781,-1.94244 3.28255,-4.98635 4.34779,-8.67972 2.49904,-8.66463 2.35376,-16.99836 -0.34335,-19.69547 -0.83391,-0.83392 -1.74837,-0.85065 -2.50447,-0.0458 -0.76462,0.81389 -2.75423,5.30865 -4.13393,9.33889 l -1.09982,3.21279 -0.32131,-4.76556 c -0.53469,-7.93048 -1.68423,-12.54454 -4.58171,-18.39033 -2.27436,-4.58858 -4.61055,-7.18485 -11.72958,-13.03536 -3.03885,-2.49736 -8.39142,-7.90938 -10.85954,-10.98015 -5.13154,-6.38454 -9.70917,-14.93376 -11.24143,-20.99464 l -0.29093,-1.15089 -1.50405,2.20422 c -1.98324,2.90648 -6.16286,7.22109 -9.18861,9.48538 -6.91378,5.17384 -14.18117,8.48744 -31.0769,14.16967 -9.69431,3.2603 -16.02399,6.1588 -20.57252,9.42063 -5.96897,4.28043 -10.61646,10.59162 -12.85756,17.46028 -1.31265,4.0231 -2.55211,11.64267 -2.55293,15.6942 -1.9e-4,0.88807 -0.0986,1.46471 -0.22588,1.32292 -0.12404,-0.13825 -0.67524,-1.50151 -1.22489,-3.02948 -2.73889,-7.61385 -4.34247,-10.58333 -5.71521,-10.58333 -0.94324,0 -1.70254,0.77425 -2.55677,2.60704 -0.56111,1.20388 -0.67956,1.91848 -0.78939,4.7625 -0.16412,4.25015 0.36505,8.32977 1.65145,12.73156 1.20698,4.13003 2.50203,6.80972 4.17653,8.64189 1.8927,2.07091 2.53079,2.43723 4.99205,2.86579 2.52301,0.43933 2.89325,0.74169 3.51888,2.87385 3.34899,11.4134 5.40022,16.49777 9.26478,22.9644 4.82682,8.07679 8.97155,12.96028 16.16739,19.04911 8.54453,7.23003 13.61938,10.16464 20.28026,11.72743 3.83712,0.90027 3.79569,0.8965 9.06568,0.82411 3.74862,-0.0515 5.26944,-0.18452 7.14375,-0.62489 z"
       id="path4641" />
  </g>
</svg>
