<?xml version="1.0" encoding="UTF-8" standalone="no"?>
<!-- Created with Inkscape (http://www.inkscape.org/) -->

<svg
   width="359.09619mm"
   height="359.09619mm"
   viewBox="0 0 359.09619 359.09619"
   version="1.1"
   id="svg2323"
   xmlns="http://www.w3.org/2000/svg"
   xmlns:svg="http://www.w3.org/2000/svg">
  <defs
     id="defs2320" />
  <g
     id="layer1"
     transform="translate(23.044807,-92.65805)">
    <path
       style="fill:#000000;stroke-width:0.264583"
       d="m 146.3394,451.57637 c -14.87782,-0.60201 -32.12185,-2.98379 -46.831249,-6.46841 -4.880425,-1.15617 -12.616656,-3.21193 -13.361458,-3.55057 -0.291042,-0.13235 -2.196042,-0.73202 -4.233334,-1.33265 -3.935809,-1.16036 -6.954281,-2.15673 -12.303124,-4.06112 -3.237654,-1.15274 -5.11048,-1.89241 -10.451041,-4.12763 -1.455209,-0.60907 -3.062552,-1.26617 -3.571875,-1.46021 -0.509323,-0.19407 -2.116667,-0.88199 -3.571875,-1.52874 -1.455209,-0.64675 -3.41974,-1.51759 -4.365625,-1.93527 -10.034265,-4.43055 -29.147497,-15.06082 -38.6413932,-21.49128 -6.403906,-4.33753 -8.23645499,-5.68335 -11.713815,-8.60266 l -0.745834,-0.62614 2.012587,-5.21271 c 5.274964,-13.66248 10.114764,-23.13916 15.4381832,-30.22912 4.771107,-6.35434 10.042086,-10.79027 16.08306,-13.53508 3.195614,-1.45198 5.883527,-1.99808 9.041516,-1.8369 l 2.725265,0.13909 3.098651,-1.31693 c 1.704261,-0.72433 3.81303,-1.59012 4.686155,-1.924 0.873125,-0.33388 3.611562,-1.40888 6.085416,-2.38887 2.473854,-0.98002 5.626655,-2.19329 7.006219,-2.69616 1.379591,-0.50289 4.177559,-1.56369 6.217709,-2.35736 2.040175,-0.79369 4.364249,-1.6952 5.164613,-2.00338 3.554518,-1.36869 13.710893,-5.7553 17.330208,-7.48506 7.008469,-3.3495 8.788051,-4.81823 12.357971,-10.19936 2.37226,-3.57583 3.40119,-4.50026 6.15646,-5.53113 1.54522,-0.57814 4.64341,-1.16486 4.88347,-0.9248 0.08,0.0801 -0.43307,1.23797 -1.14031,2.57314 -2.60281,4.91392 -2.89951,5.58598 -3.02008,6.84087 -0.12862,1.33834 0.25291,3.74645 0.91464,5.77317 1.6216,4.96659 5.65158,9.70931 11.55631,13.60009 4.57289,3.01323 10.02117,5.51484 16.04883,7.36899 1.23692,0.38047 3.13793,0.96752 4.22444,1.30458 l 1.97548,0.6128 1.14753,3.57187 c 2.54122,7.91014 5.46516,19.18534 7.20434,27.78125 1.17335,5.79927 2.37675,13.74434 2.38451,15.74271 0.01,2.46486 0.45608,2.16815 0.64838,-0.43082 0.75256,-10.17167 5.00589,-29.35965 9.56678,-43.15822 l 1.20213,-3.63697 1.89664,-0.54604 c 9.79872,-2.8211 15.10615,-5.1072 21.07893,-9.07945 3.62051,-2.40786 6.61808,-5.41407 8.73991,-8.76517 1.74992,-2.76371 2.90176,-6.60918 2.90176,-9.68764 0,-1.46189 -0.16243,-1.89718 -2.11891,-5.67869 -1.7058,-3.29699 -2.03981,-4.12578 -1.71321,-4.25111 0.57126,-0.21921 4.69718,0.85746 6.19556,1.61676 1.69622,0.85953 2.81192,2.03538 4.42942,4.6682 2.65298,4.31823 5.59096,7.05753 9.7436,9.08467 8.23034,4.01769 16.33789,7.4376 28.575,12.05342 3.29697,1.24362 5.87539,2.24809 11.64166,4.53522 1.45521,0.57719 3.24115,1.26699 3.96875,1.53289 0.72761,0.26591 2.75167,1.11086 4.49792,1.87767 l 3.175,1.39422 3.70417,0.0354 c 3.41648,0.0326 3.89937,0.1011 6.21771,0.88191 7.44884,2.50878 14.78047,8.64346 20.28708,16.97505 4.5616,6.90177 9.76471,17.68319 14.24654,29.52039 0.551,1.4552 1.11953,2.79754 1.26344,2.98296 0.14393,0.18542 0.21495,0.37399 0.15783,0.41908 -0.0571,0.0451 -1.05635,0.85783 -2.22052,1.80609 -7.62437,6.21038 -24.13918,16.40761 -38.1,23.52519 -16.2978,8.30906 -31.0751,14.2594 -48.55104,19.55004 -1.52797,0.46257 -3.31391,1.00719 -3.96875,1.21026 -1.17726,0.36507 -7.66397,1.95265 -14.51515,3.55245 -6.28023,1.46651 -12.88629,2.5853 -24.11402,4.08392 -10.12465,1.35139 -26.14072,1.95064 -38.62916,1.44532 z m 9.78958,-74.97339 c 0,-0.89181 -1.64727,-9.04582 -2.64165,-13.07632 -1.00674,-4.08054 -3.47634,-12.83335 -4.54867,-16.12159 -0.93586,-2.86973 -1.07577,-2.99392 -4.63542,-4.1157 -1.28122,-0.40376 -3.46056,-1.09281 -4.84301,-1.53125 -5.30334,-1.6819 -10.86493,-4.24471 -14.73131,-6.78823 -5.59895,-3.68331 -9.52344,-8.63216 -10.64937,-13.42911 -0.53994,-2.30034 -0.43286,-3.38375 0.48712,-4.92839 2.68735,-4.51198 4.15084,-8.58369 4.92493,-13.70196 0.50308,-3.32654 0.78888,-14.36671 0.46691,-18.03709 -0.22622,-2.57909 -0.12393,-2.85038 0.66333,-1.7593 0.51221,0.70984 6.19083,5.43576 8.91651,7.42059 5.75231,4.1888 13.13921,7.89779 16.93334,8.50227 0.94361,0.15034 0.88625,0.1009 -0.52917,-0.45602 -6.04721,-2.37938 -12.86396,-7.07216 -19.83526,-13.65498 -11.01047,-10.3969 -14.85537,-16.68701 -19.41186,-31.75713 -0.72599,-2.4011 -1.50133,-5.18729 -1.723,-6.19155 -0.22166,-1.00425 -0.5462,-1.9144 -0.72117,-2.02254 -0.17497,-0.10814 -0.78888,-0.27189 -1.36427,-0.3639 -1.90683,-0.30491 -3.826802,-1.60405 -5.164588,-3.49457 -1.414198,-1.99849 -2.780797,-6.4774 -4.793033,-15.70869 -2.113148,-9.69418 -2.05912,-12.38301 0.323162,-16.08069 l 0.878787,-1.36401 0.173382,-6.42505 c 0.229499,-8.50487 0.699981,-11.09242 3.727582,-20.50015 3.632018,-11.28579 5.493778,-15.80363 8.838618,-21.44815 3.53676,-5.96838 6.77614,-10.07023 10.76124,-13.62639 7.38534,-6.59042 17.34579,-11.26948 28.12105,-13.21024 3.01487,-0.54302 4.16144,-0.60466 11.03728,-0.59329 7.23294,0.012 7.88173,0.0536 11.31448,0.72727 8.81899,1.73055 17.41258,5.5099 24.40427,10.73268 2.23827,1.67198 7.36185,6.90662 9.34955,9.55221 2.89664,3.85534 6.53063,10.35391 8.61375,15.40368 1.51284,3.66734 5.59906,16.00853 6.4651,19.52588 1.22327,4.9681 1.39829,6.44198 1.58967,13.38525 l 0.17568,6.37379 0.80613,1.29913 c 2.45862,3.96217 2.53392,6.33523 0.50718,15.9835 -1.55985,7.42569 -2.24512,10.09823 -3.22244,12.5677 -1.8016,4.55214 -3.57809,6.32792 -6.87303,6.87025 -0.6101,0.10042 -1.24166,0.34213 -1.40351,0.53714 -0.16184,0.19501 -0.52146,1.30578 -0.79914,2.46838 -2.54487,10.65497 -6.39369,20.17719 -10.44554,25.84298 -5.81274,8.12806 -18.99116,19.81628 -26.32562,23.34874 -1.38171,0.66547 -3.40577,1.54228 -4.49792,1.94847 -2.17209,0.80785 -2.00286,1.01336 0.28139,0.34168 7.62981,-2.24354 17.14331,-8.09519 24.66919,-15.17379 l 1.81351,-1.70574 -0.21968,3.82241 c -0.48581,8.45275 0.0498,16.89021 1.3726,21.62196 0.3791,1.35609 1.52789,4.0556 2.78403,6.54211 l 2.1386,4.23333 -0.27784,1.71979 c -0.6944,4.29845 -2.40551,7.40097 -6.04515,10.96081 -5.00171,4.89207 -12.64592,8.72244 -24.54484,12.29892 -2.99344,0.89974 -3.5107,1.30786 -4.34202,3.42588 -1.41732,3.61093 -4.95181,17.30409 -6.54151,25.34264 -0.92069,4.65561 -1.40835,6.20217 -1.40835,4.46638 z M 97.391484,264.347 c -0.717074,-0.35821 -1.143794,-0.90214 -1.891004,-2.41031 -0.530727,-1.07123 -1.148609,-2.13135 -1.373081,-2.35582 -0.658839,-0.65885 -1.918176,-0.43457 -4.011798,0.71449 -2.656972,1.45822 -4.197217,1.77233 -6.013185,1.22627 -2.703089,-0.81281 -3.379682,-1.8322 -3.379682,-5.09199 0,-4.06441 -0.634153,-4.68839 -5.182631,-5.09942 -3.447521,-0.31155 -4.269608,-0.53216 -5.647399,-1.51555 -1.515877,-1.08195 -2.257849,-2.52831 -2.215542,-4.31882 0.04233,-1.79087 0.667253,-3.27744 2.576619,-6.12935 0.810207,-1.21017 1.47312,-2.48066 1.47312,-2.8233 0,-1.14894 -0.8441,-2.09479 -2.88835,-3.23656 -3.908928,-2.18325 -4.303078,-2.53606 -4.810786,-4.30641 -0.437674,-1.52602 0.437065,-2.6612 6.211834,-8.06143 5.624592,-5.25977 6.881865,-6.60763 9.148101,-9.80735 4.259738,-6.01432 6.36397,-12.63724 7.155418,-22.52102 0.319564,-3.99108 1.402926,-11.83907 2.004271,-14.51944 1.380385,-6.15267 1.766068,-7.63424 2.935764,-11.27743 2.895468,-9.01829 7.314935,-17.24083 12.727697,-23.68021 9.03605,-10.74984 19.66868,-17.30206 34.05875,-20.98828 6.60006,-1.6907 10.40432,-2.13442 18.25626,-2.12941 5.76662,0.004 7.47823,0.0983 10.58333,0.58522 10.81839,1.69637 20.7717,5.40769 28.63927,10.67881 4.05987,2.72004 9.90684,8.09287 13.19199,12.12225 1.86748,2.29055 5.21181,7.14227 6.38051,9.25641 0.44243,0.80037 1.11114,2.01544 1.48605,2.70016 0.37489,0.68473 1.32901,2.76832 2.12024,4.63021 4.01355,9.44446 6.13627,19.13378 7.69731,35.13525 0.58873,6.0348 2.48304,12.6264 4.79404,16.68166 2.74968,4.82506 5.48003,7.94578 12.34774,14.11312 5.09328,4.57387 5.96952,6.0914 4.71,8.15712 -0.58057,0.95218 -2.31449,2.31662 -3.6958,2.9083 -2.03415,0.87129 -3.71409,2.46819 -3.71856,3.53471 0,0.22866 0.7112,1.52763 1.58257,2.88662 1.78269,2.78021 2.64901,4.84342 2.64901,6.3088 0,1.38394 -0.99046,3.19493 -2.27835,4.16581 -1.1198,0.84414 -1.83314,1.01099 -7.08178,1.65636 -1.69715,0.20869 -2.21295,0.38497 -2.77813,0.94948 -0.64307,0.64232 -0.70382,0.90522 -0.82733,3.58038 -0.15081,3.2668 -0.45381,3.92927 -2.27282,4.96944 -0.76978,0.44018 -1.46513,0.59207 -2.72534,0.59531 -1.44915,0.004 -2.06449,-0.16645 -4.28932,-1.18627 -2.60244,-1.19292 -3.47985,-1.39043 -4.18748,-0.94262 -0.20852,0.13194 -0.80383,1.10838 -1.32292,2.16986 -1.19155,2.43654 -1.94336,3.00868 -3.93977,2.99825 -1.14851,-0.006 -2.18686,-0.28308 -4.41238,-1.17745 -1.60073,-0.64328 -2.94698,-1.19225 -2.99167,-1.21993 -0.0447,-0.0277 0.56806,-1.99814 1.36162,-4.3788 0.7936,-2.38066 1.78266,-5.74185 2.19792,-7.46931 0.4934,-2.05241 0.89258,-3.18618 1.15192,-3.27172 1.80557,-0.59549 3.80394,-1.78221 4.97771,-2.95599 1.63095,-1.63094 3.38474,-5.05373 4.41836,-8.62312 0.59843,-2.06646 2.28142,-9.49064 3.05657,-13.48346 1.08487,-5.58794 0.78002,-8.73226 -1.24325,-12.82346 l -1.25251,-2.53267 -0.17264,-7.14375 -0.17267,-7.14375 -1.47981,-5.68854 c -2.76821,-10.64118 -6.54751,-20.82099 -10.06838,-27.11979 -6.43136,-11.50566 -13.56521,-18.47552 -24.50803,-23.94462 -7.82969,-3.91319 -16.08019,-5.95704 -25.28139,-6.26279 -12.8279,-0.42626 -24.14482,2.28991 -34.43849,8.26556 -9.04149,5.24875 -15.07883,11.56387 -20.67393,21.62512 -3.7575,6.75689 -7.434681,16.64295 -10.205239,27.43683 -1.348237,5.25268 -1.812501,8.88367 -1.674521,13.09656 0.162348,4.95625 -0.116364,6.83931 -1.371706,9.26828 -2.353336,4.55335 -2.428822,7.51649 -0.431324,16.92548 1.738948,8.19113 2.612337,11.28334 3.969385,14.05376 1.819831,3.71521 4.046061,5.88558 6.890725,6.71777 l 1.06699,0.31215 0.74499,2.9238 c 0.40976,1.60809 1.3826,4.90098 2.16188,7.31754 0.77928,2.41655 1.45217,4.50979 1.49532,4.65164 0.11099,0.36498 -6.34442,2.76649 -7.462203,2.77605 -0.509323,0.004 -1.34276,-0.20025 -1.852083,-0.45469 z M 79.164391,200.03248 c -3.216274,-7.28654 -4.136628,-11.05321 -4.116175,-16.846 0.01588,-4.53828 0.141393,-5.19956 2.157333,-11.37709 1.921774,-5.88902 2.190088,-7.80196 2.19239,-15.63061 0.0029,-10.12392 0.666274,-14.56527 2.881074,-19.29155 1.348158,-2.8769 2.635065,-4.71785 5.626947,-8.04958 5.301218,-5.90333 6.454113,-7.38439 8.157607,-10.47959 2.686473,-4.88119 4.150043,-6.96364 6.597463,-9.38721 3.54108,-3.50658 7.16148,-5.17135 15.44558,-7.10232 3.02472,-0.70505 4.61081,-1.45527 7.19841,-3.404813 4.36893,-3.29165 9.27997,-5.008176 16.18628,-5.657514 3.80678,-0.357915 7.66974,-0.07991 13.49839,0.971443 4.96435,0.895446 9.11658,1.434884 11.04434,1.434821 0.88238,-2.8e-5 3.09261,-0.250028 4.91162,-0.555555 8.18136,-1.374169 12.10881,-0.544312 17.99166,3.801592 3.14722,2.324966 4.41529,2.911236 8.79632,4.066776 6.29864,1.66133 9.63038,3.45547 13.05684,7.03109 2.33198,2.43351 3.80124,4.53497 6.06515,8.6749 1.93394,3.53657 2.71658,4.57387 6.9868,9.26041 4.04923,4.44403 6.04181,7.28357 7.33234,10.44899 1.65039,4.04806 1.94609,6.28374 2.20507,16.67081 0.26238,10.525 0.38137,11.3669 2.42691,17.17224 1.59425,4.52455 2.07849,7.19488 2.07849,11.462 0,3.95742 -0.6023,7.24958 -2.16741,11.847 -1.34493,3.95063 -3.57598,8.78627 -3.89819,8.44899 -0.37907,-0.39678 -2.08992,-6.06379 -2.53942,-8.41153 -0.22685,-1.18477 -0.58989,-4.35678 -0.80679,-7.04891 -1.34218,-16.65961 -5.16705,-30.15137 -11.80817,-41.65195 -5.64433,-9.77438 -14.70096,-18.62918 -24.44046,-23.89578 -7.16375,-3.87376 -16.37909,-6.92326 -24.58643,-8.13603 -3.17381,-0.46899 -10.21681,-0.93307 -11.90625,-0.78454 -0.58209,0.0512 -2.60615,0.15434 -4.49792,0.22925 -11.64053,0.46099 -26.13282,5.2402 -35.58646,11.73557 -13.04776,8.9648 -21.914216,21.65749 -27.094282,38.78658 -1.865391,6.16826 -3.628786,16.30611 -4.11816,23.67531 -0.285247,4.29522 -1.15742,9.20959 -2.246048,12.65572 -1.141703,3.61411 -1.136464,3.61525 -3.024849,-0.66292 z"
       id="path2465" />
  </g>
</svg>
