<?xml version="1.0" encoding="UTF-8" standalone="no"?>
<!-- Created with Inkscape (http://www.inkscape.org/) -->

<svg
   width="339.85159mm"
   height="339.85159mm"
   viewBox="0 0 339.85159 339.85159"
   version="1.1"
   id="svg1422"
   xmlns="http://www.w3.org/2000/svg"
   xmlns:svg="http://www.w3.org/2000/svg">
  <defs
     id="defs1419" />
  <g
     id="layer1"
     transform="translate(-17.860953,-133.13282)">
    <path
       style="fill:#000000;stroke-width:0.264583"
       d="m 31.258557,472.52139 c 0.0749,-0.25467 0.63046,-3.02287 1.23469,-6.15157 4.11284,-21.29641 6.51138,-32.73827 9.4012,-44.84687 1.85102,-7.756 4.80104,-18.19815 6.64157,-23.50913 2.71632,-7.83817 7.73353,-18.97562 10.3274,-22.92524 1.18135,-1.79883 5.38472,-6.8924 6.22273,-7.54063 0.18813,-0.14552 1.01329,-0.87 1.83369,-1.60999 3.35488,-3.02597 10.66777,-7.27265 17.9487,-10.423 1.09141,-0.47224 3.53219,-1.57323 5.42396,-2.44664 1.89177,-0.87342 3.8563,-1.77207 4.36563,-1.99701 0.50932,-0.22494 2.5178,-1.16385 4.46325,-2.08648 1.945483,-0.92263 3.573013,-1.6775 3.616723,-1.6775 0.0814,0 3.76648,-1.74215 9.64711,-4.5607 1.81901,-0.87184 5.45041,-2.57138 8.06979,-3.77675 4.99666,-2.29932 9.53519,-4.41438 17.46139,-8.13738 l 4.76136,-2.23646 0.81656,2.05552 c 2.17704,5.48026 5.54318,9.40912 11.48881,13.40941 5.23904,3.5249 12.6886,6.32948 20.90209,7.86916 2.11005,0.39554 4.01224,0.80835 4.22709,0.91736 1.13265,0.57464 4.38036,12.07397 5.8331,20.65359 0.72171,4.26227 1.56914,10.69967 1.57607,11.97239 0.003,0.5457 0.12446,0.99219 0.26998,0.99219 0.14553,0 0.26459,-0.34893 0.26459,-0.77544 0,-1.41251 1.05513,-9.07677 1.87838,-13.64435 1.29453,-7.18212 3.37722,-14.73803 5.0364,-18.2717 0.49874,-1.06223 0.52615,-1.07735 2.54936,-1.40693 12.13139,-1.97614 22.05948,-6.29348 28.33087,-12.31998 3.07578,-2.95567 5.93656,-7.37204 6.67502,-10.30461 0.16904,-0.67141 0.3379,-1.22074 0.37518,-1.22074 0.0373,0 1.48169,0.66912 3.20974,1.48692 1.72807,0.81781 5.40411,2.53155 8.16901,3.8083 2.76489,1.27676 7.11067,3.29736 9.65729,4.49023 2.54661,1.19286 5.93989,2.76558 7.54062,3.49492 1.60073,0.72933 4.10104,1.9237 5.55625,2.65414 1.45521,0.73044 3.65787,1.77863 4.89479,2.32932 1.23693,0.55068 3.76325,1.72676 5.61406,2.6135 1.85079,0.88674 3.41617,1.61225 3.47861,1.61225 0.0624,0 1.50749,0.66254 3.21123,1.47231 1.70373,0.80977 5.31756,2.48439 8.03076,3.72139 6.29349,2.86934 9.34768,4.49948 12.33326,6.58278 4.90784,3.4246 8.89238,7.39163 11.77436,11.72262 1.44864,2.17697 4.43534,7.91221 5.81239,11.16132 0.46254,1.09141 0.94935,2.2225 1.08177,2.51354 1.77158,3.8939 5.91836,15.64921 7.14005,20.24063 1.00499,3.77695 4.19875,16.34709 4.33597,17.06562 0.0556,0.29104 0.70601,3.14854 1.44539,6.35 1.21388,5.25597 1.84917,8.29196 4.4845,21.43125 1.23484,6.15664 2.36664,12.12927 2.95817,15.61042 0.29673,1.74625 0.60508,3.38335 0.68525,3.63802 0.13867,0.44061 -7.43559,0.46302 -156.52327,0.46302 -149.084013,0 -156.662393,-0.0225 -156.532893,-0.46302 z M 181.83833,349.70083 c -15.11681,-1.89933 -26.40076,-7.09175 -32.43014,-14.92307 -1.26436,-1.64225 -1.36361,-1.86667 -1.04857,-2.37115 0.94782,-1.51771 1.67865,-3.14374 2.39258,-5.32322 1.38385,-4.22475 1.64621,-6.1217 1.77985,-12.86915 l 0.12353,-6.23787 1.89138,2.00454 c 4.84539,5.13531 11.43637,10.13867 17.1105,12.98896 5.28526,2.65494 9.31619,3.68396 15.20795,3.88231 4.61047,0.15521 7.63612,-0.24041 11.70432,-1.53043 6.8961,-2.18671 16.57022,-8.75772 22.65826,-15.39027 l 1.88534,-2.05397 1.6e-4,5.89043 c 8e-5,3.8516 0.12583,6.57727 0.36327,7.8748 0.59296,3.24042 1.85163,7.13829 3.00744,9.31334 l 1.08257,2.03729 -0.74173,1.13771 c -1.10834,1.69998 -4.80844,5.2187 -7.03755,6.69259 -10.33939,6.83639 -25.66273,10.42087 -37.94916,8.87716 z m 1.32292,-26.08482 c -4.70411,-0.69364 -9.48928,-2.64392 -14.41979,-5.87701 -9.59543,-6.29204 -17.3169,-14.81408 -22.83307,-25.20042 -3.55761,-6.69865 -8.23476,-20.36566 -10.09589,-29.50104 -1.44809,-7.10798 -2.14019,-14.20294 -1.88407,-19.31459 0.33369,-6.65973 1.64542,-15.65901 2.93097,-20.10833 0.21024,-0.7276 0.75989,-2.6326 1.22148,-4.23333 0.96816,-3.35748 1.86978,-5.69433 3.41982,-8.86354 1.28585,-2.62905 4.20777,-7.40834 4.52924,-7.40834 0.12208,0 0.22193,-0.17859 0.22193,-0.39687 0,-0.21828 0.0934,-0.39688 0.20754,-0.39688 0.11414,0 0.4182,-0.35665 0.6757,-0.79255 0.58195,-0.98515 6.06216,-6.53595 7.31885,-7.41311 0.50932,-0.3555 1.18819,-0.88709 1.50862,-1.18129 1.03836,-0.95343 1.37449,-1.19638 1.65521,-1.19638 0.15166,0 0.27575,-0.11906 0.27575,-0.26458 0,-0.14552 0.16867,-0.26459 0.37484,-0.26459 0.20613,0 0.41449,-0.0953 0.46302,-0.21183 0.13734,-0.32989 4.11419,-2.66967 4.85253,-2.85498 0.36277,-0.091 0.65961,-0.25265 0.65961,-0.3591 0,-0.10646 0.50602,-0.35156 1.12448,-0.54469 0.61846,-0.19312 1.48167,-0.55247 1.91823,-0.79855 1.08704,-0.61275 5.45539,-1.98443 8.99583,-2.82475 4.44847,-1.05583 12.42962,-1.44718 17.4625,-0.85627 4.25289,0.49933 10.22554,1.88721 12.41623,2.88518 0.64942,0.29585 1.30376,0.53791 1.45407,0.53791 0.15031,0 1.16338,0.41672 2.25124,0.92604 1.08789,0.50932 2.10251,0.92604 2.25478,0.92604 0.15224,0 0.2768,0.11907 0.2768,0.26459 0,0.14552 0.23813,0.26458 0.52917,0.26458 0.29104,0 0.53054,0.0893 0.53221,0.19844 0.003,0.10914 0.49863,0.43603 1.1044,0.72643 1.08093,0.5182 3.9193,2.41096 5.93955,3.9608 1.25754,0.96471 5.97826,5.69031 7.24051,7.24796 0.50932,0.62853 1.07487,1.30224 1.25677,1.49713 0.1819,0.1949 0.33073,0.472 0.33073,0.61579 0,0.14379 0.10295,0.30112 0.22878,0.34963 0.46313,0.17855 2.96603,4.20002 4.35496,6.99726 4.37521,8.81145 7.19567,20.6342 7.80736,32.72682 0.46254,9.14394 -0.74364,17.44529 -4.3324,29.81724 -4.45365,15.35354 -9.15212,24.68131 -16.65605,33.06676 -4.24555,4.74429 -7.75787,7.87972 -12.39543,11.06529 -2.89314,1.98731 -7.47493,4.51982 -9.43711,5.2162 -5.18827,1.8413 -10.39273,2.3614 -15.7399,1.57293 z M 133.0076,272.0987 c -3.55931,-3.46853 -7.01127,-8.32172 -8.56483,-12.0415 -1.35019,-3.23283 -1.85123,-6.27138 -2.84615,-17.26029 -0.44894,-4.95885 -0.45021,-19.68785 -0.003,-24.07708 0.64117,-6.27966 1.70426,-13.17201 2.46899,-16.00729 0.15698,-0.58209 0.33718,-1.35599 0.40042,-1.71979 0.38658,-2.22418 2.89748,-10.27848 3.90596,-12.52925 0.20508,-0.45772 0.81098,-1.90377 1.34647,-3.21346 1.48394,-3.62943 3.21008,-7.12831 4.65082,-9.42719 0.71572,-1.14202 1.3013,-2.14981 1.3013,-2.23954 0,-0.0897 0.29765,-0.51688 0.66146,-0.94923 0.3638,-0.43236 0.66146,-0.90516 0.66146,-1.05068 0,-0.14552 -0.27536,0.072 -0.61191,0.48332 -1.14186,1.39569 -3.62143,5.06033 -3.62143,5.35225 0,0.15974 -0.097,0.29044 -0.2155,0.29044 -0.11851,0 -0.49329,0.50602 -0.8328,1.12448 -1.42156,2.58948 -1.82833,3.31062 -2.61837,4.64185 -0.45718,0.77039 -0.83124,1.44791 -0.83124,1.5056 0,0.0577 -0.58288,1.33237 -1.29527,2.83263 -4.03596,8.4993 -6.4511,17.50043 -8.11506,30.2444 -0.49848,3.81764 -0.8137,18.58887 -0.44464,20.83594 0.13743,0.83674 0.16894,1.52135 0.07,1.52135 -0.52406,0 -3.142,-6.66897 -4.15456,-10.58333 -0.79558,-3.07561 -0.93663,-4.08653 -1.01518,-7.27604 -0.0806,-3.27319 0.0789,-5.65329 0.52316,-7.80521 0.0751,-0.3638 0.26926,-1.3163 0.43148,-2.11667 0.30959,-1.52758 0.42794,-1.99458 1.91109,-7.54062 1.41184,-5.27949 2.17498,-8.92848 3.49004,-16.68751 1.53286,-9.04422 2.73925,-14.13784 4.04984,-17.09941 0.27699,-0.62594 0.78338,-1.85246 1.1253,-2.72558 0.34189,-0.87313 0.70718,-1.70775 0.81177,-1.85472 0.10456,-0.14697 0.6845,-1.21706 1.28876,-2.37799 0.60423,-1.16092 1.18858,-2.17177 1.29852,-2.24632 0.10993,-0.0745 0.77914,-1.02852 1.48714,-2.11993 1.38827,-2.14009 1.53824,-2.34336 2.44017,-3.308 0.32743,-0.35018 0.59532,-0.70863 0.59532,-0.79656 0,-0.39432 5.38818,-5.85574 6.87916,-6.97267 0.50933,-0.38155 0.98558,-0.76178 1.05834,-0.84498 0.0728,-0.0832 0.7276,-0.55318 1.4552,-1.04443 0.72761,-0.49125 1.36261,-0.98941 1.41111,-1.10702 0.0485,-0.11761 0.24696,-0.21384 0.44098,-0.21384 0.19402,0 0.39245,-0.11031 0.44098,-0.24515 0.11832,-0.32722 4.99427,-3.19443 5.43301,-3.19443 0.18939,0 0.34525,-0.0893 0.34639,-0.19844 0.005,-0.44942 5.80964,-2.94933 10.44898,-4.49985 5.76043,-1.92521 11.21293,-3.13942 18.38854,-4.09491 3.69956,-0.49262 15.19848,-0.41695 18.78541,0.12363 7.53801,1.13604 11.75269,2.09659 17.19792,3.91949 3.36796,1.12749 8.11069,3.0829 9.78736,4.03528 0.51054,0.29 1.46404,0.81094 2.11889,1.15765 1.40988,0.74648 2.19932,1.22005 2.38125,1.42853 0.0728,0.0834 0.31088,0.21808 0.52916,0.29935 0.41847,0.1558 4.92509,3.35126 6.05052,4.29016 1.08035,0.90131 4.58248,4.20593 5.1743,4.88249 0.30202,0.34526 0.89294,1.0001 1.31313,1.4552 0.42018,0.45511 1.07503,1.24418 1.4552,1.7535 0.38018,0.50932 0.81582,1.05914 0.96812,1.22182 0.75705,0.80872 4.6179,7.26628 4.6179,7.72377 0,0.17316 0.11906,0.31483 0.26458,0.31483 0.14552,0 0.26459,0.12925 0.26459,0.28722 0,0.15797 0.34618,1.02118 0.7693,1.91823 2.23769,4.74418 3.4767,9.15595 4.65643,16.57996 1.47116,9.25814 2.67607,15.05859 4.47934,21.56354 0.82532,2.97717 1.21798,4.60282 2.0451,8.46667 0.20349,0.95058 0.34247,3.49824 0.34639,6.35 0.007,4.82477 -0.29715,7.19617 -1.35578,10.58333 -0.50816,1.62586 -3.56063,8.92356 -3.68183,8.80235 -0.0482,-0.0482 0.0373,-1.69129 0.19013,-3.65126 0.24362,-3.12512 0.1375,-12.33874 -0.16907,-14.67609 -0.0573,-0.43656 -0.19228,-1.74625 -0.30001,-2.91041 -0.10777,-1.16417 -0.2104,-2.1762 -0.22813,-2.24896 -0.0177,-0.0728 -0.12242,-0.84667 -0.23273,-1.71979 -1.08537,-8.59189 -4.22092,-19.76438 -7.54893,-26.898 -0.45228,-0.96943 -0.8223,-1.88224 -0.8223,-2.02848 0,-0.14624 -0.0893,-0.30557 -0.19843,-0.35408 -0.10914,-0.0485 -0.53907,-0.7923 -0.95541,-1.65287 -0.41633,-0.86057 -1.22,-2.32118 -1.78594,-3.2458 -0.56592,-0.92463 -1.02897,-1.73981 -1.02897,-1.81153 0,-0.23966 -5.07029,-7.79325 -5.34521,-7.96316 -0.14902,-0.0921 0.16867,0.51978 0.70601,1.35977 0.53732,0.83998 1.08807,1.77808 1.22388,2.08465 0.13579,0.30658 0.46239,0.9146 0.72573,1.35116 0.98975,1.64069 2.41099,4.40103 3.36185,6.52944 0.54102,1.211 1.25619,2.79713 1.58927,3.52473 0.33311,0.72761 1.25701,3.23044 2.05314,5.56187 2.61932,7.67045 3.98828,13.84133 5.34001,24.07146 0.81018,6.13156 1.01139,17.8782 0.4328,25.26771 -0.85471,10.91605 -1.39975,14.76175 -2.54021,17.92334 -0.94041,2.60703 -3.46054,6.81642 -5.63721,9.41588 -1.15475,1.37901 -5.35959,5.54736 -5.47725,5.4297 -0.06,-0.06 0.18214,-1.11088 0.53811,-2.33528 0.35595,-1.22439 0.81677,-3.00667 1.02399,-3.96063 0.20725,-0.95396 0.62336,-2.86556 0.92469,-4.24801 1.64016,-7.52455 2.30085,-17.20843 1.63367,-23.945 -0.88355,-8.92155 -3.07813,-19.02821 -5.51534,-25.39979 -1.17888,-3.08194 -3.73364,-8.2342 -4.49678,-9.0688 -0.1819,-0.19894 -0.33073,-0.53179 -0.33073,-0.73968 0,-0.20789 -0.0941,-0.37798 -0.20899,-0.37798 -0.11497,0 -0.55669,-0.59531 -0.98163,-1.32291 -0.425,-0.72761 -0.86672,-1.32292 -0.98168,-1.32292 -0.11494,0 -0.209,-0.17859 -0.209,-0.39688 0,-0.21828 -0.0934,-0.39687 -0.20754,-0.39687 -0.11414,0 -0.4051,-0.33444 -0.64656,-0.74319 -0.24143,-0.40876 -1.21962,-1.55117 -2.17371,-2.5387 -0.95406,-0.98753 -1.73469,-1.84236 -1.73469,-1.89962 0,-0.21622 -0.9207,-1.16849 -1.12974,-1.16849 -0.1201,0 -0.78992,-0.56555 -1.48847,-1.25677 -1.9775,-1.95673 -2.63422,-2.48267 -5.187,-4.15397 -5.81324,-3.80593 -12.06111,-6.47412 -18.52083,-7.90942 -5.09998,-1.13318 -7.34039,-1.36422 -13.22917,-1.36422 -7.29466,0 -12.56641,0.84931 -18.84703,3.03636 -1.2758,0.44426 -2.43869,0.84218 -2.58421,0.88426 -0.6758,0.19544 -6.6248,3.21984 -6.70277,3.40762 -0.0485,0.11682 -0.20752,0.21239 -0.35335,0.21239 -0.26824,0 -4.85519,3.01448 -5.39819,3.54761 -0.1618,0.15887 -0.69538,0.5865 -1.18573,0.95031 -0.49033,0.3638 -1.41944,1.16747 -2.06465,1.78593 -0.64524,0.61847 -1.27492,1.12448 -1.39933,1.12448 -0.12441,0 -0.22619,0.0968 -0.22619,0.21506 0,0.11829 -0.71438,0.94512 -1.5875,1.83741 -0.87313,0.89229 -1.5875,1.68307 -1.5875,1.75729 0,0.0742 -0.26789,0.42667 -0.59532,0.78323 -0.91969,1.00155 -1.13498,1.29275 -2.80204,3.78999 -0.85645,1.28296 -1.90092,2.98749 -2.32106,3.78786 -0.42013,0.80036 -0.82764,1.51474 -0.90556,1.5875 -0.11888,0.11101 -1.73701,3.68749 -3.06446,6.77323 -0.51969,1.20805 -2.60312,9.50399 -3.38219,13.46739 -0.93461,4.7547 -1.67582,10.46823 -1.88778,14.55208 -0.39396,7.59054 1.03955,18.08403 3.93073,28.77344 0.34438,1.27331 0.5487,2.31511 0.454,2.31511 -0.0947,0 -1.05831,-0.86358 -2.14143,-1.91905 z"
       id="path1564" />
  </g>
</svg>
