<?xml version="1.0" encoding="UTF-8" standalone="no"?>
<!-- Created with Inkscape (http://www.inkscape.org/) -->

<svg
   width="323.96292mm"
   height="323.96292mm"
   viewBox="0 0 323.96292 323.96292"
   version="1.1"
   id="svg4227"
   xmlns="http://www.w3.org/2000/svg"
   xmlns:svg="http://www.w3.org/2000/svg">
  <defs
     id="defs4224" />
  <g
     id="layer1"
     transform="translate(5.772773,-110.8365)">
    <path
       style="fill:#000000;stroke-width:0.264583"
       d="M 56.561572,432.1849 C 42.153502,428.55132 36.978014,426.99753 24.017823,422.41463 16.283335,419.67958 0.61561583,413.02319 0.40167083,412.38137 0.25785083,411.94991 3.5620788,399.15609 5.2644188,393.55303 8.8447918,381.76865 12.28219,373.69169 16.25027,367.7392 c 3.163816,-4.74602 8.050514,-9.29733 12.311512,-11.46656 1.857195,-0.94547 5.001543,-1.89357 7.523118,-2.26838 3.043012,-0.45234 5.692372,-0.18042 8.982572,0.92188 1.946955,0.65231 2.565342,0.76015 3.124295,0.54489 0.383278,-0.14761 3.018607,-1.12496 5.856264,-2.17184 7.481993,-2.76034 24.1536,-9.06721 26.392187,-9.98421 1.055026,-0.43214 1.918229,-0.68294 1.918229,-0.55734 0,0.35928 -1.193165,7.03117 -2.24372,12.54614 -3.499617,18.37193 -7.283503,40.50726 -9.384956,54.90104 -1.317942,9.02703 -2.923407,21.90547 -2.923407,23.45032 0,0.92905 -0.09089,1.15358 -0.463021,1.144 -0.254662,-0.007 -5.106458,-1.18298 -10.781771,-2.61424 z m 188.155628,1.64933 c -0.0809,-0.55414 -0.20852,-1.60284 -0.28355,-2.33045 -0.15711,-1.5235 -0.75809,-6.76203 -1.35835,-11.8401 -0.79324,-6.71055 -3.2063,-22.3619 -5.17046,-33.53594 -0.57552,-3.27422 -1.46354,-8.33437 -1.97334,-11.24479 -1.94527,-11.10514 -3.10351,-17.44834 -4.51035,-24.70137 -0.8005,-4.12691 -1.41044,-7.54848 -1.35544,-7.60349 0.055,-0.055 1.93704,0.62738 4.18233,1.51638 2.24525,0.88903 4.97525,1.94117 6.06665,2.33815 1.09141,0.39696 5.02047,1.88479 8.73125,3.30629 3.71078,1.4215 8.81134,3.34616 11.33457,4.27696 l 4.58769,1.69241 2.31285,-0.79412 c 3.45416,-1.186 5.93797,-1.50606 8.43452,-1.08696 5.19256,0.87175 9.0115,2.50973 12.95241,5.55545 6.75339,5.21936 12.1031,14.53357 17.18498,29.92009 1.80139,5.45404 6.16381,21.68509 6.16381,22.93329 0,0.60907 0.38746,0.41071 -7.01145,3.58984 -16.23478,6.97571 -30.59544,11.74319 -49.60938,16.46941 -11.81605,2.93709 -10.50224,2.74775 -10.67874,1.53895 z M 142.81574,410.84059 c -19.86047,-1.12458 -33.68334,-2.9827 -51.30226,-6.89626 l -2.089785,-0.46418 0.18071,-5.03357 c 0.535279,-14.90927 2.837603,-34.35252 6.252183,-52.80009 0.57912,-3.1287 1.241743,-6.54293 1.472512,-7.58719 l 0.419577,-1.89862 4.806443,-2.90923 c 2.64356,-1.60007 5.08122,-3.12692 5.41706,-3.39301 1.00822,-0.79891 2.1653,-4.96087 3.61968,-13.01995 0.37767,-2.09268 0.86276,-4.14539 1.07797,-4.56157 0.50469,-0.976 1.38906,-1.54192 3.53801,-2.26402 l 1.73707,-0.58371 0.20994,-2.46271 c 0.11549,-1.35448 0.17455,-5.45013 0.13124,-9.10144 l -0.0787,-6.63874 -0.77759,-1.12208 -0.77761,-1.12207 -0.99682,3.07641 c -0.54824,1.69203 -1.66896,4.37008 -2.49049,5.95123 -3.15386,6.07011 -7.1064,9.84424 -13.87306,13.24686 -2.848769,1.4325 -13.543889,5.99028 -14.601825,6.22265 -0.690086,0.15156 -0.777214,0.10944 -0.651193,-0.31485 0.22696,-0.76414 1.125617,-5.76862 2.154714,-11.99921 1.078627,-6.53038 1.655921,-9.11342 2.661047,-11.90625 2.505578,-6.96208 6.488933,-11.4533 14.448237,-16.2904 l 2.55577,-1.55321 -0.78624,-0.99273 c -1.21605,-1.53539 -3.8576,-3.85412 -6.045094,-5.30635 -1.891506,-1.25573 -7.857569,-4.26914 -15.610416,-7.88469 -8.200998,-3.82456 -15.089214,-8.48669 -20.859564,-14.11838 -3.905912,-3.81206 -7.301336,-8.12493 -9.572334,-12.15884 -1.027457,-1.82505 -1.13919,-1.2956 1.598745,-7.57664 0.983218,-2.25558 2.2098,-5.11308 2.725711,-6.35 0.515911,-1.23693 1.434941,-3.43959 2.042265,-4.8948 0.607325,-1.45521 1.910848,-4.4913 2.896738,-6.74687 0.98589,-2.25558 2.951533,-6.83948 4.368086,-10.18646 1.416579,-3.34698 3.504088,-8.22854 4.638939,-10.84792 1.134824,-2.61937 3.032945,-7.08422 4.218014,-9.92187 1.185069,-2.83766 2.326825,-5.51657 2.537248,-5.95313 0.210423,-0.43656 0.806953,-1.80578 1.325642,-3.04271 8.248941,-19.67149 9.751933,-22.79705 13.804609,-28.70729 2.850991,-4.15777 4.574116,-6.18564 8.318451,-9.78958 11.18415,-10.7648 25.76039,-17.0964 45.45745,-19.74572 3.91853,-0.52706 15.49138,-0.45252 19.71146,0.12696 6.75322,0.92731 15.34107,3.01336 21.03437,5.10939 5.84033,2.15016 13.43126,6.35675 18.87133,10.45775 2.49153,1.87825 8.22965,7.54176 10.00246,9.87245 5.52183,7.25937 7.75388,11.66029 16.77403,33.07292 1.40991,3.34698 4.14364,9.77635 6.07491,14.2875 1.93128,4.51114 6.50926,15.22677 10.17331,23.8125 3.66406,8.58573 7.36029,17.21776 8.21386,19.18229 0.85357,1.96453 1.80147,4.2073 2.10643,4.98392 l 0.55448,1.41204 -0.98943,1.63067 c -4.97877,8.20543 -10.73404,14.07722 -19.52617,19.92147 -4.87775,3.24232 -8.28289,5.07966 -14.94896,8.06617 -4.80205,2.15139 -10.36225,5.07155 -12.30312,6.46145 -1.92398,1.3778 -6.07727,5.52812 -5.86912,5.86491 0.0822,0.13304 1.19829,0.88016 2.48015,1.66027 7.09591,4.31845 11.05582,8.4507 13.44303,14.02799 1.7844,4.169 2.45242,6.8925 3.69924,15.08153 0.36558,2.40109 0.97793,5.88835 1.36073,7.74947 0.38282,1.86111 0.61883,3.46108 0.52443,3.55547 -0.176,0.17599 -1.7608,-0.433 -8.23013,-3.16257 -10.08176,-4.25373 -14.72626,-7.34953 -18.30237,-12.1995 -1.60353,-2.17473 -3.63945,-6.27109 -4.86595,-9.79058 -0.54962,-1.57712 -1.05622,-2.9244 -1.12575,-2.99394 -0.0696,-0.0695 -0.4659,0.31859 -0.88077,0.86251 l -0.75433,0.98896 0.033,7.82582 c 0.018,4.3042 0.0983,8.06394 0.1782,8.35498 0.0799,0.29104 0.15449,0.88636 0.16584,1.32292 0.019,0.73219 0.13856,0.82904 1.54159,1.24882 1.82803,0.54694 3.06345,1.27728 3.63429,2.1485 0.23225,0.35445 0.59214,1.521 0.79976,2.59232 0.20762,1.07132 0.67728,3.50568 1.04367,5.40969 0.3664,1.90401 1.05823,4.82044 1.53736,6.48095 l 0.87117,3.01913 3.56426,2.19834 c 1.96032,1.20907 4.41206,2.67052 5.44832,3.24766 1.72292,0.95956 1.89622,1.13374 2.02602,2.03634 0.0781,0.54284 0.5755,3.24919 1.10541,6.01408 4.14057,21.60455 6.51245,41.41496 6.82476,57.00173 l 0.066,3.29131 -1.15989,0.34017 c -5.07748,1.48908 -22.48333,4.43757 -33.23595,5.63004 -10.82434,1.20045 -14.63505,1.38851 -29.63333,1.46252 -8.00364,0.0395 -15.26646,0.0313 -16.13958,-0.018 z m 15.11829,-64.20546 c 0.8935,-2.50827 2.00377,-5.81067 2.46726,-7.33864 1.66982,-5.5046 2.5989,-7.58208 4.13092,-9.23684 1.83197,-1.97877 3.64027,-2.90835 8.18144,-4.20591 4.54785,-1.29944 9.6034,-3.28143 13.39467,-5.25127 3.94152,-2.04791 3.79105,-1.81008 3.28811,-5.19732 -0.69208,-4.66079 -0.98267,-9.34126 -0.89311,-14.38516 0.095,-5.35257 0.2535,-5.06319 -1.76553,-3.22393 -4.11867,3.7519 -10.44004,7.90576 -15.34705,10.08476 -2.65335,1.17824 -4.04659,1.64353 -7.54063,2.51824 -2.47499,0.61961 -3.28335,0.69514 -7.40833,0.69221 -4.12642,-0.003 -4.97412,-0.0835 -7.79105,-0.74063 -7.43136,-1.73355 -14.49232,-5.54919 -22.04072,-11.91047 l -2.71198,-2.28546 v 6.59766 c 0,6.21434 -0.35383,10.92767 -1.06482,14.18446 -0.19431,0.89019 -0.14708,1.14479 0.30099,1.62172 1.46072,1.55487 11.04191,5.70815 17.03571,7.38469 4.16094,1.16387 6.12785,2.16566 7.71249,3.92816 1.64497,1.82959 2.23224,3.09962 3.77579,8.16525 0.73351,2.40723 1.82351,5.72929 2.42226,7.38238 0.59873,1.65306 1.2755,3.63067 1.50392,4.39465 0.22844,0.76398 0.48503,1.38748 0.57023,1.38552 0.0852,-0.003 0.88593,-2.05576 1.77943,-4.56407 z m 3.16828,-41.61486 c 8.38962,-1.46303 17.0611,-6.67423 25.90702,-15.56904 5.1545,-5.18299 8.29469,-9.41767 11.10472,-14.97523 1.66764,-3.29821 4.93202,-12.42889 6.48049,-18.12638 0.76512,-2.81522 1.30419,-4.41943 1.60811,-4.78566 0.17704,-0.21329 0.64347,-0.22912 1.60457,-0.0544 2.22268,0.40399 3.69665,-0.0988 5.49193,-1.87345 2.4153,-2.38753 3.94562,-6.10736 4.7694,-11.59338 0.37283,-2.48288 0.36629,-8.14208 -0.0114,-9.92432 -0.26996,-1.27329 -1.14753,-3.38646 -1.40642,-3.38646 -0.0579,0 -0.28128,-0.0675 -0.49636,-0.15007 -0.43656,-0.16752 -0.7565,0.42993 -2.65869,4.96477 -1.132,2.69868 -3.28264,6.71147 -3.48729,6.50681 -0.0531,-0.0531 0.0145,-0.86597 0.1506,-1.80641 0.35999,-2.49094 0.31261,-4.66954 -0.15518,-7.13559 -0.48794,-2.57222 -0.93694,-3.78654 -3.03204,-8.20034 -2.12601,-4.47891 -2.80202,-7.19733 -3.28978,-13.22917 -0.97912,-12.10815 -3.65474,-15.8356 -14.43191,-20.10522 -7.4712,-2.95989 -13.55164,-7.32009 -17.44795,-12.51169 -0.63087,-0.8406 -1.20565,-1.46978 -1.27725,-1.39817 -0.22677,0.22679 2.59017,4.9481 4.44694,7.45319 3.92636,5.29734 10.04977,10.39565 16.92409,14.0909 1.38245,0.74313 2.3752,1.35279 2.2061,1.35481 -1.89569,0.0227 -7.81952,-1.78205 -11.50951,-3.50639 -7.87662,-3.68076 -16.73979,-12.15791 -22.18203,-21.21592 -1.42896,-2.37835 -3.70046,-7.13356 -3.70287,-7.75161 0,-0.1819 -0.0937,-0.33073 -0.20674,-0.33073 -0.11301,0 -0.40291,1.33945 -0.64424,2.97656 -1.69373,11.48975 -8.13189,20.81143 -17.68464,25.60523 -1.39576,0.70041 -4.01751,1.83354 -5.82618,2.51806 -7.77311,2.94189 -11.97263,6.49351 -14.35547,12.14076 -0.43418,1.02896 -0.93879,2.40663 -1.12138,3.06147 -0.32843,1.17792 -0.33221,1.16369 -0.35563,-1.33347 -0.0424,-4.52296 1.45336,-8.3297 4.47426,-11.38724 2.23788,-2.265 3.88798,-3.34562 9.6573,-6.32432 4.99803,-2.58048 7.00825,-3.86438 9.35691,-5.97611 3.45199,-3.10376 6.42929,-8.43222 7.93615,-14.20334 0.35835,-1.37238 -0.003,-1.24162 -0.7284,0.26458 -1.11575,2.31244 -3.53285,5.67893 -5.46381,7.60987 -3.27765,3.27767 -6.85921,5.41231 -15.55244,9.26937 -5.45791,2.42161 -9.40544,5.38706 -11.95004,8.97711 -2.34947,3.31474 -3.16066,5.55539 -4.36084,12.04522 -1.139,6.15914 -2.34637,9.53351 -4.71972,13.19058 -2.17357,3.34929 -3.08469,7.00116 -2.90671,11.65066 0.13904,3.63242 0.32245,3.793 -3.096522,-2.71117 -1.444255,-2.74752 -2.555478,-4.56321 -2.82403,-4.61431 -0.698976,-0.13302 -1.753473,1.94625 -2.058935,4.05978 -0.886063,6.13099 0.476171,14.50425 3.059774,18.80745 2.010542,3.34876 3.413103,4.21294 6.767113,4.1696 2.72135,-0.0352 2.25391,-0.70733 4.1606,5.98282 4.65723,16.3411 8.07644,22.60452 17.48261,32.02523 6.15828,6.16779 10.84742,9.68584 16.53995,12.40922 6.51412,3.11642 12.68328,4.11499 18.81574,3.04558 z m 61.2168,-91.20242 c -0.0101,-11.57605 -1.41399,-20.77255 -4.77655,-31.28698 -2.42086,-7.56975 -5.75217,-14.41651 -9.84816,-20.24063 -5.25947,-7.47853 -11.17462,-12.97983 -19.03148,-17.7 -4.57705,-2.74976 -12.19626,-5.71538 -18.08067,-7.03754 -8.1008,-1.82015 -18.94819,-1.97128 -26.97276,-0.37579 -4.93914,0.98202 -12.00949,3.37434 -16.25111,5.49872 -15.27781,7.65178 -26.30511,21.12376 -32.447994,39.64152 -2.38342,7.18488 -3.482023,12.59335 -4.342898,21.38038 -0.32295,3.29629 -0.525515,14.13054 -0.267176,14.2902 0.152876,0.0945 1.522651,-4.35273 2.486395,-8.07249 0.207354,-0.80036 0.80444,-3.77692 1.326859,-6.61458 1.991942,-10.81993 4.437063,-19.76771 7.157874,-26.19375 4.65638,-10.99752 12.67648,-20.90129 21.70304,-26.80038 3.1574,-2.06345 7.9231,-4.59672 10.82989,-5.75679 7.67797,-3.06419 16.8986,-4.37632 20.58265,-2.92899 l 1.51713,0.59601 1.96691,-0.67888 c 3.07708,-1.06207 6.64673,-0.88254 12.99051,0.65333 5.85089,1.41654 10.7429,3.33318 15.34448,6.0118 4.92207,2.86518 7.87345,5.19959 12.20372,9.65263 6.46446,6.64774 10.90115,13.83832 14.25483,23.10305 1.24113,3.42863 3.38939,10.99421 4.09019,14.40447 0.31401,1.52797 0.67853,3.25437 0.81002,3.83646 0.13153,0.58208 0.60251,2.96333 1.04662,5.29166 0.44413,2.32834 1.23735,5.84068 1.76276,7.80521 0.52538,1.96453 1.08325,4.13742 1.2397,4.82865 0.15648,0.69123 0.38002,1.25677 0.49681,1.25677 0.11679,0 0.21055,-2.05383 0.20841,-4.56406 z"
       id="path4369" />
  </g>
</svg>
